  0
SECTION
  2
ENTITIES
  0
TEXT
  8
2
 10
1.2451
 20
0.0256
 30
0.0000
 40
0.0492
  1
C603
  0
TEXT
  8
2
 10
-3.2500
 20
0.5699
 30
0.0000
 40
0.0492
  1
C504
 50
90.0000
  0
TEXT
  8
2
 10
-3.2047
 20
1.9252
 30
0.0000
 40
0.0492
  1
C503
  0
TEXT
  8
2
 10
-0.9754
 20
0.1703
 30
0.0000
 40
0.0492
  1
C406
 50
90.0000
  0
TEXT
  8
2
 10
-2.9793
 20
1.2254
 30
0.0000
 40
0.0492
  1
C405
  0
TEXT
  8
2
 10
-1.5797
 20
1.2254
 30
0.0000
 40
0.0492
  1
C404
  0
TEXT
  8
2
 10
0.0748
 20
-0.2303
 30
0.0000
 40
0.0492
  1
C304
 50
90.0000
  0
TEXT
  8
2
 10
-1.5797
 20
0.6250
 30
0.0000
 40
0.0492
  1
C303
  0
TEXT
  8
2
 10
-0.0541
 20
-0.4744
 30
0.0000
 40
0.0492
  1
C203
  0
TEXT
  8
2
 10
1.2451
 20
1.9252
 30
0.0000
 40
0.0492
  1
C604
  0
TEXT
  8
2
 10
1.1752
 20
0.8947
 30
0.0000
 40
0.0492
  1
U601
 50
90.0000
  0
TEXT
  8
2
 10
-3.2500
 20
-0.3051
 30
0.0000
 40
0.0492
  1
U502
 50
90.0000
  0
TEXT
  8
2
 10
-0.3504
 20
2.0453
 30
0.0000
 40
0.0492
  1
U501
 50
90.0000
  0
TEXT
  8
2
 10
1.2205
 20
0.1250
 30
0.0000
 40
0.0492
  1
U602
  0
TEXT
  8
2
 10
0.9498
 20
2.0453
 30
0.0000
 40
0.0492
  1
U401
 50
90.0000
  0
TEXT
  8
2
 10
-3.2500
 20
1.4951
 30
0.0000
 40
0.0492
  1
U503
 50
90.0000
  0
TEXT
  8
2
 10
-0.9045
 20
0.1004
 30
0.0000
 40
0.0492
  1
U406
  0
TEXT
  8
2
 10
-3.2500
 20
0.8947
 30
0.0000
 40
0.0492
  1
U405
 50
90.0000
  0
TEXT
  8
2
 10
-1.8504
 20
0.8947
 30
0.0000
 40
0.0492
  1
U404
 50
90.0000
  0
TEXT
  8
2
 10
-1.8504
 20
1.5699
 30
0.0000
 40
0.0492
  1
U403
 50
90.0000
  0
TEXT
  8
2
 10
0.1998
 20
-0.4547
 30
0.0000
 40
0.0492
  1
U304
 50
90.0000
  0
TEXT
  8
2
 10
-1.8504
 20
0.2953
 30
0.0000
 40
0.0492
  1
U303
 50
90.0000
  0
TEXT
  8
2
 10
-3.2500
 20
0.2953
 30
0.0000
 40
0.0492
  1
U504
 50
90.0000
  0
TEXT
  8
2
 10
-0.9498
 20
0.8455
 30
0.0000
 40
0.0492
  1
U301
 50
90.0000
  0
TEXT
  8
2
 10
1.4459
 20
1.2500
 30
0.0000
 40
0.0492
  1
C601
  0
TEXT
  8
2
 10
-2.9793
 20
0.0256
 30
0.0000
 40
0.0492
  1
C502
  0
TEXT
  8
2
 10
-0.6043
 20
1.6998
 30
0.0000
 40
0.0492
  1
C501
  0
TEXT
  8
2
 10
-1.5797
 20
1.8248
 30
0.0000
 40
0.0492
  1
C403
  0
TEXT
  8
2
 10
-2.1545
 20
1.3002
 30
0.0000
 40
0.0492
  1
C402
  0
TEXT
  8
2
 10
0.8957
 20
1.4006
 30
0.0000
 40
0.0492
  1
C401
  0
TEXT
  8
2
 10
-1.5797
 20
0.0256
 30
0.0000
 40
0.0492
  1
C302
  0
TEXT
  8
2
 10
0.2953
 20
1.5000
 30
0.0000
 40
0.0492
  1
C301
  0
TEXT
  8
2
 10
-1.5797
 20
-0.5748
 30
0.0000
 40
0.0492
  1
C202
  0
TEXT
  8
2
 10
1.2451
 20
-0.5748
 30
0.0000
 40
0.0492
  1
C201
  0
TEXT
  8
2
 10
1.4203
 20
0.6250
 30
0.0000
 40
0.0492
  1
C602
  0
TEXT
  8
2
 10
0.9705
 20
-0.4744
 30
0.0000
 40
0.0492
  1
U603
  0
TEXT
  8
2
 10
-0.1043
 20
-1.0994
 30
0.0000
 40
0.0492
  1
U203
  0
TEXT
  8
2
 10
-1.8504
 20
-0.9045
 30
0.0000
 40
0.0492
  1
U202
 50
90.0000
  0
TEXT
  8
2
 10
1.0207
 20
-1.0994
 30
0.0000
 40
0.0492
  1
U201
  0
TEXT
  8
2
 10
0.9744
 20
1.5955
 30
0.0000
 40
0.0492
  1
U604
 50
90.0000
  0
TEXT
  8
2
 10
0.5453
 20
0.6004
 30
0.0000
 40
0.0492
  1
R603
  0
TEXT
  8
2
 10
0.5955
 20
0.0256
 30
0.0000
 40
0.0492
  1
R602
  0
TEXT
  8
2
 10
0.7205
 20
0.1004
 30
0.0000
 40
0.0492
  1
R601
  0
TEXT
  8
2
 10
-0.8504
 20
1.5699
 30
0.0000
 40
0.0492
  1
R503
 50
90.0000
  0
TEXT
  8
2
 10
-2.4754
 20
0.5699
 30
0.0000
 40
0.0492
  1
R502
 50
90.0000
  0
TEXT
  8
2
 10
-2.7500
 20
-0.8553
 30
0.0000
 40
0.0492
  1
R501
 50
90.0000
  0
TEXT
  8
2
 10
-2.2047
 20
1.5000
 30
0.0000
 40
0.0492
  1
R401
  0
TEXT
  8
2
 10
0.2500
 20
0.2451
 30
0.0000
 40
0.0492
  1
R303
 50
90.0000
  0
TEXT
  8
2
 10
0.6496
 20
0.2451
 30
0.0000
 40
0.0492
  1
R302
 50
90.0000
  0
TEXT
  8
2
 10
0.3455
 20
0.0256
 30
0.0000
 40
0.0492
  1
R301
  0
TEXT
  8
2
 10
0.7451
 20
-0.5748
 30
0.0000
 40
0.0492
  1
R201
  0
TEXT
  8
2
 10
0.9459
 20
0.6004
 30
0.0000
 40
0.0492
  1
R604
  0
TEXT
  8
2
 10
-1.8504
 20
-0.3051
 30
0.0000
 40
0.0492
  1
U302
 50
90.0000
  0
TEXT
  8
2
 10
2.0994
 20
-0.5049
 30
0.0000
 40
0.0492
  1
R605
 50
90.0000
  0
TEXT
  8
2
 10
-1.8760
 20
-1.2244
 30
0.0000
 40
0.0492
  1
RS301
  0
TEXT
  8
2
 10
2.1752
 20
1.5984
 30
0.0000
 40
0.0492
  1
RS601
 50
90.0000
  0
TEXT
  8
2
 10
-0.5512
 20
-1.0000
 30
0.0000
 40
0.0492
  1
JP301
  0
TEXT
  8
2
 10
-2.5000
 20
-0.9262
 30
0.0000
 40
0.0492
  1
SW301
 50
90.0000
  0
TEXT
  8
2
 10
2.2500
 20
-1.3051
 30
0.0000
 40
0.0492
  1
C101
 50
90.0000
  0
TEXT
  8
2
 10
-1.5295
 20
-1.1250
 30
0.0000
 40
0.0492
  1
C102
  0
TEXT
  8
2
 10
-2.4045
 20
1.1250
 30
0.0000
 40
0.0492
  1
U402
  0
TEXT
  8
2
 10
2.3494
 20
1.6201
 30
0.0000
 40
0.0492
  1
P602
 50
90.0000
  0
TEXT
  8
2
 10
2.3494
 20
-1.1053
 30
0.0000
 40
0.0492
  1
P601
 50
90.0000
  0
TEXT
  8
2
 10
1.5108
 20
-1.1299
 30
0.0000
 40
0.0492
  1
J203
  0
LINE
  8
2
 10
0.7106
 20
0.4596
 30
0.0000
 11
0.6506
 21
0.5748
 31
0.0000
  0
LINE
  8
2
 10
0.7106
 20
0.2795
 30
0.0000
 11
0.6250
 21
0.0994
 31
0.0000
  0
LINE
  8
3
 10
-1.1594
 20
-1.4498
 30
0.0000
 11
-1.1791
 21
-1.4498
 31
0.0000
  0
LINE
  8
3
 10
-1.1791
 20
-1.4498
 30
0.0000
 11
-1.1791
 21
-1.8504
 31
0.0000
  0
ARC
  8
3
 10
-1.1594
 20
-1.8504
 30
0.0000
 40
0.0197
 50
180.0000
 51
0.0000
  0
LINE
  8
3
 10
-1.1398
 20
-1.8504
 30
0.0000
 11
-1.1398
 21
-1.8504
 31
0.0000
  0
LINE
  8
3
 10
-1.1398
 20
-1.8504
 30
0.0000
 11
-1.1398
 21
-1.4498
 31
0.0000
  0
ARC
  8
3
 10
-1.1594
 20
-1.4498
 30
0.0000
 40
0.0197
 50
0.0000
 51
180.0000
  0
LINE
  8
3
 10
-1.1791
 20
-1.4498
 30
0.0000
 11
-1.1693
 21
-1.4498
 31
0.0000
  0
LINE
  8
3
 10
-1.1693
 20
-1.4498
 30
0.0000
 11
-1.1693
 21
-1.8504
 31
0.0000
  0
ARC
  8
3
 10
-1.1594
 20
-1.8504
 30
0.0000
 40
0.0098
 50
180.0000
 51
0.0000
  0
LINE
  8
3
 10
-1.1496
 20
-1.8504
 30
0.0000
 11
-1.1496
 21
-1.8504
 31
0.0000
  0
LINE
  8
3
 10
-1.1496
 20
-1.8504
 30
0.0000
 11
-1.1496
 21
-1.4498
 31
0.0000
  0
ARC
  8
3
 10
-1.1594
 20
-1.4498
 30
0.0000
 40
0.0098
 50
0.0000
 51
180.0000
  0
LINE
  8
3
 10
-1.1693
 20
-1.4498
 30
0.0000
 11
-1.1594
 21
-1.4498
 31
0.0000
  0
LINE
  8
3
 10
-1.1594
 20
-1.4498
 30
0.0000
 11
-1.1594
 21
-1.8504
 31
0.0000
  0
LINE
  8
3
 10
-1.0600
 20
-1.4498
 30
0.0000
 11
-1.0797
 21
-1.4498
 31
0.0000
  0
LINE
  8
3
 10
-1.0797
 20
-1.4498
 30
0.0000
 11
-1.0797
 21
-1.8504
 31
0.0000
  0
ARC
  8
3
 10
-1.0600
 20
-1.8504
 30
0.0000
 40
0.0197
 50
180.0000
 51
0.0000
  0
LINE
  8
3
 10
-1.0404
 20
-1.8504
 30
0.0000
 11
-1.0404
 21
-1.8504
 31
0.0000
  0
LINE
  8
3
 10
-1.0404
 20
-1.8504
 30
0.0000
 11
-1.0404
 21
-1.4498
 31
0.0000
  0
ARC
  8
3
 10
-1.0600
 20
-1.4498
 30
0.0000
 40
0.0197
 50
0.0000
 51
180.0000
  0
LINE
  8
3
 10
-1.0797
 20
-1.4498
 30
0.0000
 11
-1.0699
 21
-1.4498
 31
0.0000
  0
LINE
  8
3
 10
-1.0699
 20
-1.4498
 30
0.0000
 11
-1.0699
 21
-1.8504
 31
0.0000
  0
ARC
  8
3
 10
-1.0600
 20
-1.8504
 30
0.0000
 40
0.0098
 50
180.0000
 51
0.0000
  0
LINE
  8
3
 10
-1.0502
 20
-1.8504
 30
0.0000
 11
-1.0502
 21
-1.8504
 31
0.0000
  0
LINE
  8
3
 10
-1.0502
 20
-1.8504
 30
0.0000
 11
-1.0502
 21
-1.4498
 31
0.0000
  0
ARC
  8
3
 10
-1.0600
 20
-1.4498
 30
0.0000
 40
0.0098
 50
0.0000
 51
180.0000
  0
LINE
  8
3
 10
-1.0699
 20
-1.4498
 30
0.0000
 11
-1.0600
 21
-1.4498
 31
0.0000
  0
LINE
  8
3
 10
-1.0600
 20
-1.4498
 30
0.0000
 11
-1.0600
 21
-1.8504
 31
0.0000
  0
LINE
  8
3
 10
-0.9596
 20
-1.4498
 30
0.0000
 11
-0.9793
 21
-1.4498
 31
0.0000
  0
LINE
  8
3
 10
-0.9793
 20
-1.4498
 30
0.0000
 11
-0.9793
 21
-1.8504
 31
0.0000
  0
ARC
  8
3
 10
-0.9596
 20
-1.8504
 30
0.0000
 40
0.0197
 50
180.0000
 51
0.0000
  0
LINE
  8
3
 10
-0.9400
 20
-1.8504
 30
0.0000
 11
-0.9400
 21
-1.8504
 31
0.0000
  0
LINE
  8
3
 10
-0.9400
 20
-1.8504
 30
0.0000
 11
-0.9400
 21
-1.4498
 31
0.0000
  0
ARC
  8
3
 10
-0.9596
 20
-1.4498
 30
0.0000
 40
0.0197
 50
0.0000
 51
180.0000
  0
LINE
  8
3
 10
-0.9793
 20
-1.4498
 30
0.0000
 11
-0.9695
 21
-1.4498
 31
0.0000
  0
LINE
  8
3
 10
-0.9695
 20
-1.4498
 30
0.0000
 11
-0.9695
 21
-1.8504
 31
0.0000
  0
ARC
  8
3
 10
-0.9596
 20
-1.8504
 30
0.0000
 40
0.0098
 50
180.0000
 51
0.0000
  0
LINE
  8
3
 10
-0.9498
 20
-1.8504
 30
0.0000
 11
-0.9498
 21
-1.8504
 31
0.0000
  0
LINE
  8
3
 10
-0.9498
 20
-1.8504
 30
0.0000
 11
-0.9498
 21
-1.4498
 31
0.0000
  0
ARC
  8
3
 10
-0.9596
 20
-1.4498
 30
0.0000
 40
0.0098
 50
0.0000
 51
180.0000
  0
LINE
  8
3
 10
-0.9695
 20
-1.4498
 30
0.0000
 11
-0.9596
 21
-1.4498
 31
0.0000
  0
LINE
  8
3
 10
-0.9596
 20
-1.4498
 30
0.0000
 11
-0.9596
 21
-1.8504
 31
0.0000
  0
LINE
  8
3
 10
-0.8602
 20
-1.4498
 30
0.0000
 11
-0.8799
 21
-1.4498
 31
0.0000
  0
LINE
  8
3
 10
-0.8799
 20
-1.4498
 30
0.0000
 11
-0.8799
 21
-1.8504
 31
0.0000
  0
ARC
  8
3
 10
-0.8602
 20
-1.8504
 30
0.0000
 40
0.0197
 50
180.0000
 51
0.0000
  0
LINE
  8
3
 10
-0.8406
 20
-1.8504
 30
0.0000
 11
-0.8406
 21
-1.8504
 31
0.0000
  0
LINE
  8
3
 10
-0.8406
 20
-1.8504
 30
0.0000
 11
-0.8406
 21
-1.4498
 31
0.0000
  0
ARC
  8
3
 10
-0.8602
 20
-1.4498
 30
0.0000
 40
0.0197
 50
0.0000
 51
180.0000
  0
LINE
  8
3
 10
-0.8799
 20
-1.4498
 30
0.0000
 11
-0.8701
 21
-1.4498
 31
0.0000
  0
LINE
  8
3
 10
-0.8701
 20
-1.4498
 30
0.0000
 11
-0.8701
 21
-1.8504
 31
0.0000
  0
ARC
  8
3
 10
-0.8602
 20
-1.8504
 30
0.0000
 40
0.0098
 50
180.0000
 51
0.0000
  0
LINE
  8
3
 10
-0.8504
 20
-1.8504
 30
0.0000
 11
-0.8504
 21
-1.8504
 31
0.0000
  0
LINE
  8
3
 10
-0.8504
 20
-1.8504
 30
0.0000
 11
-0.8504
 21
-1.4498
 31
0.0000
  0
ARC
  8
3
 10
-0.8602
 20
-1.4498
 30
0.0000
 40
0.0098
 50
0.0000
 51
180.0000
  0
LINE
  8
3
 10
-0.8701
 20
-1.4498
 30
0.0000
 11
-0.8602
 21
-1.4498
 31
0.0000
  0
LINE
  8
3
 10
-0.8602
 20
-1.4498
 30
0.0000
 11
-0.8602
 21
-1.8504
 31
0.0000
  0
LINE
  8
3
 10
-0.7598
 20
-1.4498
 30
0.0000
 11
-0.7795
 21
-1.4498
 31
0.0000
  0
LINE
  8
3
 10
-0.7795
 20
-1.4498
 30
0.0000
 11
-0.7795
 21
-1.8504
 31
0.0000
  0
ARC
  8
3
 10
-0.7598
 20
-1.8504
 30
0.0000
 40
0.0197
 50
180.0000
 51
0.0000
  0
LINE
  8
3
 10
-0.7402
 20
-1.8504
 30
0.0000
 11
-0.7402
 21
-1.8504
 31
0.0000
  0
LINE
  8
3
 10
-0.7402
 20
-1.8504
 30
0.0000
 11
-0.7402
 21
-1.4498
 31
0.0000
  0
ARC
  8
3
 10
-0.7598
 20
-1.4498
 30
0.0000
 40
0.0197
 50
0.0000
 51
180.0000
  0
LINE
  8
3
 10
-0.7795
 20
-1.4498
 30
0.0000
 11
-0.7697
 21
-1.4498
 31
0.0000
  0
LINE
  8
3
 10
-0.7697
 20
-1.4498
 30
0.0000
 11
-0.7697
 21
-1.8504
 31
0.0000
  0
ARC
  8
3
 10
-0.7598
 20
-1.8504
 30
0.0000
 40
0.0098
 50
180.0000
 51
0.0000
  0
LINE
  8
3
 10
-0.7500
 20
-1.8504
 30
0.0000
 11
-0.7500
 21
-1.8504
 31
0.0000
  0
LINE
  8
3
 10
-0.7500
 20
-1.8504
 30
0.0000
 11
-0.7500
 21
-1.4498
 31
0.0000
  0
ARC
  8
3
 10
-0.7598
 20
-1.4498
 30
0.0000
 40
0.0098
 50
0.0000
 51
180.0000
  0
LINE
  8
3
 10
-0.7697
 20
-1.4498
 30
0.0000
 11
-0.7598
 21
-1.4498
 31
0.0000
  0
LINE
  8
3
 10
-0.7598
 20
-1.4498
 30
0.0000
 11
-0.7598
 21
-1.8504
 31
0.0000
  0
LINE
  8
3
 10
-0.6594
 20
-1.4498
 30
0.0000
 11
-0.6791
 21
-1.4498
 31
0.0000
  0
LINE
  8
3
 10
-0.6791
 20
-1.4498
 30
0.0000
 11
-0.6791
 21
-1.8504
 31
0.0000
  0
ARC
  8
3
 10
-0.6594
 20
-1.8504
 30
0.0000
 40
0.0197
 50
180.0000
 51
0.0000
  0
LINE
  8
3
 10
-0.6398
 20
-1.8504
 30
0.0000
 11
-0.6398
 21
-1.8504
 31
0.0000
  0
LINE
  8
3
 10
-0.6398
 20
-1.8504
 30
0.0000
 11
-0.6398
 21
-1.4498
 31
0.0000
  0
ARC
  8
3
 10
-0.6594
 20
-1.4498
 30
0.0000
 40
0.0197
 50
0.0000
 51
180.0000
  0
LINE
  8
3
 10
-0.6791
 20
-1.4498
 30
0.0000
 11
-0.6693
 21
-1.4498
 31
0.0000
  0
LINE
  8
3
 10
-0.6693
 20
-1.4498
 30
0.0000
 11
-0.6693
 21
-1.8504
 31
0.0000
  0
ARC
  8
3
 10
-0.6594
 20
-1.8504
 30
0.0000
 40
0.0098
 50
180.0000
 51
0.0000
  0
LINE
  8
3
 10
-0.6496
 20
-1.8504
 30
0.0000
 11
-0.6496
 21
-1.8504
 31
0.0000
  0
LINE
  8
3
 10
-0.6496
 20
-1.8504
 30
0.0000
 11
-0.6496
 21
-1.4498
 31
0.0000
  0
ARC
  8
3
 10
-0.6594
 20
-1.4498
 30
0.0000
 40
0.0098
 50
0.0000
 51
180.0000
  0
LINE
  8
3
 10
-0.6693
 20
-1.4498
 30
0.0000
 11
-0.6594
 21
-1.4498
 31
0.0000
  0
LINE
  8
3
 10
-0.6594
 20
-1.4498
 30
0.0000
 11
-0.6594
 21
-1.8504
 31
0.0000
  0
LINE
  8
3
 10
-0.5600
 20
-1.4498
 30
0.0000
 11
-0.5797
 21
-1.4498
 31
0.0000
  0
LINE
  8
3
 10
-0.5797
 20
-1.4498
 30
0.0000
 11
-0.5797
 21
-1.8504
 31
0.0000
  0
ARC
  8
3
 10
-0.5600
 20
-1.8504
 30
0.0000
 40
0.0197
 50
180.0000
 51
0.0000
  0
LINE
  8
3
 10
-0.5404
 20
-1.8504
 30
0.0000
 11
-0.5404
 21
-1.8504
 31
0.0000
  0
LINE
  8
3
 10
-0.5404
 20
-1.8504
 30
0.0000
 11
-0.5404
 21
-1.4498
 31
0.0000
  0
ARC
  8
3
 10
-0.5600
 20
-1.4498
 30
0.0000
 40
0.0197
 50
0.0000
 51
180.0000
  0
LINE
  8
3
 10
-0.5797
 20
-1.4498
 30
0.0000
 11
-0.5699
 21
-1.4498
 31
0.0000
  0
LINE
  8
3
 10
-0.5699
 20
-1.4498
 30
0.0000
 11
-0.5699
 21
-1.8504
 31
0.0000
  0
ARC
  8
3
 10
-0.5600
 20
-1.8504
 30
0.0000
 40
0.0098
 50
180.0000
 51
0.0000
  0
LINE
  8
3
 10
-0.5502
 20
-1.8504
 30
0.0000
 11
-0.5502
 21
-1.8504
 31
0.0000
  0
LINE
  8
3
 10
-0.5502
 20
-1.8504
 30
0.0000
 11
-0.5502
 21
-1.4498
 31
0.0000
  0
ARC
  8
3
 10
-0.5600
 20
-1.4498
 30
0.0000
 40
0.0098
 50
0.0000
 51
180.0000
  0
LINE
  8
3
 10
-0.5699
 20
-1.4498
 30
0.0000
 11
-0.5600
 21
-1.4498
 31
0.0000
  0
LINE
  8
3
 10
-0.5600
 20
-1.4498
 30
0.0000
 11
-0.5600
 21
-1.8504
 31
0.0000
  0
LINE
  8
3
 10
-0.4596
 20
-1.4498
 30
0.0000
 11
-0.4793
 21
-1.4498
 31
0.0000
  0
LINE
  8
3
 10
-0.4793
 20
-1.4498
 30
0.0000
 11
-0.4793
 21
-1.8504
 31
0.0000
  0
ARC
  8
3
 10
-0.4596
 20
-1.8504
 30
0.0000
 40
0.0197
 50
180.0000
 51
0.0000
  0
LINE
  8
3
 10
-0.4400
 20
-1.8504
 30
0.0000
 11
-0.4400
 21
-1.8504
 31
0.0000
  0
LINE
  8
3
 10
-0.4400
 20
-1.8504
 30
0.0000
 11
-0.4400
 21
-1.4498
 31
0.0000
  0
ARC
  8
3
 10
-0.4596
 20
-1.4498
 30
0.0000
 40
0.0197
 50
0.0000
 51
180.0000
  0
LINE
  8
3
 10
-0.4793
 20
-1.4498
 30
0.0000
 11
-0.4695
 21
-1.4498
 31
0.0000
  0
LINE
  8
3
 10
-0.4695
 20
-1.4498
 30
0.0000
 11
-0.4695
 21
-1.8504
 31
0.0000
  0
ARC
  8
3
 10
-0.4596
 20
-1.8504
 30
0.0000
 40
0.0098
 50
180.0000
 51
0.0000
  0
LINE
  8
3
 10
-0.4498
 20
-1.8504
 30
0.0000
 11
-0.4498
 21
-1.8504
 31
0.0000
  0
LINE
  8
3
 10
-0.4498
 20
-1.8504
 30
0.0000
 11
-0.4498
 21
-1.4498
 31
0.0000
  0
ARC
  8
3
 10
-0.4596
 20
-1.4498
 30
0.0000
 40
0.0098
 50
0.0000
 51
180.0000
  0
LINE
  8
3
 10
-0.4695
 20
-1.4498
 30
0.0000
 11
-0.4596
 21
-1.4498
 31
0.0000
  0
LINE
  8
3
 10
-0.4596
 20
-1.4498
 30
0.0000
 11
-0.4596
 21
-1.8504
 31
0.0000
  0
LINE
  8
3
 10
-0.3602
 20
-1.4498
 30
0.0000
 11
-0.3799
 21
-1.4498
 31
0.0000
  0
LINE
  8
3
 10
-0.3799
 20
-1.4498
 30
0.0000
 11
-0.3799
 21
-1.8504
 31
0.0000
  0
ARC
  8
3
 10
-0.3602
 20
-1.8504
 30
0.0000
 40
0.0197
 50
180.0000
 51
0.0000
  0
LINE
  8
3
 10
-0.3406
 20
-1.8504
 30
0.0000
 11
-0.3406
 21
-1.8504
 31
0.0000
  0
LINE
  8
3
 10
-0.3406
 20
-1.8504
 30
0.0000
 11
-0.3406
 21
-1.4498
 31
0.0000
  0
ARC
  8
3
 10
-0.3602
 20
-1.4498
 30
0.0000
 40
0.0197
 50
0.0000
 51
180.0000
  0
LINE
  8
3
 10
-0.3799
 20
-1.4498
 30
0.0000
 11
-0.3701
 21
-1.4498
 31
0.0000
  0
LINE
  8
3
 10
-0.3701
 20
-1.4498
 30
0.0000
 11
-0.3701
 21
-1.8504
 31
0.0000
  0
ARC
  8
3
 10
-0.3602
 20
-1.8504
 30
0.0000
 40
0.0098
 50
180.0000
 51
0.0000
  0
LINE
  8
3
 10
-0.3504
 20
-1.8504
 30
0.0000
 11
-0.3504
 21
-1.8504
 31
0.0000
  0
LINE
  8
3
 10
-0.3504
 20
-1.8504
 30
0.0000
 11
-0.3504
 21
-1.4498
 31
0.0000
  0
ARC
  8
3
 10
-0.3602
 20
-1.4498
 30
0.0000
 40
0.0098
 50
0.0000
 51
180.0000
  0
LINE
  8
3
 10
-0.3701
 20
-1.4498
 30
0.0000
 11
-0.3602
 21
-1.4498
 31
0.0000
  0
LINE
  8
3
 10
-0.3602
 20
-1.4498
 30
0.0000
 11
-0.3602
 21
-1.8504
 31
0.0000
  0
LINE
  8
3
 10
-0.2598
 20
-1.4498
 30
0.0000
 11
-0.2795
 21
-1.4498
 31
0.0000
  0
LINE
  8
3
 10
-0.2795
 20
-1.4498
 30
0.0000
 11
-0.2795
 21
-1.8504
 31
0.0000
  0
ARC
  8
3
 10
-0.2598
 20
-1.8504
 30
0.0000
 40
0.0197
 50
180.0000
 51
0.0000
  0
LINE
  8
3
 10
-0.2402
 20
-1.8504
 30
0.0000
 11
-0.2402
 21
-1.8504
 31
0.0000
  0
LINE
  8
3
 10
-0.2402
 20
-1.8504
 30
0.0000
 11
-0.2402
 21
-1.4498
 31
0.0000
  0
ARC
  8
3
 10
-0.2598
 20
-1.4498
 30
0.0000
 40
0.0197
 50
0.0000
 51
180.0000
  0
LINE
  8
3
 10
-0.2795
 20
-1.4498
 30
0.0000
 11
-0.2697
 21
-1.4498
 31
0.0000
  0
LINE
  8
3
 10
-0.2697
 20
-1.4498
 30
0.0000
 11
-0.2697
 21
-1.8504
 31
0.0000
  0
ARC
  8
3
 10
-0.2598
 20
-1.8504
 30
0.0000
 40
0.0098
 50
180.0000
 51
0.0000
  0
LINE
  8
3
 10
-0.2500
 20
-1.8504
 30
0.0000
 11
-0.2500
 21
-1.8504
 31
0.0000
  0
LINE
  8
3
 10
-0.2500
 20
-1.8504
 30
0.0000
 11
-0.2500
 21
-1.4498
 31
0.0000
  0
ARC
  8
3
 10
-0.2598
 20
-1.4498
 30
0.0000
 40
0.0098
 50
0.0000
 51
180.0000
  0
LINE
  8
3
 10
-0.2697
 20
-1.4498
 30
0.0000
 11
-0.2598
 21
-1.4498
 31
0.0000
  0
LINE
  8
3
 10
-0.2598
 20
-1.4498
 30
0.0000
 11
-0.2598
 21
-1.8504
 31
0.0000
  0
LINE
  8
3
 10
-0.1594
 20
-1.4498
 30
0.0000
 11
-0.1791
 21
-1.4498
 31
0.0000
  0
LINE
  8
3
 10
-0.1791
 20
-1.4498
 30
0.0000
 11
-0.1791
 21
-1.8504
 31
0.0000
  0
ARC
  8
3
 10
-0.1594
 20
-1.8504
 30
0.0000
 40
0.0197
 50
180.0000
 51
0.0000
  0
LINE
  8
3
 10
-0.1398
 20
-1.8504
 30
0.0000
 11
-0.1398
 21
-1.8504
 31
0.0000
  0
LINE
  8
3
 10
-0.1398
 20
-1.8504
 30
0.0000
 11
-0.1398
 21
-1.4498
 31
0.0000
  0
ARC
  8
3
 10
-0.1594
 20
-1.4498
 30
0.0000
 40
0.0197
 50
0.0000
 51
180.0000
  0
LINE
  8
3
 10
-0.1791
 20
-1.4498
 30
0.0000
 11
-0.1693
 21
-1.4498
 31
0.0000
  0
LINE
  8
3
 10
-0.1693
 20
-1.4498
 30
0.0000
 11
-0.1693
 21
-1.8504
 31
0.0000
  0
ARC
  8
3
 10
-0.1594
 20
-1.8504
 30
0.0000
 40
0.0098
 50
180.0000
 51
0.0000
  0
LINE
  8
3
 10
-0.1496
 20
-1.8504
 30
0.0000
 11
-0.1496
 21
-1.8504
 31
0.0000
  0
LINE
  8
3
 10
-0.1496
 20
-1.8504
 30
0.0000
 11
-0.1496
 21
-1.4498
 31
0.0000
  0
ARC
  8
3
 10
-0.1594
 20
-1.4498
 30
0.0000
 40
0.0098
 50
0.0000
 51
180.0000
  0
LINE
  8
3
 10
-0.1693
 20
-1.4498
 30
0.0000
 11
-0.1594
 21
-1.4498
 31
0.0000
  0
LINE
  8
3
 10
-0.1594
 20
-1.4498
 30
0.0000
 11
-0.1594
 21
-1.8504
 31
0.0000
  0
LINE
  8
3
 10
-0.0600
 20
-1.4498
 30
0.0000
 11
-0.0797
 21
-1.4498
 31
0.0000
  0
LINE
  8
3
 10
-0.0797
 20
-1.4498
 30
0.0000
 11
-0.0797
 21
-1.8504
 31
0.0000
  0
ARC
  8
3
 10
-0.0600
 20
-1.8504
 30
0.0000
 40
0.0197
 50
180.0000
 51
0.0000
  0
LINE
  8
3
 10
-0.0404
 20
-1.8504
 30
0.0000
 11
-0.0404
 21
-1.8504
 31
0.0000
  0
LINE
  8
3
 10
-0.0404
 20
-1.8504
 30
0.0000
 11
-0.0404
 21
-1.4498
 31
0.0000
  0
ARC
  8
3
 10
-0.0600
 20
-1.4498
 30
0.0000
 40
0.0197
 50
0.0000
 51
180.0000
  0
LINE
  8
3
 10
-0.0797
 20
-1.4498
 30
0.0000
 11
-0.0699
 21
-1.4498
 31
0.0000
  0
LINE
  8
3
 10
-0.0699
 20
-1.4498
 30
0.0000
 11
-0.0699
 21
-1.8504
 31
0.0000
  0
ARC
  8
3
 10
-0.0600
 20
-1.8504
 30
0.0000
 40
0.0098
 50
180.0000
 51
0.0000
  0
LINE
  8
3
 10
-0.0502
 20
-1.8504
 30
0.0000
 11
-0.0502
 21
-1.8504
 31
0.0000
  0
LINE
  8
3
 10
-0.0502
 20
-1.8504
 30
0.0000
 11
-0.0502
 21
-1.4498
 31
0.0000
  0
ARC
  8
3
 10
-0.0600
 20
-1.4498
 30
0.0000
 40
0.0098
 50
0.0000
 51
180.0000
  0
LINE
  8
3
 10
-0.0699
 20
-1.4498
 30
0.0000
 11
-0.0600
 21
-1.4498
 31
0.0000
  0
LINE
  8
3
 10
-0.0600
 20
-1.4498
 30
0.0000
 11
-0.0600
 21
-1.8504
 31
0.0000
  0
LINE
  8
3
 10
0.0404
 20
-1.4498
 30
0.0000
 11
0.0207
 21
-1.4498
 31
0.0000
  0
LINE
  8
3
 10
0.0207
 20
-1.4498
 30
0.0000
 11
0.0207
 21
-1.8504
 31
0.0000
  0
ARC
  8
3
 10
0.0404
 20
-1.8504
 30
0.0000
 40
0.0197
 50
180.0000
 51
0.0000
  0
LINE
  8
3
 10
0.0600
 20
-1.8504
 30
0.0000
 11
0.0600
 21
-1.8504
 31
0.0000
  0
LINE
  8
3
 10
0.0600
 20
-1.8504
 30
0.0000
 11
0.0600
 21
-1.4498
 31
0.0000
  0
ARC
  8
3
 10
0.0404
 20
-1.4498
 30
0.0000
 40
0.0197
 50
0.0000
 51
180.0000
  0
LINE
  8
3
 10
0.0207
 20
-1.4498
 30
0.0000
 11
0.0305
 21
-1.4498
 31
0.0000
  0
LINE
  8
3
 10
0.0305
 20
-1.4498
 30
0.0000
 11
0.0305
 21
-1.8504
 31
0.0000
  0
ARC
  8
3
 10
0.0404
 20
-1.8504
 30
0.0000
 40
0.0098
 50
180.0000
 51
0.0000
  0
LINE
  8
3
 10
0.0502
 20
-1.8504
 30
0.0000
 11
0.0502
 21
-1.8504
 31
0.0000
  0
LINE
  8
3
 10
0.0502
 20
-1.8504
 30
0.0000
 11
0.0502
 21
-1.4498
 31
0.0000
  0
ARC
  8
3
 10
0.0404
 20
-1.4498
 30
0.0000
 40
0.0098
 50
0.0000
 51
180.0000
  0
LINE
  8
3
 10
0.0305
 20
-1.4498
 30
0.0000
 11
0.0404
 21
-1.4498
 31
0.0000
  0
LINE
  8
3
 10
0.0404
 20
-1.4498
 30
0.0000
 11
0.0404
 21
-1.8504
 31
0.0000
  0
LINE
  8
3
 10
0.1398
 20
-1.4498
 30
0.0000
 11
0.1201
 21
-1.4498
 31
0.0000
  0
LINE
  8
3
 10
0.1201
 20
-1.4498
 30
0.0000
 11
0.1201
 21
-1.8504
 31
0.0000
  0
ARC
  8
3
 10
0.1398
 20
-1.8504
 30
0.0000
 40
0.0197
 50
180.0000
 51
0.0000
  0
LINE
  8
3
 10
0.1594
 20
-1.8504
 30
0.0000
 11
0.1594
 21
-1.8504
 31
0.0000
  0
LINE
  8
3
 10
0.1594
 20
-1.8504
 30
0.0000
 11
0.1594
 21
-1.4498
 31
0.0000
  0
ARC
  8
3
 10
0.1398
 20
-1.4498
 30
0.0000
 40
0.0197
 50
0.0000
 51
180.0000
  0
LINE
  8
3
 10
0.1201
 20
-1.4498
 30
0.0000
 11
0.1299
 21
-1.4498
 31
0.0000
  0
LINE
  8
3
 10
0.1299
 20
-1.4498
 30
0.0000
 11
0.1299
 21
-1.8504
 31
0.0000
  0
ARC
  8
3
 10
0.1398
 20
-1.8504
 30
0.0000
 40
0.0098
 50
180.0000
 51
0.0000
  0
LINE
  8
3
 10
0.1496
 20
-1.8504
 30
0.0000
 11
0.1496
 21
-1.8504
 31
0.0000
  0
LINE
  8
3
 10
0.1496
 20
-1.8504
 30
0.0000
 11
0.1496
 21
-1.4498
 31
0.0000
  0
ARC
  8
3
 10
0.1398
 20
-1.4498
 30
0.0000
 40
0.0098
 50
0.0000
 51
180.0000
  0
LINE
  8
3
 10
0.1299
 20
-1.4498
 30
0.0000
 11
0.1398
 21
-1.4498
 31
0.0000
  0
LINE
  8
3
 10
0.1398
 20
-1.4498
 30
0.0000
 11
0.1398
 21
-1.8504
 31
0.0000
  0
LINE
  8
3
 10
0.2402
 20
-1.4498
 30
0.0000
 11
0.2205
 21
-1.4498
 31
0.0000
  0
LINE
  8
3
 10
0.2205
 20
-1.4498
 30
0.0000
 11
0.2205
 21
-1.8504
 31
0.0000
  0
ARC
  8
3
 10
0.2402
 20
-1.8504
 30
0.0000
 40
0.0197
 50
180.0000
 51
0.0000
  0
LINE
  8
3
 10
0.2598
 20
-1.8504
 30
0.0000
 11
0.2598
 21
-1.8504
 31
0.0000
  0
LINE
  8
3
 10
0.2598
 20
-1.8504
 30
0.0000
 11
0.2598
 21
-1.4498
 31
0.0000
  0
ARC
  8
3
 10
0.2402
 20
-1.4498
 30
0.0000
 40
0.0197
 50
0.0000
 51
180.0000
  0
LINE
  8
3
 10
0.2205
 20
-1.4498
 30
0.0000
 11
0.2303
 21
-1.4498
 31
0.0000
  0
LINE
  8
3
 10
0.2303
 20
-1.4498
 30
0.0000
 11
0.2303
 21
-1.8504
 31
0.0000
  0
ARC
  8
3
 10
0.2402
 20
-1.8504
 30
0.0000
 40
0.0098
 50
180.0000
 51
0.0000
  0
LINE
  8
3
 10
0.2500
 20
-1.8504
 30
0.0000
 11
0.2500
 21
-1.8504
 31
0.0000
  0
LINE
  8
3
 10
0.2500
 20
-1.8504
 30
0.0000
 11
0.2500
 21
-1.4498
 31
0.0000
  0
ARC
  8
3
 10
0.2402
 20
-1.4498
 30
0.0000
 40
0.0098
 50
0.0000
 51
180.0000
  0
LINE
  8
3
 10
0.2303
 20
-1.4498
 30
0.0000
 11
0.2402
 21
-1.4498
 31
0.0000
  0
LINE
  8
3
 10
0.2402
 20
-1.4498
 30
0.0000
 11
0.2402
 21
-1.8504
 31
0.0000
  0
LINE
  8
3
 10
0.3406
 20
-1.4498
 30
0.0000
 11
0.3209
 21
-1.4498
 31
0.0000
  0
LINE
  8
3
 10
0.3209
 20
-1.4498
 30
0.0000
 11
0.3209
 21
-1.8504
 31
0.0000
  0
ARC
  8
3
 10
0.3406
 20
-1.8504
 30
0.0000
 40
0.0197
 50
180.0000
 51
0.0000
  0
LINE
  8
3
 10
0.3602
 20
-1.8504
 30
0.0000
 11
0.3602
 21
-1.8504
 31
0.0000
  0
LINE
  8
3
 10
0.3602
 20
-1.8504
 30
0.0000
 11
0.3602
 21
-1.4498
 31
0.0000
  0
ARC
  8
3
 10
0.3406
 20
-1.4498
 30
0.0000
 40
0.0197
 50
0.0000
 51
180.0000
  0
LINE
  8
3
 10
0.3209
 20
-1.4498
 30
0.0000
 11
0.3307
 21
-1.4498
 31
0.0000
  0
LINE
  8
3
 10
0.3307
 20
-1.4498
 30
0.0000
 11
0.3307
 21
-1.8504
 31
0.0000
  0
ARC
  8
3
 10
0.3406
 20
-1.8504
 30
0.0000
 40
0.0098
 50
180.0000
 51
0.0000
  0
LINE
  8
3
 10
0.3504
 20
-1.8504
 30
0.0000
 11
0.3504
 21
-1.8504
 31
0.0000
  0
LINE
  8
3
 10
0.3504
 20
-1.8504
 30
0.0000
 11
0.3504
 21
-1.4498
 31
0.0000
  0
ARC
  8
3
 10
0.3406
 20
-1.4498
 30
0.0000
 40
0.0098
 50
0.0000
 51
180.0000
  0
LINE
  8
3
 10
0.3307
 20
-1.4498
 30
0.0000
 11
0.3406
 21
-1.4498
 31
0.0000
  0
LINE
  8
3
 10
0.3406
 20
-1.4498
 30
0.0000
 11
0.3406
 21
-1.8504
 31
0.0000
  0
LINE
  8
3
 10
0.4400
 20
-1.4498
 30
0.0000
 11
0.4203
 21
-1.4498
 31
0.0000
  0
LINE
  8
3
 10
0.4203
 20
-1.4498
 30
0.0000
 11
0.4203
 21
-1.8504
 31
0.0000
  0
ARC
  8
3
 10
0.4400
 20
-1.8504
 30
0.0000
 40
0.0197
 50
180.0000
 51
0.0000
  0
LINE
  8
3
 10
0.4596
 20
-1.8504
 30
0.0000
 11
0.4596
 21
-1.8504
 31
0.0000
  0
LINE
  8
3
 10
0.4596
 20
-1.8504
 30
0.0000
 11
0.4596
 21
-1.4498
 31
0.0000
  0
ARC
  8
3
 10
0.4400
 20
-1.4498
 30
0.0000
 40
0.0197
 50
0.0000
 51
180.0000
  0
LINE
  8
3
 10
0.4203
 20
-1.4498
 30
0.0000
 11
0.4301
 21
-1.4498
 31
0.0000
  0
LINE
  8
3
 10
0.4301
 20
-1.4498
 30
0.0000
 11
0.4301
 21
-1.8504
 31
0.0000
  0
ARC
  8
3
 10
0.4400
 20
-1.8504
 30
0.0000
 40
0.0098
 50
180.0000
 51
0.0000
  0
LINE
  8
3
 10
0.4498
 20
-1.8504
 30
0.0000
 11
0.4498
 21
-1.8504
 31
0.0000
  0
LINE
  8
3
 10
0.4498
 20
-1.8504
 30
0.0000
 11
0.4498
 21
-1.4498
 31
0.0000
  0
ARC
  8
3
 10
0.4400
 20
-1.4498
 30
0.0000
 40
0.0098
 50
0.0000
 51
180.0000
  0
LINE
  8
3
 10
0.4301
 20
-1.4498
 30
0.0000
 11
0.4400
 21
-1.4498
 31
0.0000
  0
LINE
  8
3
 10
0.4400
 20
-1.4498
 30
0.0000
 11
0.4400
 21
-1.8504
 31
0.0000
  0
LINE
  8
3
 10
0.5404
 20
-1.4498
 30
0.0000
 11
0.5207
 21
-1.4498
 31
0.0000
  0
LINE
  8
3
 10
0.5207
 20
-1.4498
 30
0.0000
 11
0.5207
 21
-1.8504
 31
0.0000
  0
ARC
  8
3
 10
0.5404
 20
-1.8504
 30
0.0000
 40
0.0197
 50
180.0000
 51
0.0000
  0
LINE
  8
3
 10
0.5600
 20
-1.8504
 30
0.0000
 11
0.5600
 21
-1.8504
 31
0.0000
  0
LINE
  8
3
 10
0.5600
 20
-1.8504
 30
0.0000
 11
0.5600
 21
-1.4498
 31
0.0000
  0
ARC
  8
3
 10
0.5404
 20
-1.4498
 30
0.0000
 40
0.0197
 50
0.0000
 51
180.0000
  0
LINE
  8
3
 10
0.5207
 20
-1.4498
 30
0.0000
 11
0.5305
 21
-1.4498
 31
0.0000
  0
LINE
  8
3
 10
0.5305
 20
-1.4498
 30
0.0000
 11
0.5305
 21
-1.8504
 31
0.0000
  0
ARC
  8
3
 10
0.5404
 20
-1.8504
 30
0.0000
 40
0.0098
 50
180.0000
 51
0.0000
  0
LINE
  8
3
 10
0.5502
 20
-1.8504
 30
0.0000
 11
0.5502
 21
-1.8504
 31
0.0000
  0
LINE
  8
3
 10
0.5502
 20
-1.8504
 30
0.0000
 11
0.5502
 21
-1.4498
 31
0.0000
  0
ARC
  8
3
 10
0.5404
 20
-1.4498
 30
0.0000
 40
0.0098
 50
0.0000
 51
180.0000
  0
LINE
  8
3
 10
0.5305
 20
-1.4498
 30
0.0000
 11
0.5404
 21
-1.4498
 31
0.0000
  0
LINE
  8
3
 10
0.5404
 20
-1.4498
 30
0.0000
 11
0.5404
 21
-1.8504
 31
0.0000
  0
LINE
  8
3
 10
0.6398
 20
-1.4498
 30
0.0000
 11
0.6201
 21
-1.4498
 31
0.0000
  0
LINE
  8
3
 10
0.6201
 20
-1.4498
 30
0.0000
 11
0.6201
 21
-1.8504
 31
0.0000
  0
ARC
  8
3
 10
0.6398
 20
-1.8504
 30
0.0000
 40
0.0197
 50
180.0000
 51
0.0000
  0
LINE
  8
3
 10
0.6594
 20
-1.8504
 30
0.0000
 11
0.6594
 21
-1.8504
 31
0.0000
  0
LINE
  8
3
 10
0.6594
 20
-1.8504
 30
0.0000
 11
0.6594
 21
-1.4498
 31
0.0000
  0
ARC
  8
3
 10
0.6398
 20
-1.4498
 30
0.0000
 40
0.0197
 50
0.0000
 51
180.0000
  0
LINE
  8
3
 10
0.6201
 20
-1.4498
 30
0.0000
 11
0.6299
 21
-1.4498
 31
0.0000
  0
LINE
  8
3
 10
0.6299
 20
-1.4498
 30
0.0000
 11
0.6299
 21
-1.8504
 31
0.0000
  0
ARC
  8
3
 10
0.6398
 20
-1.8504
 30
0.0000
 40
0.0098
 50
180.0000
 51
0.0000
  0
LINE
  8
3
 10
0.6496
 20
-1.8504
 30
0.0000
 11
0.6496
 21
-1.8504
 31
0.0000
  0
LINE
  8
3
 10
0.6496
 20
-1.8504
 30
0.0000
 11
0.6496
 21
-1.4498
 31
0.0000
  0
ARC
  8
3
 10
0.6398
 20
-1.4498
 30
0.0000
 40
0.0098
 50
0.0000
 51
180.0000
  0
LINE
  8
3
 10
0.6299
 20
-1.4498
 30
0.0000
 11
0.6398
 21
-1.4498
 31
0.0000
  0
LINE
  8
3
 10
0.6398
 20
-1.4498
 30
0.0000
 11
0.6398
 21
-1.8504
 31
0.0000
  0
LINE
  8
3
 10
0.7402
 20
-1.4498
 30
0.0000
 11
0.7205
 21
-1.4498
 31
0.0000
  0
LINE
  8
3
 10
0.7205
 20
-1.4498
 30
0.0000
 11
0.7205
 21
-1.8504
 31
0.0000
  0
ARC
  8
3
 10
0.7402
 20
-1.8504
 30
0.0000
 40
0.0197
 50
180.0000
 51
0.0000
  0
LINE
  8
3
 10
0.7598
 20
-1.8504
 30
0.0000
 11
0.7598
 21
-1.8504
 31
0.0000
  0
LINE
  8
3
 10
0.7598
 20
-1.8504
 30
0.0000
 11
0.7598
 21
-1.4498
 31
0.0000
  0
ARC
  8
3
 10
0.7402
 20
-1.4498
 30
0.0000
 40
0.0197
 50
0.0000
 51
180.0000
  0
LINE
  8
3
 10
0.7205
 20
-1.4498
 30
0.0000
 11
0.7303
 21
-1.4498
 31
0.0000
  0
LINE
  8
3
 10
0.7303
 20
-1.4498
 30
0.0000
 11
0.7303
 21
-1.8504
 31
0.0000
  0
ARC
  8
3
 10
0.7402
 20
-1.8504
 30
0.0000
 40
0.0098
 50
180.0000
 51
0.0000
  0
LINE
  8
3
 10
0.7500
 20
-1.8504
 30
0.0000
 11
0.7500
 21
-1.8504
 31
0.0000
  0
LINE
  8
3
 10
0.7500
 20
-1.8504
 30
0.0000
 11
0.7500
 21
-1.4498
 31
0.0000
  0
ARC
  8
3
 10
0.7402
 20
-1.4498
 30
0.0000
 40
0.0098
 50
0.0000
 51
180.0000
  0
LINE
  8
3
 10
0.7303
 20
-1.4498
 30
0.0000
 11
0.7402
 21
-1.4498
 31
0.0000
  0
LINE
  8
3
 10
0.7402
 20
-1.4498
 30
0.0000
 11
0.7402
 21
-1.8504
 31
0.0000
  0
LINE
  8
3
 10
0.8406
 20
-1.4498
 30
0.0000
 11
0.8209
 21
-1.4498
 31
0.0000
  0
LINE
  8
3
 10
0.8209
 20
-1.4498
 30
0.0000
 11
0.8209
 21
-1.8504
 31
0.0000
  0
ARC
  8
3
 10
0.8406
 20
-1.8504
 30
0.0000
 40
0.0197
 50
180.0000
 51
0.0000
  0
LINE
  8
3
 10
0.8602
 20
-1.8504
 30
0.0000
 11
0.8602
 21
-1.8504
 31
0.0000
  0
LINE
  8
3
 10
0.8602
 20
-1.8504
 30
0.0000
 11
0.8602
 21
-1.4498
 31
0.0000
  0
ARC
  8
3
 10
0.8406
 20
-1.4498
 30
0.0000
 40
0.0197
 50
0.0000
 51
180.0000
  0
LINE
  8
3
 10
0.8209
 20
-1.4498
 30
0.0000
 11
0.8307
 21
-1.4498
 31
0.0000
  0
LINE
  8
3
 10
0.8307
 20
-1.4498
 30
0.0000
 11
0.8307
 21
-1.8504
 31
0.0000
  0
ARC
  8
3
 10
0.8406
 20
-1.8504
 30
0.0000
 40
0.0098
 50
180.0000
 51
0.0000
  0
LINE
  8
3
 10
0.8504
 20
-1.8504
 30
0.0000
 11
0.8504
 21
-1.8504
 31
0.0000
  0
LINE
  8
3
 10
0.8504
 20
-1.8504
 30
0.0000
 11
0.8504
 21
-1.4498
 31
0.0000
  0
ARC
  8
3
 10
0.8406
 20
-1.4498
 30
0.0000
 40
0.0098
 50
0.0000
 51
180.0000
  0
LINE
  8
3
 10
0.8307
 20
-1.4498
 30
0.0000
 11
0.8406
 21
-1.4498
 31
0.0000
  0
LINE
  8
3
 10
0.8406
 20
-1.4498
 30
0.0000
 11
0.8406
 21
-1.8504
 31
0.0000
  0
LINE
  8
3
 10
0.9400
 20
-1.4498
 30
0.0000
 11
0.9203
 21
-1.4498
 31
0.0000
  0
LINE
  8
3
 10
0.9203
 20
-1.4498
 30
0.0000
 11
0.9203
 21
-1.8504
 31
0.0000
  0
ARC
  8
3
 10
0.9400
 20
-1.8504
 30
0.0000
 40
0.0197
 50
180.0000
 51
0.0000
  0
LINE
  8
3
 10
0.9596
 20
-1.8504
 30
0.0000
 11
0.9596
 21
-1.8504
 31
0.0000
  0
LINE
  8
3
 10
0.9596
 20
-1.8504
 30
0.0000
 11
0.9596
 21
-1.4498
 31
0.0000
  0
ARC
  8
3
 10
0.9400
 20
-1.4498
 30
0.0000
 40
0.0197
 50
0.0000
 51
180.0000
  0
LINE
  8
3
 10
0.9203
 20
-1.4498
 30
0.0000
 11
0.9301
 21
-1.4498
 31
0.0000
  0
LINE
  8
3
 10
0.9301
 20
-1.4498
 30
0.0000
 11
0.9301
 21
-1.8504
 31
0.0000
  0
ARC
  8
3
 10
0.9400
 20
-1.8504
 30
0.0000
 40
0.0098
 50
180.0000
 51
0.0000
  0
LINE
  8
3
 10
0.9498
 20
-1.8504
 30
0.0000
 11
0.9498
 21
-1.8504
 31
0.0000
  0
LINE
  8
3
 10
0.9498
 20
-1.8504
 30
0.0000
 11
0.9498
 21
-1.4498
 31
0.0000
  0
ARC
  8
3
 10
0.9400
 20
-1.4498
 30
0.0000
 40
0.0098
 50
0.0000
 51
180.0000
  0
LINE
  8
3
 10
0.9301
 20
-1.4498
 30
0.0000
 11
0.9400
 21
-1.4498
 31
0.0000
  0
LINE
  8
3
 10
0.9400
 20
-1.4498
 30
0.0000
 11
0.9400
 21
-1.8504
 31
0.0000
  0
LINE
  8
3
 10
1.0404
 20
-1.4498
 30
0.0000
 11
1.0207
 21
-1.4498
 31
0.0000
  0
LINE
  8
3
 10
1.0207
 20
-1.4498
 30
0.0000
 11
1.0207
 21
-1.8504
 31
0.0000
  0
ARC
  8
3
 10
1.0404
 20
-1.8504
 30
0.0000
 40
0.0197
 50
180.0000
 51
0.0000
  0
LINE
  8
3
 10
1.0600
 20
-1.8504
 30
0.0000
 11
1.0600
 21
-1.8504
 31
0.0000
  0
LINE
  8
3
 10
1.0600
 20
-1.8504
 30
0.0000
 11
1.0600
 21
-1.4498
 31
0.0000
  0
ARC
  8
3
 10
1.0404
 20
-1.4498
 30
0.0000
 40
0.0197
 50
0.0000
 51
180.0000
  0
LINE
  8
3
 10
1.0207
 20
-1.4498
 30
0.0000
 11
1.0305
 21
-1.4498
 31
0.0000
  0
LINE
  8
3
 10
1.0305
 20
-1.4498
 30
0.0000
 11
1.0305
 21
-1.8504
 31
0.0000
  0
ARC
  8
3
 10
1.0404
 20
-1.8504
 30
0.0000
 40
0.0098
 50
180.0000
 51
0.0000
  0
LINE
  8
3
 10
1.0502
 20
-1.8504
 30
0.0000
 11
1.0502
 21
-1.8504
 31
0.0000
  0
LINE
  8
3
 10
1.0502
 20
-1.8504
 30
0.0000
 11
1.0502
 21
-1.4498
 31
0.0000
  0
ARC
  8
3
 10
1.0404
 20
-1.4498
 30
0.0000
 40
0.0098
 50
0.0000
 51
180.0000
  0
LINE
  8
3
 10
1.0305
 20
-1.4498
 30
0.0000
 11
1.0404
 21
-1.4498
 31
0.0000
  0
LINE
  8
3
 10
1.0404
 20
-1.4498
 30
0.0000
 11
1.0404
 21
-1.8504
 31
0.0000
  0
LINE
  8
3
 10
1.1398
 20
-1.4498
 30
0.0000
 11
1.1201
 21
-1.4498
 31
0.0000
  0
LINE
  8
3
 10
1.1201
 20
-1.4498
 30
0.0000
 11
1.1201
 21
-1.8504
 31
0.0000
  0
ARC
  8
3
 10
1.1398
 20
-1.8504
 30
0.0000
 40
0.0197
 50
180.0000
 51
0.0000
  0
LINE
  8
3
 10
1.1594
 20
-1.8504
 30
0.0000
 11
1.1594
 21
-1.8504
 31
0.0000
  0
LINE
  8
3
 10
1.1594
 20
-1.8504
 30
0.0000
 11
1.1594
 21
-1.4498
 31
0.0000
  0
ARC
  8
3
 10
1.1398
 20
-1.4498
 30
0.0000
 40
0.0197
 50
0.0000
 51
180.0000
  0
LINE
  8
3
 10
1.1201
 20
-1.4498
 30
0.0000
 11
1.1299
 21
-1.4498
 31
0.0000
  0
LINE
  8
3
 10
1.1299
 20
-1.4498
 30
0.0000
 11
1.1299
 21
-1.8504
 31
0.0000
  0
ARC
  8
3
 10
1.1398
 20
-1.8504
 30
0.0000
 40
0.0098
 50
180.0000
 51
0.0000
  0
LINE
  8
3
 10
1.1496
 20
-1.8504
 30
0.0000
 11
1.1496
 21
-1.8504
 31
0.0000
  0
LINE
  8
3
 10
1.1496
 20
-1.8504
 30
0.0000
 11
1.1496
 21
-1.4498
 31
0.0000
  0
ARC
  8
3
 10
1.1398
 20
-1.4498
 30
0.0000
 40
0.0098
 50
0.0000
 51
180.0000
  0
LINE
  8
3
 10
1.1299
 20
-1.4498
 30
0.0000
 11
1.1398
 21
-1.4498
 31
0.0000
  0
LINE
  8
3
 10
1.1398
 20
-1.4498
 30
0.0000
 11
1.1398
 21
-1.8504
 31
0.0000
  0
LINE
  8
3
 10
1.2402
 20
-1.4498
 30
0.0000
 11
1.2205
 21
-1.4498
 31
0.0000
  0
LINE
  8
3
 10
1.2205
 20
-1.4498
 30
0.0000
 11
1.2205
 21
-1.8504
 31
0.0000
  0
ARC
  8
3
 10
1.2402
 20
-1.8504
 30
0.0000
 40
0.0197
 50
180.0000
 51
0.0000
  0
LINE
  8
3
 10
1.2598
 20
-1.8504
 30
0.0000
 11
1.2598
 21
-1.8504
 31
0.0000
  0
LINE
  8
3
 10
1.2598
 20
-1.8504
 30
0.0000
 11
1.2598
 21
-1.4498
 31
0.0000
  0
ARC
  8
3
 10
1.2402
 20
-1.4498
 30
0.0000
 40
0.0197
 50
0.0000
 51
180.0000
  0
LINE
  8
3
 10
1.2205
 20
-1.4498
 30
0.0000
 11
1.2303
 21
-1.4498
 31
0.0000
  0
LINE
  8
3
 10
1.2303
 20
-1.4498
 30
0.0000
 11
1.2303
 21
-1.8504
 31
0.0000
  0
ARC
  8
3
 10
1.2402
 20
-1.8504
 30
0.0000
 40
0.0098
 50
180.0000
 51
0.0000
  0
LINE
  8
3
 10
1.2500
 20
-1.8504
 30
0.0000
 11
1.2500
 21
-1.8504
 31
0.0000
  0
LINE
  8
3
 10
1.2500
 20
-1.8504
 30
0.0000
 11
1.2500
 21
-1.4498
 31
0.0000
  0
ARC
  8
3
 10
1.2402
 20
-1.4498
 30
0.0000
 40
0.0098
 50
0.0000
 51
180.0000
  0
LINE
  8
3
 10
1.2303
 20
-1.4498
 30
0.0000
 11
1.2402
 21
-1.4498
 31
0.0000
  0
LINE
  8
3
 10
1.2402
 20
-1.4498
 30
0.0000
 11
1.2402
 21
-1.8504
 31
0.0000
  0
LINE
  8
3
 10
1.3406
 20
-1.4498
 30
0.0000
 11
1.3209
 21
-1.4498
 31
0.0000
  0
LINE
  8
3
 10
1.3209
 20
-1.4498
 30
0.0000
 11
1.3209
 21
-1.8504
 31
0.0000
  0
ARC
  8
3
 10
1.3406
 20
-1.8504
 30
0.0000
 40
0.0197
 50
180.0000
 51
0.0000
  0
LINE
  8
3
 10
1.3602
 20
-1.8504
 30
0.0000
 11
1.3602
 21
-1.8504
 31
0.0000
  0
LINE
  8
3
 10
1.3602
 20
-1.8504
 30
0.0000
 11
1.3602
 21
-1.4498
 31
0.0000
  0
ARC
  8
3
 10
1.3406
 20
-1.4498
 30
0.0000
 40
0.0197
 50
0.0000
 51
180.0000
  0
LINE
  8
3
 10
1.3209
 20
-1.4498
 30
0.0000
 11
1.3307
 21
-1.4498
 31
0.0000
  0
LINE
  8
3
 10
1.3307
 20
-1.4498
 30
0.0000
 11
1.3307
 21
-1.8504
 31
0.0000
  0
ARC
  8
3
 10
1.3406
 20
-1.8504
 30
0.0000
 40
0.0098
 50
180.0000
 51
0.0000
  0
LINE
  8
3
 10
1.3504
 20
-1.8504
 30
0.0000
 11
1.3504
 21
-1.8504
 31
0.0000
  0
LINE
  8
3
 10
1.3504
 20
-1.8504
 30
0.0000
 11
1.3504
 21
-1.4498
 31
0.0000
  0
ARC
  8
3
 10
1.3406
 20
-1.4498
 30
0.0000
 40
0.0098
 50
0.0000
 51
180.0000
  0
LINE
  8
3
 10
1.3307
 20
-1.4498
 30
0.0000
 11
1.3406
 21
-1.4498
 31
0.0000
  0
LINE
  8
3
 10
1.3406
 20
-1.4498
 30
0.0000
 11
1.3406
 21
-1.8504
 31
0.0000
  0
LINE
  8
3
 10
1.4400
 20
-1.4498
 30
0.0000
 11
1.4203
 21
-1.4498
 31
0.0000
  0
LINE
  8
3
 10
1.4203
 20
-1.4498
 30
0.0000
 11
1.4203
 21
-1.8504
 31
0.0000
  0
ARC
  8
3
 10
1.4400
 20
-1.8504
 30
0.0000
 40
0.0197
 50
180.0000
 51
0.0000
  0
LINE
  8
3
 10
1.4596
 20
-1.8504
 30
0.0000
 11
1.4596
 21
-1.8504
 31
0.0000
  0
LINE
  8
3
 10
1.4596
 20
-1.8504
 30
0.0000
 11
1.4596
 21
-1.4498
 31
0.0000
  0
ARC
  8
3
 10
1.4400
 20
-1.4498
 30
0.0000
 40
0.0197
 50
0.0000
 51
180.0000
  0
LINE
  8
3
 10
1.4203
 20
-1.4498
 30
0.0000
 11
1.4301
 21
-1.4498
 31
0.0000
  0
LINE
  8
3
 10
1.4301
 20
-1.4498
 30
0.0000
 11
1.4301
 21
-1.8504
 31
0.0000
  0
ARC
  8
3
 10
1.4400
 20
-1.8504
 30
0.0000
 40
0.0098
 50
180.0000
 51
0.0000
  0
LINE
  8
3
 10
1.4498
 20
-1.8504
 30
0.0000
 11
1.4498
 21
-1.8504
 31
0.0000
  0
LINE
  8
3
 10
1.4498
 20
-1.8504
 30
0.0000
 11
1.4498
 21
-1.4498
 31
0.0000
  0
ARC
  8
3
 10
1.4400
 20
-1.4498
 30
0.0000
 40
0.0098
 50
0.0000
 51
180.0000
  0
LINE
  8
3
 10
1.4301
 20
-1.4498
 30
0.0000
 11
1.4400
 21
-1.4498
 31
0.0000
  0
LINE
  8
3
 10
1.4400
 20
-1.4498
 30
0.0000
 11
1.4400
 21
-1.8504
 31
0.0000
  0
LINE
  8
3
 10
1.5404
 20
-1.4498
 30
0.0000
 11
1.5207
 21
-1.4498
 31
0.0000
  0
LINE
  8
3
 10
1.5207
 20
-1.4498
 30
0.0000
 11
1.5207
 21
-1.8504
 31
0.0000
  0
ARC
  8
3
 10
1.5404
 20
-1.8504
 30
0.0000
 40
0.0197
 50
180.0000
 51
0.0000
  0
LINE
  8
3
 10
1.5600
 20
-1.8504
 30
0.0000
 11
1.5600
 21
-1.8504
 31
0.0000
  0
LINE
  8
3
 10
1.5600
 20
-1.8504
 30
0.0000
 11
1.5600
 21
-1.4498
 31
0.0000
  0
ARC
  8
3
 10
1.5404
 20
-1.4498
 30
0.0000
 40
0.0197
 50
0.0000
 51
180.0000
  0
LINE
  8
3
 10
1.5207
 20
-1.4498
 30
0.0000
 11
1.5305
 21
-1.4498
 31
0.0000
  0
LINE
  8
3
 10
1.5305
 20
-1.4498
 30
0.0000
 11
1.5305
 21
-1.8504
 31
0.0000
  0
ARC
  8
3
 10
1.5404
 20
-1.8504
 30
0.0000
 40
0.0098
 50
180.0000
 51
0.0000
  0
LINE
  8
3
 10
1.5502
 20
-1.8504
 30
0.0000
 11
1.5502
 21
-1.8504
 31
0.0000
  0
LINE
  8
3
 10
1.5502
 20
-1.8504
 30
0.0000
 11
1.5502
 21
-1.4498
 31
0.0000
  0
ARC
  8
3
 10
1.5404
 20
-1.4498
 30
0.0000
 40
0.0098
 50
0.0000
 51
180.0000
  0
LINE
  8
3
 10
1.5305
 20
-1.4498
 30
0.0000
 11
1.5404
 21
-1.4498
 31
0.0000
  0
LINE
  8
3
 10
1.5404
 20
-1.4498
 30
0.0000
 11
1.5404
 21
-1.8504
 31
0.0000
  0
LINE
  8
3
 10
1.6398
 20
-1.4498
 30
0.0000
 11
1.6201
 21
-1.4498
 31
0.0000
  0
LINE
  8
3
 10
1.6201
 20
-1.4498
 30
0.0000
 11
1.6201
 21
-1.8504
 31
0.0000
  0
ARC
  8
3
 10
1.6398
 20
-1.8504
 30
0.0000
 40
0.0197
 50
180.0000
 51
0.0000
  0
LINE
  8
3
 10
1.6594
 20
-1.8504
 30
0.0000
 11
1.6594
 21
-1.8504
 31
0.0000
  0
LINE
  8
3
 10
1.6594
 20
-1.8504
 30
0.0000
 11
1.6594
 21
-1.4498
 31
0.0000
  0
ARC
  8
3
 10
1.6398
 20
-1.4498
 30
0.0000
 40
0.0197
 50
0.0000
 51
180.0000
  0
LINE
  8
3
 10
1.6201
 20
-1.4498
 30
0.0000
 11
1.6299
 21
-1.4498
 31
0.0000
  0
LINE
  8
3
 10
1.6299
 20
-1.4498
 30
0.0000
 11
1.6299
 21
-1.8504
 31
0.0000
  0
ARC
  8
3
 10
1.6398
 20
-1.8504
 30
0.0000
 40
0.0098
 50
180.0000
 51
0.0000
  0
LINE
  8
3
 10
1.6496
 20
-1.8504
 30
0.0000
 11
1.6496
 21
-1.8504
 31
0.0000
  0
LINE
  8
3
 10
1.6496
 20
-1.8504
 30
0.0000
 11
1.6496
 21
-1.4498
 31
0.0000
  0
ARC
  8
3
 10
1.6398
 20
-1.4498
 30
0.0000
 40
0.0098
 50
0.0000
 51
180.0000
  0
LINE
  8
3
 10
1.6299
 20
-1.4498
 30
0.0000
 11
1.6398
 21
-1.4498
 31
0.0000
  0
LINE
  8
3
 10
1.6398
 20
-1.4498
 30
0.0000
 11
1.6398
 21
-1.8504
 31
0.0000
  0
LINE
  8
3
 10
1.7402
 20
-1.4498
 30
0.0000
 11
1.7205
 21
-1.4498
 31
0.0000
  0
LINE
  8
3
 10
1.7205
 20
-1.4498
 30
0.0000
 11
1.7205
 21
-1.8504
 31
0.0000
  0
ARC
  8
3
 10
1.7402
 20
-1.8504
 30
0.0000
 40
0.0197
 50
180.0000
 51
0.0000
  0
LINE
  8
3
 10
1.7598
 20
-1.8504
 30
0.0000
 11
1.7598
 21
-1.8504
 31
0.0000
  0
LINE
  8
3
 10
1.7598
 20
-1.8504
 30
0.0000
 11
1.7598
 21
-1.4498
 31
0.0000
  0
ARC
  8
3
 10
1.7402
 20
-1.4498
 30
0.0000
 40
0.0197
 50
0.0000
 51
180.0000
  0
LINE
  8
3
 10
1.7205
 20
-1.4498
 30
0.0000
 11
1.7303
 21
-1.4498
 31
0.0000
  0
LINE
  8
3
 10
1.7303
 20
-1.4498
 30
0.0000
 11
1.7303
 21
-1.8504
 31
0.0000
  0
ARC
  8
3
 10
1.7402
 20
-1.8504
 30
0.0000
 40
0.0098
 50
180.0000
 51
0.0000
  0
LINE
  8
3
 10
1.7500
 20
-1.8504
 30
0.0000
 11
1.7500
 21
-1.8504
 31
0.0000
  0
LINE
  8
3
 10
1.7500
 20
-1.8504
 30
0.0000
 11
1.7500
 21
-1.4498
 31
0.0000
  0
ARC
  8
3
 10
1.7402
 20
-1.4498
 30
0.0000
 40
0.0098
 50
0.0000
 51
180.0000
  0
LINE
  8
3
 10
1.7303
 20
-1.4498
 30
0.0000
 11
1.7402
 21
-1.4498
 31
0.0000
  0
LINE
  8
3
 10
1.7402
 20
-1.4498
 30
0.0000
 11
1.7402
 21
-1.8504
 31
0.0000
  0
LINE
  8
3
 10
1.8406
 20
-1.4498
 30
0.0000
 11
1.8209
 21
-1.4498
 31
0.0000
  0
LINE
  8
3
 10
1.8209
 20
-1.4498
 30
0.0000
 11
1.8209
 21
-1.8504
 31
0.0000
  0
ARC
  8
3
 10
1.8406
 20
-1.8504
 30
0.0000
 40
0.0197
 50
180.0000
 51
0.0000
  0
LINE
  8
3
 10
1.8602
 20
-1.8504
 30
0.0000
 11
1.8602
 21
-1.8504
 31
0.0000
  0
LINE
  8
3
 10
1.8602
 20
-1.8504
 30
0.0000
 11
1.8602
 21
-1.4498
 31
0.0000
  0
ARC
  8
3
 10
1.8406
 20
-1.4498
 30
0.0000
 40
0.0197
 50
0.0000
 51
180.0000
  0
LINE
  8
3
 10
1.8209
 20
-1.4498
 30
0.0000
 11
1.8307
 21
-1.4498
 31
0.0000
  0
LINE
  8
3
 10
1.8307
 20
-1.4498
 30
0.0000
 11
1.8307
 21
-1.8504
 31
0.0000
  0
ARC
  8
3
 10
1.8406
 20
-1.8504
 30
0.0000
 40
0.0098
 50
180.0000
 51
0.0000
  0
LINE
  8
3
 10
1.8504
 20
-1.8504
 30
0.0000
 11
1.8504
 21
-1.8504
 31
0.0000
  0
LINE
  8
3
 10
1.8504
 20
-1.8504
 30
0.0000
 11
1.8504
 21
-1.4498
 31
0.0000
  0
ARC
  8
3
 10
1.8406
 20
-1.4498
 30
0.0000
 40
0.0098
 50
0.0000
 51
180.0000
  0
LINE
  8
3
 10
1.8307
 20
-1.4498
 30
0.0000
 11
1.8406
 21
-1.4498
 31
0.0000
  0
LINE
  8
3
 10
1.8406
 20
-1.4498
 30
0.0000
 11
1.8406
 21
-1.8504
 31
0.0000
  0
LINE
  8
3
 10
1.8406
 20
-1.8504
 30
0.0000
 11
1.8337
 21
-1.8504
 31
0.0000
  0
LINE
  8
3
 10
1.8337
 20
-1.8504
 30
0.0000
 11
1.8337
 21
-1.9498
 31
0.0000
  0
ARC
  8
3
 10
1.8406
 20
-1.9498
 30
0.0000
 40
0.0069
 50
180.0000
 51
0.0000
  0
LINE
  8
3
 10
1.8474
 20
-1.9498
 30
0.0000
 11
1.8474
 21
-1.9498
 31
0.0000
  0
LINE
  8
3
 10
1.8474
 20
-1.9498
 30
0.0000
 11
1.8474
 21
-1.8504
 31
0.0000
  0
ARC
  8
3
 10
1.8406
 20
-1.8504
 30
0.0000
 40
0.0069
 50
0.0000
 51
180.0000
  0
LINE
  8
3
 10
1.8337
 20
-1.8504
 30
0.0000
 11
1.8406
 21
-1.8504
 31
0.0000
  0
LINE
  8
3
 10
1.8406
 20
-1.8504
 30
0.0000
 11
1.8406
 21
-1.9498
 31
0.0000
  0
LINE
  8
3
 10
1.7402
 20
-1.8504
 30
0.0000
 11
1.7333
 21
-1.8504
 31
0.0000
  0
LINE
  8
3
 10
1.7333
 20
-1.8504
 30
0.0000
 11
1.7333
 21
-1.9498
 31
0.0000
  0
ARC
  8
3
 10
1.7402
 20
-1.9498
 30
0.0000
 40
0.0069
 50
180.0000
 51
0.0000
  0
LINE
  8
3
 10
1.7470
 20
-1.9498
 30
0.0000
 11
1.7470
 21
-1.9498
 31
0.0000
  0
LINE
  8
3
 10
1.7470
 20
-1.9498
 30
0.0000
 11
1.7470
 21
-1.8504
 31
0.0000
  0
ARC
  8
3
 10
1.7402
 20
-1.8504
 30
0.0000
 40
0.0069
 50
0.0000
 51
180.0000
  0
LINE
  8
3
 10
1.7333
 20
-1.8504
 30
0.0000
 11
1.7402
 21
-1.8504
 31
0.0000
  0
LINE
  8
3
 10
1.7402
 20
-1.8504
 30
0.0000
 11
1.7402
 21
-1.9498
 31
0.0000
  0
LINE
  8
3
 10
1.6398
 20
-1.8504
 30
0.0000
 11
1.6329
 21
-1.8504
 31
0.0000
  0
LINE
  8
3
 10
1.6329
 20
-1.8504
 30
0.0000
 11
1.6329
 21
-1.9498
 31
0.0000
  0
ARC
  8
3
 10
1.6398
 20
-1.9498
 30
0.0000
 40
0.0069
 50
180.0000
 51
0.0000
  0
LINE
  8
3
 10
1.6467
 20
-1.9498
 30
0.0000
 11
1.6467
 21
-1.9498
 31
0.0000
  0
LINE
  8
3
 10
1.6467
 20
-1.9498
 30
0.0000
 11
1.6467
 21
-1.8504
 31
0.0000
  0
ARC
  8
3
 10
1.6398
 20
-1.8504
 30
0.0000
 40
0.0069
 50
0.0000
 51
180.0000
  0
LINE
  8
3
 10
1.6329
 20
-1.8504
 30
0.0000
 11
1.6398
 21
-1.8504
 31
0.0000
  0
LINE
  8
3
 10
1.6398
 20
-1.8504
 30
0.0000
 11
1.6398
 21
-1.9498
 31
0.0000
  0
LINE
  8
3
 10
1.5404
 20
-1.8504
 30
0.0000
 11
1.5335
 21
-1.8504
 31
0.0000
  0
LINE
  8
3
 10
1.5335
 20
-1.8504
 30
0.0000
 11
1.5335
 21
-1.9498
 31
0.0000
  0
ARC
  8
3
 10
1.5404
 20
-1.9498
 30
0.0000
 40
0.0069
 50
180.0000
 51
0.0000
  0
LINE
  8
3
 10
1.5472
 20
-1.9498
 30
0.0000
 11
1.5472
 21
-1.9498
 31
0.0000
  0
LINE
  8
3
 10
1.5472
 20
-1.9498
 30
0.0000
 11
1.5472
 21
-1.8504
 31
0.0000
  0
ARC
  8
3
 10
1.5404
 20
-1.8504
 30
0.0000
 40
0.0069
 50
0.0000
 51
180.0000
  0
LINE
  8
3
 10
1.5335
 20
-1.8504
 30
0.0000
 11
1.5404
 21
-1.8504
 31
0.0000
  0
LINE
  8
3
 10
1.5404
 20
-1.8504
 30
0.0000
 11
1.5404
 21
-1.9498
 31
0.0000
  0
LINE
  8
3
 10
1.4400
 20
-1.8504
 30
0.0000
 11
1.4331
 21
-1.8504
 31
0.0000
  0
LINE
  8
3
 10
1.4331
 20
-1.8504
 30
0.0000
 11
1.4331
 21
-1.9498
 31
0.0000
  0
ARC
  8
3
 10
1.4400
 20
-1.9498
 30
0.0000
 40
0.0069
 50
180.0000
 51
0.0000
  0
LINE
  8
3
 10
1.4469
 20
-1.9498
 30
0.0000
 11
1.4469
 21
-1.9498
 31
0.0000
  0
LINE
  8
3
 10
1.4469
 20
-1.9498
 30
0.0000
 11
1.4469
 21
-1.8504
 31
0.0000
  0
ARC
  8
3
 10
1.4400
 20
-1.8504
 30
0.0000
 40
0.0069
 50
0.0000
 51
180.0000
  0
LINE
  8
3
 10
1.4331
 20
-1.8504
 30
0.0000
 11
1.4400
 21
-1.8504
 31
0.0000
  0
LINE
  8
3
 10
1.4400
 20
-1.8504
 30
0.0000
 11
1.4400
 21
-1.9498
 31
0.0000
  0
LINE
  8
3
 10
1.3406
 20
-1.8504
 30
0.0000
 11
1.3337
 21
-1.8504
 31
0.0000
  0
LINE
  8
3
 10
1.3337
 20
-1.8504
 30
0.0000
 11
1.3337
 21
-1.9498
 31
0.0000
  0
ARC
  8
3
 10
1.3406
 20
-1.9498
 30
0.0000
 40
0.0069
 50
180.0000
 51
0.0000
  0
LINE
  8
3
 10
1.3474
 20
-1.9498
 30
0.0000
 11
1.3474
 21
-1.9498
 31
0.0000
  0
LINE
  8
3
 10
1.3474
 20
-1.9498
 30
0.0000
 11
1.3474
 21
-1.8504
 31
0.0000
  0
ARC
  8
3
 10
1.3406
 20
-1.8504
 30
0.0000
 40
0.0069
 50
0.0000
 51
180.0000
  0
LINE
  8
3
 10
1.3337
 20
-1.8504
 30
0.0000
 11
1.3406
 21
-1.8504
 31
0.0000
  0
LINE
  8
3
 10
1.3406
 20
-1.8504
 30
0.0000
 11
1.3406
 21
-1.9498
 31
0.0000
  0
LINE
  8
3
 10
1.2402
 20
-1.8504
 30
0.0000
 11
1.2333
 21
-1.8504
 31
0.0000
  0
LINE
  8
3
 10
1.2333
 20
-1.8504
 30
0.0000
 11
1.2333
 21
-1.9498
 31
0.0000
  0
ARC
  8
3
 10
1.2402
 20
-1.9498
 30
0.0000
 40
0.0069
 50
180.0000
 51
0.0000
  0
LINE
  8
3
 10
1.2470
 20
-1.9498
 30
0.0000
 11
1.2470
 21
-1.9498
 31
0.0000
  0
LINE
  8
3
 10
1.2470
 20
-1.9498
 30
0.0000
 11
1.2470
 21
-1.8504
 31
0.0000
  0
ARC
  8
3
 10
1.2402
 20
-1.8504
 30
0.0000
 40
0.0069
 50
0.0000
 51
180.0000
  0
LINE
  8
3
 10
1.2333
 20
-1.8504
 30
0.0000
 11
1.2402
 21
-1.8504
 31
0.0000
  0
LINE
  8
3
 10
1.2402
 20
-1.8504
 30
0.0000
 11
1.2402
 21
-1.9498
 31
0.0000
  0
LINE
  8
3
 10
1.1398
 20
-1.8504
 30
0.0000
 11
1.1329
 21
-1.8504
 31
0.0000
  0
LINE
  8
3
 10
1.1329
 20
-1.8504
 30
0.0000
 11
1.1329
 21
-1.9498
 31
0.0000
  0
ARC
  8
3
 10
1.1398
 20
-1.9498
 30
0.0000
 40
0.0069
 50
180.0000
 51
0.0000
  0
LINE
  8
3
 10
1.1467
 20
-1.9498
 30
0.0000
 11
1.1467
 21
-1.9498
 31
0.0000
  0
LINE
  8
3
 10
1.1467
 20
-1.9498
 30
0.0000
 11
1.1467
 21
-1.8504
 31
0.0000
  0
ARC
  8
3
 10
1.1398
 20
-1.8504
 30
0.0000
 40
0.0069
 50
0.0000
 51
180.0000
  0
LINE
  8
3
 10
1.1329
 20
-1.8504
 30
0.0000
 11
1.1398
 21
-1.8504
 31
0.0000
  0
LINE
  8
3
 10
1.1398
 20
-1.8504
 30
0.0000
 11
1.1398
 21
-1.9498
 31
0.0000
  0
LINE
  8
3
 10
1.0404
 20
-1.8504
 30
0.0000
 11
1.0335
 21
-1.8504
 31
0.0000
  0
LINE
  8
3
 10
1.0335
 20
-1.8504
 30
0.0000
 11
1.0335
 21
-1.9498
 31
0.0000
  0
ARC
  8
3
 10
1.0404
 20
-1.9498
 30
0.0000
 40
0.0069
 50
180.0000
 51
0.0000
  0
LINE
  8
3
 10
1.0472
 20
-1.9498
 30
0.0000
 11
1.0472
 21
-1.9498
 31
0.0000
  0
LINE
  8
3
 10
1.0472
 20
-1.9498
 30
0.0000
 11
1.0472
 21
-1.8504
 31
0.0000
  0
ARC
  8
3
 10
1.0404
 20
-1.8504
 30
0.0000
 40
0.0069
 50
0.0000
 51
180.0000
  0
LINE
  8
3
 10
1.0335
 20
-1.8504
 30
0.0000
 11
1.0404
 21
-1.8504
 31
0.0000
  0
LINE
  8
3
 10
1.0404
 20
-1.8504
 30
0.0000
 11
1.0404
 21
-1.9498
 31
0.0000
  0
LINE
  8
3
 10
0.9400
 20
-1.8504
 30
0.0000
 11
0.9331
 21
-1.8504
 31
0.0000
  0
LINE
  8
3
 10
0.9331
 20
-1.8504
 30
0.0000
 11
0.9331
 21
-1.9498
 31
0.0000
  0
ARC
  8
3
 10
0.9400
 20
-1.9498
 30
0.0000
 40
0.0069
 50
180.0000
 51
0.0000
  0
LINE
  8
3
 10
0.9469
 20
-1.9498
 30
0.0000
 11
0.9469
 21
-1.9498
 31
0.0000
  0
LINE
  8
3
 10
0.9469
 20
-1.9498
 30
0.0000
 11
0.9469
 21
-1.8504
 31
0.0000
  0
ARC
  8
3
 10
0.9400
 20
-1.8504
 30
0.0000
 40
0.0069
 50
0.0000
 51
180.0000
  0
LINE
  8
3
 10
0.9331
 20
-1.8504
 30
0.0000
 11
0.9400
 21
-1.8504
 31
0.0000
  0
LINE
  8
3
 10
0.9400
 20
-1.8504
 30
0.0000
 11
0.9400
 21
-1.9498
 31
0.0000
  0
LINE
  8
3
 10
0.8406
 20
-1.8504
 30
0.0000
 11
0.8337
 21
-1.8504
 31
0.0000
  0
LINE
  8
3
 10
0.8337
 20
-1.8504
 30
0.0000
 11
0.8337
 21
-1.9498
 31
0.0000
  0
ARC
  8
3
 10
0.8406
 20
-1.9498
 30
0.0000
 40
0.0069
 50
180.0000
 51
0.0000
  0
LINE
  8
3
 10
0.8474
 20
-1.9498
 30
0.0000
 11
0.8474
 21
-1.9498
 31
0.0000
  0
LINE
  8
3
 10
0.8474
 20
-1.9498
 30
0.0000
 11
0.8474
 21
-1.8504
 31
0.0000
  0
ARC
  8
3
 10
0.8406
 20
-1.8504
 30
0.0000
 40
0.0069
 50
0.0000
 51
180.0000
  0
LINE
  8
3
 10
0.8337
 20
-1.8504
 30
0.0000
 11
0.8406
 21
-1.8504
 31
0.0000
  0
LINE
  8
3
 10
0.8406
 20
-1.8504
 30
0.0000
 11
0.8406
 21
-1.9498
 31
0.0000
  0
LINE
  8
3
 10
0.7402
 20
-1.8504
 30
0.0000
 11
0.7333
 21
-1.8504
 31
0.0000
  0
LINE
  8
3
 10
0.7333
 20
-1.8504
 30
0.0000
 11
0.7333
 21
-1.9498
 31
0.0000
  0
ARC
  8
3
 10
0.7402
 20
-1.9498
 30
0.0000
 40
0.0069
 50
180.0000
 51
0.0000
  0
LINE
  8
3
 10
0.7470
 20
-1.9498
 30
0.0000
 11
0.7470
 21
-1.9498
 31
0.0000
  0
LINE
  8
3
 10
0.7470
 20
-1.9498
 30
0.0000
 11
0.7470
 21
-1.8504
 31
0.0000
  0
ARC
  8
3
 10
0.7402
 20
-1.8504
 30
0.0000
 40
0.0069
 50
0.0000
 51
180.0000
  0
LINE
  8
3
 10
0.7333
 20
-1.8504
 30
0.0000
 11
0.7402
 21
-1.8504
 31
0.0000
  0
LINE
  8
3
 10
0.7402
 20
-1.8504
 30
0.0000
 11
0.7402
 21
-1.9498
 31
0.0000
  0
LINE
  8
3
 10
0.6398
 20
-1.8504
 30
0.0000
 11
0.6329
 21
-1.8504
 31
0.0000
  0
LINE
  8
3
 10
0.6329
 20
-1.8504
 30
0.0000
 11
0.6329
 21
-1.9498
 31
0.0000
  0
ARC
  8
3
 10
0.6398
 20
-1.9498
 30
0.0000
 40
0.0069
 50
180.0000
 51
0.0000
  0
LINE
  8
3
 10
0.6467
 20
-1.9498
 30
0.0000
 11
0.6467
 21
-1.9498
 31
0.0000
  0
LINE
  8
3
 10
0.6467
 20
-1.9498
 30
0.0000
 11
0.6467
 21
-1.8504
 31
0.0000
  0
ARC
  8
3
 10
0.6398
 20
-1.8504
 30
0.0000
 40
0.0069
 50
0.0000
 51
180.0000
  0
LINE
  8
3
 10
0.6329
 20
-1.8504
 30
0.0000
 11
0.6398
 21
-1.8504
 31
0.0000
  0
LINE
  8
3
 10
0.6398
 20
-1.8504
 30
0.0000
 11
0.6398
 21
-1.9498
 31
0.0000
  0
LINE
  8
3
 10
0.5404
 20
-1.8504
 30
0.0000
 11
0.5335
 21
-1.8504
 31
0.0000
  0
LINE
  8
3
 10
0.5335
 20
-1.8504
 30
0.0000
 11
0.5335
 21
-1.9498
 31
0.0000
  0
ARC
  8
3
 10
0.5404
 20
-1.9498
 30
0.0000
 40
0.0069
 50
180.0000
 51
0.0000
  0
LINE
  8
3
 10
0.5472
 20
-1.9498
 30
0.0000
 11
0.5472
 21
-1.9498
 31
0.0000
  0
LINE
  8
3
 10
0.5472
 20
-1.9498
 30
0.0000
 11
0.5472
 21
-1.8504
 31
0.0000
  0
ARC
  8
3
 10
0.5404
 20
-1.8504
 30
0.0000
 40
0.0069
 50
0.0000
 51
180.0000
  0
LINE
  8
3
 10
0.5335
 20
-1.8504
 30
0.0000
 11
0.5404
 21
-1.8504
 31
0.0000
  0
LINE
  8
3
 10
0.5404
 20
-1.8504
 30
0.0000
 11
0.5404
 21
-1.9498
 31
0.0000
  0
LINE
  8
3
 10
0.4400
 20
-1.8504
 30
0.0000
 11
0.4331
 21
-1.8504
 31
0.0000
  0
LINE
  8
3
 10
0.4331
 20
-1.8504
 30
0.0000
 11
0.4331
 21
-1.9498
 31
0.0000
  0
ARC
  8
3
 10
0.4400
 20
-1.9498
 30
0.0000
 40
0.0069
 50
180.0000
 51
0.0000
  0
LINE
  8
3
 10
0.4469
 20
-1.9498
 30
0.0000
 11
0.4469
 21
-1.9498
 31
0.0000
  0
LINE
  8
3
 10
0.4469
 20
-1.9498
 30
0.0000
 11
0.4469
 21
-1.8504
 31
0.0000
  0
ARC
  8
3
 10
0.4400
 20
-1.8504
 30
0.0000
 40
0.0069
 50
0.0000
 51
180.0000
  0
LINE
  8
3
 10
0.4331
 20
-1.8504
 30
0.0000
 11
0.4400
 21
-1.8504
 31
0.0000
  0
LINE
  8
3
 10
0.4400
 20
-1.8504
 30
0.0000
 11
0.4400
 21
-1.9498
 31
0.0000
  0
LINE
  8
3
 10
0.3406
 20
-1.8504
 30
0.0000
 11
0.3337
 21
-1.8504
 31
0.0000
  0
LINE
  8
3
 10
0.3337
 20
-1.8504
 30
0.0000
 11
0.3337
 21
-1.9498
 31
0.0000
  0
ARC
  8
3
 10
0.3406
 20
-1.9498
 30
0.0000
 40
0.0069
 50
180.0000
 51
0.0000
  0
LINE
  8
3
 10
0.3474
 20
-1.9498
 30
0.0000
 11
0.3474
 21
-1.9498
 31
0.0000
  0
LINE
  8
3
 10
0.3474
 20
-1.9498
 30
0.0000
 11
0.3474
 21
-1.8504
 31
0.0000
  0
ARC
  8
3
 10
0.3406
 20
-1.8504
 30
0.0000
 40
0.0069
 50
0.0000
 51
180.0000
  0
LINE
  8
3
 10
0.3337
 20
-1.8504
 30
0.0000
 11
0.3406
 21
-1.8504
 31
0.0000
  0
LINE
  8
3
 10
0.3406
 20
-1.8504
 30
0.0000
 11
0.3406
 21
-1.9498
 31
0.0000
  0
LINE
  8
3
 10
0.2402
 20
-1.8504
 30
0.0000
 11
0.2333
 21
-1.8504
 31
0.0000
  0
LINE
  8
3
 10
0.2333
 20
-1.8504
 30
0.0000
 11
0.2333
 21
-1.9498
 31
0.0000
  0
ARC
  8
3
 10
0.2402
 20
-1.9498
 30
0.0000
 40
0.0069
 50
180.0000
 51
0.0000
  0
LINE
  8
3
 10
0.2470
 20
-1.9498
 30
0.0000
 11
0.2470
 21
-1.9498
 31
0.0000
  0
LINE
  8
3
 10
0.2470
 20
-1.9498
 30
0.0000
 11
0.2470
 21
-1.8504
 31
0.0000
  0
ARC
  8
3
 10
0.2402
 20
-1.8504
 30
0.0000
 40
0.0069
 50
0.0000
 51
180.0000
  0
LINE
  8
3
 10
0.2333
 20
-1.8504
 30
0.0000
 11
0.2402
 21
-1.8504
 31
0.0000
  0
LINE
  8
3
 10
0.2402
 20
-1.8504
 30
0.0000
 11
0.2402
 21
-1.9498
 31
0.0000
  0
LINE
  8
3
 10
0.1398
 20
-1.8504
 30
0.0000
 11
0.1329
 21
-1.8504
 31
0.0000
  0
LINE
  8
3
 10
0.1329
 20
-1.8504
 30
0.0000
 11
0.1329
 21
-1.9498
 31
0.0000
  0
ARC
  8
3
 10
0.1398
 20
-1.9498
 30
0.0000
 40
0.0069
 50
180.0000
 51
0.0000
  0
LINE
  8
3
 10
0.1467
 20
-1.9498
 30
0.0000
 11
0.1467
 21
-1.9498
 31
0.0000
  0
LINE
  8
3
 10
0.1467
 20
-1.9498
 30
0.0000
 11
0.1467
 21
-1.8504
 31
0.0000
  0
ARC
  8
3
 10
0.1398
 20
-1.8504
 30
0.0000
 40
0.0069
 50
0.0000
 51
180.0000
  0
LINE
  8
3
 10
0.1329
 20
-1.8504
 30
0.0000
 11
0.1398
 21
-1.8504
 31
0.0000
  0
LINE
  8
3
 10
0.1398
 20
-1.8504
 30
0.0000
 11
0.1398
 21
-1.9498
 31
0.0000
  0
LINE
  8
3
 10
0.0404
 20
-1.8504
 30
0.0000
 11
0.0335
 21
-1.8504
 31
0.0000
  0
LINE
  8
3
 10
0.0335
 20
-1.8504
 30
0.0000
 11
0.0335
 21
-1.9498
 31
0.0000
  0
ARC
  8
3
 10
0.0404
 20
-1.9498
 30
0.0000
 40
0.0069
 50
180.0000
 51
0.0000
  0
LINE
  8
3
 10
0.0472
 20
-1.9498
 30
0.0000
 11
0.0472
 21
-1.9498
 31
0.0000
  0
LINE
  8
3
 10
0.0472
 20
-1.9498
 30
0.0000
 11
0.0472
 21
-1.8504
 31
0.0000
  0
ARC
  8
3
 10
0.0404
 20
-1.8504
 30
0.0000
 40
0.0069
 50
0.0000
 51
180.0000
  0
LINE
  8
3
 10
0.0335
 20
-1.8504
 30
0.0000
 11
0.0404
 21
-1.8504
 31
0.0000
  0
LINE
  8
3
 10
0.0404
 20
-1.8504
 30
0.0000
 11
0.0404
 21
-1.9498
 31
0.0000
  0
LINE
  8
3
 10
-0.0600
 20
-1.8504
 30
0.0000
 11
-0.0669
 21
-1.8504
 31
0.0000
  0
LINE
  8
3
 10
-0.0669
 20
-1.8504
 30
0.0000
 11
-0.0669
 21
-1.9498
 31
0.0000
  0
ARC
  8
3
 10
-0.0600
 20
-1.9498
 30
0.0000
 40
0.0069
 50
180.0000
 51
0.0000
  0
LINE
  8
3
 10
-0.0531
 20
-1.9498
 30
0.0000
 11
-0.0531
 21
-1.9498
 31
0.0000
  0
LINE
  8
3
 10
-0.0531
 20
-1.9498
 30
0.0000
 11
-0.0531
 21
-1.8504
 31
0.0000
  0
ARC
  8
3
 10
-0.0600
 20
-1.8504
 30
0.0000
 40
0.0069
 50
0.0000
 51
180.0000
  0
LINE
  8
3
 10
-0.0669
 20
-1.8504
 30
0.0000
 11
-0.0600
 21
-1.8504
 31
0.0000
  0
LINE
  8
3
 10
-0.0600
 20
-1.8504
 30
0.0000
 11
-0.0600
 21
-1.9498
 31
0.0000
  0
LINE
  8
3
 10
-0.1594
 20
-1.8504
 30
0.0000
 11
-0.1663
 21
-1.8504
 31
0.0000
  0
LINE
  8
3
 10
-0.1663
 20
-1.8504
 30
0.0000
 11
-0.1663
 21
-1.9498
 31
0.0000
  0
ARC
  8
3
 10
-0.1594
 20
-1.9498
 30
0.0000
 40
0.0069
 50
180.0000
 51
0.0000
  0
LINE
  8
3
 10
-0.1526
 20
-1.9498
 30
0.0000
 11
-0.1526
 21
-1.9498
 31
0.0000
  0
LINE
  8
3
 10
-0.1526
 20
-1.9498
 30
0.0000
 11
-0.1526
 21
-1.8504
 31
0.0000
  0
ARC
  8
3
 10
-0.1594
 20
-1.8504
 30
0.0000
 40
0.0069
 50
0.0000
 51
180.0000
  0
LINE
  8
3
 10
-0.1663
 20
-1.8504
 30
0.0000
 11
-0.1594
 21
-1.8504
 31
0.0000
  0
LINE
  8
3
 10
-0.1594
 20
-1.8504
 30
0.0000
 11
-0.1594
 21
-1.9498
 31
0.0000
  0
LINE
  8
3
 10
-0.2598
 20
-1.8504
 30
0.0000
 11
-0.2667
 21
-1.8504
 31
0.0000
  0
LINE
  8
3
 10
-0.2667
 20
-1.8504
 30
0.0000
 11
-0.2667
 21
-1.9498
 31
0.0000
  0
ARC
  8
3
 10
-0.2598
 20
-1.9498
 30
0.0000
 40
0.0069
 50
180.0000
 51
0.0000
  0
LINE
  8
3
 10
-0.2530
 20
-1.9498
 30
0.0000
 11
-0.2530
 21
-1.9498
 31
0.0000
  0
LINE
  8
3
 10
-0.2530
 20
-1.9498
 30
0.0000
 11
-0.2530
 21
-1.8504
 31
0.0000
  0
ARC
  8
3
 10
-0.2598
 20
-1.8504
 30
0.0000
 40
0.0069
 50
0.0000
 51
180.0000
  0
LINE
  8
3
 10
-0.2667
 20
-1.8504
 30
0.0000
 11
-0.2598
 21
-1.8504
 31
0.0000
  0
LINE
  8
3
 10
-0.2598
 20
-1.8504
 30
0.0000
 11
-0.2598
 21
-1.9498
 31
0.0000
  0
LINE
  8
3
 10
-0.3602
 20
-1.8504
 30
0.0000
 11
-0.3671
 21
-1.8504
 31
0.0000
  0
LINE
  8
3
 10
-0.3671
 20
-1.8504
 30
0.0000
 11
-0.3671
 21
-1.9498
 31
0.0000
  0
ARC
  8
3
 10
-0.3602
 20
-1.9498
 30
0.0000
 40
0.0069
 50
180.0000
 51
0.0000
  0
LINE
  8
3
 10
-0.3533
 20
-1.9498
 30
0.0000
 11
-0.3533
 21
-1.9498
 31
0.0000
  0
LINE
  8
3
 10
-0.3533
 20
-1.9498
 30
0.0000
 11
-0.3533
 21
-1.8504
 31
0.0000
  0
ARC
  8
3
 10
-0.3602
 20
-1.8504
 30
0.0000
 40
0.0069
 50
0.0000
 51
180.0000
  0
LINE
  8
3
 10
-0.3671
 20
-1.8504
 30
0.0000
 11
-0.3602
 21
-1.8504
 31
0.0000
  0
LINE
  8
3
 10
-0.3602
 20
-1.8504
 30
0.0000
 11
-0.3602
 21
-1.9498
 31
0.0000
  0
LINE
  8
3
 10
-0.4596
 20
-1.8504
 30
0.0000
 11
-0.4665
 21
-1.8504
 31
0.0000
  0
LINE
  8
3
 10
-0.4665
 20
-1.8504
 30
0.0000
 11
-0.4665
 21
-1.9498
 31
0.0000
  0
ARC
  8
3
 10
-0.4596
 20
-1.9498
 30
0.0000
 40
0.0069
 50
180.0000
 51
0.0000
  0
LINE
  8
3
 10
-0.4528
 20
-1.9498
 30
0.0000
 11
-0.4528
 21
-1.9498
 31
0.0000
  0
LINE
  8
3
 10
-0.4528
 20
-1.9498
 30
0.0000
 11
-0.4528
 21
-1.8504
 31
0.0000
  0
ARC
  8
3
 10
-0.4596
 20
-1.8504
 30
0.0000
 40
0.0069
 50
0.0000
 51
180.0000
  0
LINE
  8
3
 10
-0.4665
 20
-1.8504
 30
0.0000
 11
-0.4596
 21
-1.8504
 31
0.0000
  0
LINE
  8
3
 10
-0.4596
 20
-1.8504
 30
0.0000
 11
-0.4596
 21
-1.9498
 31
0.0000
  0
LINE
  8
3
 10
-0.5600
 20
-1.8504
 30
0.0000
 11
-0.5669
 21
-1.8504
 31
0.0000
  0
LINE
  8
3
 10
-0.5669
 20
-1.8504
 30
0.0000
 11
-0.5669
 21
-1.9498
 31
0.0000
  0
ARC
  8
3
 10
-0.5600
 20
-1.9498
 30
0.0000
 40
0.0069
 50
180.0000
 51
0.0000
  0
LINE
  8
3
 10
-0.5531
 20
-1.9498
 30
0.0000
 11
-0.5531
 21
-1.9498
 31
0.0000
  0
LINE
  8
3
 10
-0.5531
 20
-1.9498
 30
0.0000
 11
-0.5531
 21
-1.8504
 31
0.0000
  0
ARC
  8
3
 10
-0.5600
 20
-1.8504
 30
0.0000
 40
0.0069
 50
0.0000
 51
180.0000
  0
LINE
  8
3
 10
-0.5669
 20
-1.8504
 30
0.0000
 11
-0.5600
 21
-1.8504
 31
0.0000
  0
LINE
  8
3
 10
-0.5600
 20
-1.8504
 30
0.0000
 11
-0.5600
 21
-1.9498
 31
0.0000
  0
LINE
  8
3
 10
-0.6594
 20
-1.8504
 30
0.0000
 11
-0.6663
 21
-1.8504
 31
0.0000
  0
LINE
  8
3
 10
-0.6663
 20
-1.8504
 30
0.0000
 11
-0.6663
 21
-1.9498
 31
0.0000
  0
ARC
  8
3
 10
-0.6594
 20
-1.9498
 30
0.0000
 40
0.0069
 50
180.0000
 51
0.0000
  0
LINE
  8
3
 10
-0.6526
 20
-1.9498
 30
0.0000
 11
-0.6526
 21
-1.9498
 31
0.0000
  0
LINE
  8
3
 10
-0.6526
 20
-1.9498
 30
0.0000
 11
-0.6526
 21
-1.8504
 31
0.0000
  0
ARC
  8
3
 10
-0.6594
 20
-1.8504
 30
0.0000
 40
0.0069
 50
0.0000
 51
180.0000
  0
LINE
  8
3
 10
-0.6663
 20
-1.8504
 30
0.0000
 11
-0.6594
 21
-1.8504
 31
0.0000
  0
LINE
  8
3
 10
-0.6594
 20
-1.8504
 30
0.0000
 11
-0.6594
 21
-1.9498
 31
0.0000
  0
LINE
  8
3
 10
-0.7598
 20
-1.8504
 30
0.0000
 11
-0.7667
 21
-1.8504
 31
0.0000
  0
LINE
  8
3
 10
-0.7667
 20
-1.8504
 30
0.0000
 11
-0.7667
 21
-1.9498
 31
0.0000
  0
ARC
  8
3
 10
-0.7598
 20
-1.9498
 30
0.0000
 40
0.0069
 50
180.0000
 51
0.0000
  0
LINE
  8
3
 10
-0.7530
 20
-1.9498
 30
0.0000
 11
-0.7530
 21
-1.9498
 31
0.0000
  0
LINE
  8
3
 10
-0.7530
 20
-1.9498
 30
0.0000
 11
-0.7530
 21
-1.8504
 31
0.0000
  0
ARC
  8
3
 10
-0.7598
 20
-1.8504
 30
0.0000
 40
0.0069
 50
0.0000
 51
180.0000
  0
LINE
  8
3
 10
-0.7667
 20
-1.8504
 30
0.0000
 11
-0.7598
 21
-1.8504
 31
0.0000
  0
LINE
  8
3
 10
-0.7598
 20
-1.8504
 30
0.0000
 11
-0.7598
 21
-1.9498
 31
0.0000
  0
LINE
  8
3
 10
-0.8602
 20
-1.8504
 30
0.0000
 11
-0.8671
 21
-1.8504
 31
0.0000
  0
LINE
  8
3
 10
-0.8671
 20
-1.8504
 30
0.0000
 11
-0.8671
 21
-1.9498
 31
0.0000
  0
ARC
  8
3
 10
-0.8602
 20
-1.9498
 30
0.0000
 40
0.0069
 50
180.0000
 51
0.0000
  0
LINE
  8
3
 10
-0.8533
 20
-1.9498
 30
0.0000
 11
-0.8533
 21
-1.9498
 31
0.0000
  0
LINE
  8
3
 10
-0.8533
 20
-1.9498
 30
0.0000
 11
-0.8533
 21
-1.8504
 31
0.0000
  0
ARC
  8
3
 10
-0.8602
 20
-1.8504
 30
0.0000
 40
0.0069
 50
0.0000
 51
180.0000
  0
LINE
  8
3
 10
-0.8671
 20
-1.8504
 30
0.0000
 11
-0.8602
 21
-1.8504
 31
0.0000
  0
LINE
  8
3
 10
-0.8602
 20
-1.8504
 30
0.0000
 11
-0.8602
 21
-1.9498
 31
0.0000
  0
LINE
  8
3
 10
-0.9596
 20
-1.8504
 30
0.0000
 11
-0.9665
 21
-1.8504
 31
0.0000
  0
LINE
  8
3
 10
-0.9665
 20
-1.8504
 30
0.0000
 11
-0.9665
 21
-1.9498
 31
0.0000
  0
ARC
  8
3
 10
-0.9596
 20
-1.9498
 30
0.0000
 40
0.0069
 50
180.0000
 51
0.0000
  0
LINE
  8
3
 10
-0.9528
 20
-1.9498
 30
0.0000
 11
-0.9528
 21
-1.9498
 31
0.0000
  0
LINE
  8
3
 10
-0.9528
 20
-1.9498
 30
0.0000
 11
-0.9528
 21
-1.8504
 31
0.0000
  0
ARC
  8
3
 10
-0.9596
 20
-1.8504
 30
0.0000
 40
0.0069
 50
0.0000
 51
180.0000
  0
LINE
  8
3
 10
-0.9665
 20
-1.8504
 30
0.0000
 11
-0.9596
 21
-1.8504
 31
0.0000
  0
LINE
  8
3
 10
-0.9596
 20
-1.8504
 30
0.0000
 11
-0.9596
 21
-1.9498
 31
0.0000
  0
LINE
  8
3
 10
-1.0600
 20
-1.8504
 30
0.0000
 11
-1.0669
 21
-1.8504
 31
0.0000
  0
LINE
  8
3
 10
-1.0669
 20
-1.8504
 30
0.0000
 11
-1.0669
 21
-1.9498
 31
0.0000
  0
ARC
  8
3
 10
-1.0600
 20
-1.9498
 30
0.0000
 40
0.0069
 50
180.0000
 51
0.0000
  0
LINE
  8
3
 10
-1.0531
 20
-1.9498
 30
0.0000
 11
-1.0531
 21
-1.9498
 31
0.0000
  0
LINE
  8
3
 10
-1.0531
 20
-1.9498
 30
0.0000
 11
-1.0531
 21
-1.8504
 31
0.0000
  0
ARC
  8
3
 10
-1.0600
 20
-1.8504
 30
0.0000
 40
0.0069
 50
0.0000
 51
180.0000
  0
LINE
  8
3
 10
-1.0669
 20
-1.8504
 30
0.0000
 11
-1.0600
 21
-1.8504
 31
0.0000
  0
LINE
  8
3
 10
-1.0600
 20
-1.8504
 30
0.0000
 11
-1.0600
 21
-1.9498
 31
0.0000
  0
LINE
  8
3
 10
-1.1594
 20
-1.8504
 30
0.0000
 11
-1.1663
 21
-1.8504
 31
0.0000
  0
LINE
  8
3
 10
-1.1663
 20
-1.8504
 30
0.0000
 11
-1.1663
 21
-1.9498
 31
0.0000
  0
ARC
  8
3
 10
-1.1594
 20
-1.9498
 30
0.0000
 40
0.0069
 50
180.0000
 51
0.0000
  0
LINE
  8
3
 10
-1.1526
 20
-1.9498
 30
0.0000
 11
-1.1526
 21
-1.9498
 31
0.0000
  0
LINE
  8
3
 10
-1.1526
 20
-1.9498
 30
0.0000
 11
-1.1526
 21
-1.8504
 31
0.0000
  0
ARC
  8
3
 10
-1.1594
 20
-1.8504
 30
0.0000
 40
0.0069
 50
0.0000
 51
180.0000
  0
LINE
  8
3
 10
-1.1663
 20
-1.8504
 30
0.0000
 11
-1.1594
 21
-1.8504
 31
0.0000
  0
LINE
  8
3
 10
-1.1594
 20
-1.8504
 30
0.0000
 11
-1.1594
 21
-1.9498
 31
0.0000
  0
LINE
  8
3
 10
-1.2598
 20
-1.9498
 30
0.0000
 11
-1.2598
 21
-1.9695
 31
0.0000
  0
LINE
  8
3
 10
-1.2598
 20
-1.9695
 30
0.0000
 11
1.9400
 21
-1.9695
 31
0.0000
  0
ARC
  8
3
 10
1.9400
 20
-1.9498
 30
0.0000
 40
0.0197
 50
270.0000
 51
90.0000
  0
LINE
  8
3
 10
1.9400
 20
-1.9301
 30
0.0000
 11
1.9400
 21
-1.9301
 31
0.0000
  0
LINE
  8
3
 10
1.9400
 20
-1.9301
 30
0.0000
 11
-1.2598
 21
-1.9301
 31
0.0000
  0
ARC
  8
3
 10
-1.2598
 20
-1.9498
 30
0.0000
 40
0.0197
 50
90.0000
 51
270.0000
  0
LINE
  8
3
 10
-1.2598
 20
-1.9695
 30
0.0000
 11
-1.2598
 21
-1.9596
 31
0.0000
  0
LINE
  8
3
 10
-1.2598
 20
-1.9596
 30
0.0000
 11
1.9400
 21
-1.9596
 31
0.0000
  0
ARC
  8
3
 10
1.9400
 20
-1.9498
 30
0.0000
 40
0.0098
 50
270.0000
 51
90.0000
  0
LINE
  8
3
 10
1.9400
 20
-1.9400
 30
0.0000
 11
1.9400
 21
-1.9400
 31
0.0000
  0
LINE
  8
3
 10
1.9400
 20
-1.9400
 30
0.0000
 11
-1.2598
 21
-1.9400
 31
0.0000
  0
ARC
  8
3
 10
-1.2598
 20
-1.9498
 30
0.0000
 40
0.0098
 50
90.0000
 51
270.0000
  0
LINE
  8
3
 10
-1.2598
 20
-1.9596
 30
0.0000
 11
-1.2598
 21
-1.9498
 31
0.0000
  0
LINE
  8
3
 10
-1.2598
 20
-1.9498
 30
0.0000
 11
1.9400
 21
-1.9498
 31
0.0000
  0
LINE
  8
4
 10
1.0256
 20
0.0000
 30
0.0000
 11
1.1752
 21
0.0000
 31
0.0000
  0
LINE
  8
4
 10
1.0000
 20
0.0748
 30
0.0000
 11
1.0000
 21
0.0246
 31
0.0000
  0
LINE
  8
4
 10
1.1752
 20
0.0994
 30
0.0000
 11
1.0256
 21
0.0994
 31
0.0000
  0
LINE
  8
4
 10
1.1998
 20
0.0246
 30
0.0000
 11
1.1998
 21
0.0748
 31
0.0000
  0
ARC
  8
4
 10
1.1752
 20
0.0246
 30
0.0000
 40
0.0246
 50
270.0000
 51
0.0000
  0
ARC
  8
4
 10
1.0256
 20
0.0246
 30
0.0000
 40
0.0256
 50
180.0000
 51
270.0000
  0
ARC
  8
4
 10
1.0256
 20
0.0748
 30
0.0000
 40
0.0246
 50
90.0000
 51
180.0000
  0
ARC
  8
4
 10
1.1752
 20
0.0748
 30
0.0000
 40
0.0246
 50
0.0000
 51
90.0000
  0
LINE
  8
4
 10
-3.1998
 20
0.5994
 30
0.0000
 11
-3.0502
 21
0.5994
 31
0.0000
  0
LINE
  8
4
 10
-3.2244
 20
0.6752
 30
0.0000
 11
-3.2244
 21
0.6250
 31
0.0000
  0
LINE
  8
4
 10
-3.0502
 20
0.6998
 30
0.0000
 11
-3.1998
 21
0.6998
 31
0.0000
  0
LINE
  8
4
 10
-3.0246
 20
0.6250
 30
0.0000
 11
-3.0246
 21
0.6752
 31
0.0000
  0
ARC
  8
4
 10
-3.0502
 20
0.6250
 30
0.0000
 40
0.0256
 50
270.0000
 51
0.0000
  0
ARC
  8
4
 10
-3.1998
 20
0.6250
 30
0.0000
 40
0.0246
 50
180.0000
 51
270.0000
  0
ARC
  8
4
 10
-3.1998
 20
0.6752
 30
0.0000
 40
0.0246
 50
90.0000
 51
180.0000
  0
ARC
  8
4
 10
-3.0502
 20
0.6752
 30
0.0000
 40
0.0256
 50
0.0000
 51
90.0000
  0
LINE
  8
4
 10
-3.1998
 20
1.8002
 30
0.0000
 11
-3.0502
 21
1.8002
 31
0.0000
  0
LINE
  8
4
 10
-3.2244
 20
1.8750
 30
0.0000
 11
-3.2244
 21
1.8248
 31
0.0000
  0
LINE
  8
4
 10
-3.0502
 20
1.8996
 30
0.0000
 11
-3.1998
 21
1.8996
 31
0.0000
  0
LINE
  8
4
 10
-3.0246
 20
1.8248
 30
0.0000
 11
-3.0246
 21
1.8750
 31
0.0000
  0
ARC
  8
4
 10
-3.0502
 20
1.8248
 30
0.0000
 40
0.0246
 50
270.0000
 51
0.0000
  0
ARC
  8
4
 10
-3.1998
 20
1.8248
 30
0.0000
 40
0.0246
 50
180.0000
 51
270.0000
  0
ARC
  8
4
 10
-3.1998
 20
1.8750
 30
0.0000
 40
0.0246
 50
90.0000
 51
180.0000
  0
ARC
  8
4
 10
-3.0502
 20
1.8750
 30
0.0000
 40
0.0256
 50
0.0000
 51
90.0000
  0
LINE
  8
4
 10
-1.0502
 20
0.5502
 30
0.0000
 11
-1.0502
 21
0.3996
 31
0.0000
  0
LINE
  8
4
 10
-0.9744
 20
0.5748
 30
0.0000
 11
-1.0246
 21
0.5748
 31
0.0000
  0
LINE
  8
4
 10
-0.9498
 20
0.3996
 30
0.0000
 11
-0.9498
 21
0.5502
 31
0.0000
  0
LINE
  8
4
 10
-1.0246
 20
0.3750
 30
0.0000
 11
-0.9744
 21
0.3750
 31
0.0000
  0
ARC
  8
4
 10
-1.0246
 20
0.3996
 30
0.0000
 40
0.0256
 50
180.0000
 51
270.0000
  0
ARC
  8
4
 10
-1.0246
 20
0.5502
 30
0.0000
 40
0.0246
 50
90.0000
 51
180.0000
  0
ARC
  8
4
 10
-0.9744
 20
0.5502
 30
0.0000
 40
0.0246
 50
0.0000
 51
90.0000
  0
ARC
  8
4
 10
-0.9744
 20
0.3996
 30
0.0000
 40
0.0246
 50
270.0000
 51
0.0000
  0
LINE
  8
4
 10
-3.1998
 20
1.1998
 30
0.0000
 11
-3.0502
 21
1.1998
 31
0.0000
  0
LINE
  8
4
 10
-3.2244
 20
1.2746
 30
0.0000
 11
-3.2244
 21
1.2244
 31
0.0000
  0
LINE
  8
4
 10
-3.0502
 20
1.3002
 30
0.0000
 11
-3.1998
 21
1.3002
 31
0.0000
  0
LINE
  8
4
 10
-3.0246
 20
1.2244
 30
0.0000
 11
-3.0246
 21
1.2746
 31
0.0000
  0
ARC
  8
4
 10
-3.0502
 20
1.2244
 30
0.0000
 40
0.0246
 50
270.0000
 51
0.0000
  0
ARC
  8
4
 10
-3.1998
 20
1.2244
 30
0.0000
 40
0.0246
 50
180.0000
 51
270.0000
  0
ARC
  8
4
 10
-3.1998
 20
1.2746
 30
0.0000
 40
0.0256
 50
90.0000
 51
180.0000
  0
ARC
  8
4
 10
-3.0502
 20
1.2746
 30
0.0000
 40
0.0256
 50
0.0000
 51
90.0000
  0
LINE
  8
4
 10
-1.8002
 20
1.1998
 30
0.0000
 11
-1.6496
 21
1.1998
 31
0.0000
  0
LINE
  8
4
 10
-1.8248
 20
1.2746
 30
0.0000
 11
-1.8248
 21
1.2244
 31
0.0000
  0
LINE
  8
4
 10
-1.6496
 20
1.3002
 30
0.0000
 11
-1.8002
 21
1.3002
 31
0.0000
  0
LINE
  8
4
 10
-1.6250
 20
1.2244
 30
0.0000
 11
-1.6250
 21
1.2746
 31
0.0000
  0
ARC
  8
4
 10
-1.6496
 20
1.2244
 30
0.0000
 40
0.0246
 50
270.0000
 51
0.0000
  0
ARC
  8
4
 10
-1.8002
 20
1.2244
 30
0.0000
 40
0.0246
 50
180.0000
 51
270.0000
  0
ARC
  8
4
 10
-1.8002
 20
1.2746
 30
0.0000
 40
0.0256
 50
90.0000
 51
180.0000
  0
ARC
  8
4
 10
-1.6496
 20
1.2746
 30
0.0000
 40
0.0246
 50
0.0000
 51
90.0000
  0
LINE
  8
4
 10
0.1004
 20
-0.0748
 30
0.0000
 11
0.1004
 21
-0.2254
 31
0.0000
  0
LINE
  8
4
 10
0.1752
 20
-0.0502
 30
0.0000
 11
0.1250
 21
-0.0502
 31
0.0000
  0
LINE
  8
4
 10
0.1998
 20
-0.2254
 30
0.0000
 11
0.1998
 21
-0.0748
 31
0.0000
  0
LINE
  8
4
 10
0.1250
 20
-0.2500
 30
0.0000
 11
0.1752
 21
-0.2500
 31
0.0000
  0
ARC
  8
4
 10
0.1250
 20
-0.2254
 30
0.0000
 40
0.0246
 50
180.0000
 51
270.0000
  0
ARC
  8
4
 10
0.1250
 20
-0.0748
 30
0.0000
 40
0.0246
 50
90.0000
 51
180.0000
  0
ARC
  8
4
 10
0.1752
 20
-0.0748
 30
0.0000
 40
0.0246
 50
0.0000
 51
90.0000
  0
ARC
  8
4
 10
0.1752
 20
-0.2254
 30
0.0000
 40
0.0246
 50
270.0000
 51
0.0000
  0
LINE
  8
4
 10
-1.8002
 20
0.5994
 30
0.0000
 11
-1.6496
 21
0.5994
 31
0.0000
  0
LINE
  8
4
 10
-1.8248
 20
0.6752
 30
0.0000
 11
-1.8248
 21
0.6250
 31
0.0000
  0
LINE
  8
4
 10
-1.6496
 20
0.6998
 30
0.0000
 11
-1.8002
 21
0.6998
 31
0.0000
  0
LINE
  8
4
 10
-1.6250
 20
0.6250
 30
0.0000
 11
-1.6250
 21
0.6752
 31
0.0000
  0
ARC
  8
4
 10
-1.6496
 20
0.6250
 30
0.0000
 40
0.0256
 50
270.0000
 51
0.0000
  0
ARC
  8
4
 10
-1.8002
 20
0.6250
 30
0.0000
 40
0.0246
 50
180.0000
 51
270.0000
  0
ARC
  8
4
 10
-1.8002
 20
0.6752
 30
0.0000
 40
0.0246
 50
90.0000
 51
180.0000
  0
ARC
  8
4
 10
-1.6496
 20
0.6752
 30
0.0000
 40
0.0246
 50
0.0000
 51
90.0000
  0
LINE
  8
4
 10
-0.0502
 20
-0.6004
 30
0.0000
 11
0.1004
 21
-0.6004
 31
0.0000
  0
LINE
  8
4
 10
-0.0748
 20
-0.5256
 30
0.0000
 11
-0.0748
 21
-0.5748
 31
0.0000
  0
LINE
  8
4
 10
0.1004
 20
-0.5000
 30
0.0000
 11
-0.0502
 21
-0.5000
 31
0.0000
  0
LINE
  8
4
 10
0.1250
 20
-0.5748
 30
0.0000
 11
0.1250
 21
-0.5256
 31
0.0000
  0
ARC
  8
4
 10
0.1004
 20
-0.5748
 30
0.0000
 40
0.0256
 50
270.0000
 51
0.0000
  0
ARC
  8
4
 10
-0.0502
 20
-0.5748
 30
0.0000
 40
0.0246
 50
180.0000
 51
270.0000
  0
ARC
  8
4
 10
-0.0502
 20
-0.5256
 30
0.0000
 40
0.0256
 50
90.0000
 51
180.0000
  0
ARC
  8
4
 10
0.1004
 20
-0.5256
 30
0.0000
 40
0.0246
 50
0.0000
 51
90.0000
  0
LINE
  8
4
 10
1.0256
 20
1.8996
 30
0.0000
 11
1.1752
 21
1.8996
 31
0.0000
  0
LINE
  8
4
 10
1.0000
 20
1.9744
 30
0.0000
 11
1.0000
 21
1.9252
 31
0.0000
  0
LINE
  8
4
 10
1.1752
 20
2.0000
 30
0.0000
 11
1.0256
 21
2.0000
 31
0.0000
  0
LINE
  8
4
 10
1.1998
 20
1.9252
 30
0.0000
 11
1.1998
 21
1.9744
 31
0.0000
  0
ARC
  8
4
 10
1.1752
 20
1.9252
 30
0.0000
 40
0.0256
 50
270.0000
 51
0.0000
  0
ARC
  8
4
 10
1.0256
 20
1.9252
 30
0.0000
 40
0.0256
 50
180.0000
 51
270.0000
  0
ARC
  8
4
 10
1.0256
 20
1.9744
 30
0.0000
 40
0.0256
 50
90.0000
 51
180.0000
  0
ARC
  8
4
 10
1.1752
 20
1.9744
 30
0.0000
 40
0.0246
 50
0.0000
 51
90.0000
  0
LINE
  8
4
 10
1.1998
 20
0.9252
 30
0.0000
 11
1.2500
 21
0.9744
 31
0.0000
  0
LINE
  8
4
 10
1.2500
 20
0.9744
 30
0.0000
 11
1.1998
 21
1.0246
 31
0.0000
  0
LINE
  8
4
 10
1.1998
 20
0.8750
 30
0.0000
 11
2.0000
 21
0.8750
 31
0.0000
  0
LINE
  8
4
 10
2.0000
 20
0.8750
 30
0.0000
 11
2.0000
 21
1.0748
 31
0.0000
  0
LINE
  8
4
 10
2.0000
 20
1.0748
 30
0.0000
 11
1.1998
 21
1.0748
 31
0.0000
  0
LINE
  8
4
 10
1.1998
 20
1.0748
 30
0.0000
 11
1.1998
 21
0.8750
 31
0.0000
  0
LINE
  8
4
 10
-3.2244
 20
-0.2756
 30
0.0000
 11
-3.1752
 21
-0.2254
 31
0.0000
  0
LINE
  8
4
 10
-3.1752
 20
-0.2254
 30
0.0000
 11
-3.2244
 21
-0.1752
 31
0.0000
  0
LINE
  8
4
 10
-3.2244
 20
-0.3248
 30
0.0000
 11
-2.4252
 21
-0.3248
 31
0.0000
  0
LINE
  8
4
 10
-2.4252
 20
-0.3248
 30
0.0000
 11
-2.4252
 21
-0.1250
 31
0.0000
  0
LINE
  8
4
 10
-2.4252
 20
-0.1250
 30
0.0000
 11
-3.2244
 21
-0.1250
 31
0.0000
  0
LINE
  8
4
 10
-3.2244
 20
-0.1250
 30
0.0000
 11
-3.2244
 21
-0.3248
 31
0.0000
  0
LINE
  8
4
 10
-0.4252
 20
2.1752
 30
0.0000
 11
-0.4744
 21
2.1250
 31
0.0000
  0
LINE
  8
4
 10
-0.4744
 20
2.1250
 30
0.0000
 11
-0.4252
 21
2.0748
 31
0.0000
  0
LINE
  8
4
 10
-0.4252
 20
2.2244
 30
0.0000
 11
-1.2244
 21
2.2244
 31
0.0000
  0
LINE
  8
4
 10
-1.2244
 20
2.2244
 30
0.0000
 11
-1.2244
 21
2.0246
 31
0.0000
  0
LINE
  8
4
 10
-1.2244
 20
2.0246
 30
0.0000
 11
-0.4252
 21
2.0246
 31
0.0000
  0
LINE
  8
4
 10
-0.4252
 20
2.0246
 30
0.0000
 11
-0.4252
 21
2.2244
 31
0.0000
  0
LINE
  8
4
 10
1.1998
 20
0.3248
 30
0.0000
 11
1.2500
 21
0.3750
 31
0.0000
  0
LINE
  8
4
 10
1.2500
 20
0.3750
 30
0.0000
 11
1.1998
 21
0.4252
 31
0.0000
  0
LINE
  8
4
 10
1.1998
 20
0.2746
 30
0.0000
 11
2.0000
 21
0.2746
 31
0.0000
  0
LINE
  8
4
 10
2.0000
 20
0.2746
 30
0.0000
 11
2.0000
 21
0.4744
 31
0.0000
  0
LINE
  8
4
 10
2.0000
 20
0.4744
 30
0.0000
 11
1.1998
 21
0.4744
 31
0.0000
  0
LINE
  8
4
 10
1.1998
 20
0.4744
 30
0.0000
 11
1.1998
 21
0.2746
 31
0.0000
  0
LINE
  8
4
 10
0.8750
 20
2.2244
 30
0.0000
 11
-0.3248
 21
2.2244
 31
0.0000
  0
LINE
  8
4
 10
-0.3248
 20
2.2244
 30
0.0000
 11
-0.3248
 21
1.7244
 31
0.0000
  0
LINE
  8
4
 10
-0.3248
 20
1.7244
 30
0.0000
 11
0.8750
 21
1.7244
 31
0.0000
  0
LINE
  8
4
 10
0.8750
 20
1.7244
 30
0.0000
 11
0.8750
 21
2.2244
 31
0.0000
  0
LINE
  8
4
 10
0.8750
 20
2.0246
 30
0.0000
 11
0.8248
 21
1.9744
 31
0.0000
  0
LINE
  8
4
 10
0.8248
 20
1.9744
 30
0.0000
 11
0.8750
 21
1.9252
 31
0.0000
  0
LINE
  8
4
 10
-3.2244
 20
1.5246
 30
0.0000
 11
-3.1752
 21
1.5748
 31
0.0000
  0
LINE
  8
4
 10
-3.1752
 20
1.5748
 30
0.0000
 11
-3.2244
 21
1.6250
 31
0.0000
  0
LINE
  8
4
 10
-3.2244
 20
1.4744
 30
0.0000
 11
-2.5246
 21
1.4744
 31
0.0000
  0
LINE
  8
4
 10
-2.5246
 20
1.4744
 30
0.0000
 11
-2.5246
 21
1.6752
 31
0.0000
  0
LINE
  8
4
 10
-2.5246
 20
1.6752
 30
0.0000
 11
-3.2244
 21
1.6752
 31
0.0000
  0
LINE
  8
4
 10
-3.2244
 20
1.6752
 30
0.0000
 11
-3.2244
 21
1.4744
 31
0.0000
  0
LINE
  8
4
 10
-0.9252
 20
0.3248
 30
0.0000
 11
-0.8750
 21
0.3750
 31
0.0000
  0
LINE
  8
4
 10
-0.8750
 20
0.3750
 30
0.0000
 11
-0.9252
 21
0.4252
 31
0.0000
  0
LINE
  8
4
 10
-0.9252
 20
0.2746
 30
0.0000
 11
-0.2244
 21
0.2746
 31
0.0000
  0
LINE
  8
4
 10
-0.2244
 20
0.2746
 30
0.0000
 11
-0.2244
 21
0.4744
 31
0.0000
  0
LINE
  8
4
 10
-0.2244
 20
0.4744
 30
0.0000
 11
-0.9252
 21
0.4744
 31
0.0000
  0
LINE
  8
4
 10
-0.9252
 20
0.4744
 30
0.0000
 11
-0.9252
 21
0.2746
 31
0.0000
  0
LINE
  8
4
 10
-3.2244
 20
0.9252
 30
0.0000
 11
-3.1752
 21
0.9744
 31
0.0000
  0
LINE
  8
4
 10
-3.1752
 20
0.9744
 30
0.0000
 11
-3.2244
 21
1.0246
 31
0.0000
  0
LINE
  8
4
 10
-3.2244
 20
0.8750
 30
0.0000
 11
-2.5246
 21
0.8750
 31
0.0000
  0
LINE
  8
4
 10
-2.5246
 20
0.8750
 30
0.0000
 11
-2.5246
 21
1.0748
 31
0.0000
  0
LINE
  8
4
 10
-2.5246
 20
1.0748
 30
0.0000
 11
-3.2244
 21
1.0748
 31
0.0000
  0
LINE
  8
4
 10
-3.2244
 20
1.0748
 30
0.0000
 11
-3.2244
 21
0.8750
 31
0.0000
  0
LINE
  8
4
 10
-1.8248
 20
0.9252
 30
0.0000
 11
-1.7746
 21
0.9744
 31
0.0000
  0
LINE
  8
4
 10
-1.7746
 20
0.9744
 30
0.0000
 11
-1.8248
 21
1.0246
 31
0.0000
  0
LINE
  8
4
 10
-1.8248
 20
0.8750
 30
0.0000
 11
-1.1250
 21
0.8750
 31
0.0000
  0
LINE
  8
4
 10
-1.1250
 20
0.8750
 30
0.0000
 11
-1.1250
 21
1.0748
 31
0.0000
  0
LINE
  8
4
 10
-1.1250
 20
1.0748
 30
0.0000
 11
-1.8248
 21
1.0748
 31
0.0000
  0
LINE
  8
4
 10
-1.8248
 20
1.0748
 30
0.0000
 11
-1.8248
 21
0.8750
 31
0.0000
  0
LINE
  8
4
 10
-1.8248
 20
1.5246
 30
0.0000
 11
-1.7746
 21
1.5748
 31
0.0000
  0
LINE
  8
4
 10
-1.7746
 20
1.5748
 30
0.0000
 11
-1.8248
 21
1.6250
 31
0.0000
  0
LINE
  8
4
 10
-1.8248
 20
1.4744
 30
0.0000
 11
-1.1250
 21
1.4744
 31
0.0000
  0
LINE
  8
4
 10
-1.1250
 20
1.4744
 30
0.0000
 11
-1.1250
 21
1.6752
 31
0.0000
  0
LINE
  8
4
 10
-1.1250
 20
1.6752
 30
0.0000
 11
-1.8248
 21
1.6752
 31
0.0000
  0
LINE
  8
4
 10
-1.8248
 20
1.6752
 30
0.0000
 11
-1.8248
 21
1.4744
 31
0.0000
  0
LINE
  8
4
 10
0.2254
 20
-0.2756
 30
0.0000
 11
0.2756
 21
-0.2254
 31
0.0000
  0
LINE
  8
4
 10
0.2756
 20
-0.2254
 30
0.0000
 11
0.2254
 21
-0.1752
 31
0.0000
  0
LINE
  8
4
 10
0.2254
 20
-0.3248
 30
0.0000
 11
0.9252
 21
-0.3248
 31
0.0000
  0
LINE
  8
4
 10
0.9252
 20
-0.3248
 30
0.0000
 11
0.9252
 21
-0.1250
 31
0.0000
  0
LINE
  8
4
 10
0.9252
 20
-0.1250
 30
0.0000
 11
0.2254
 21
-0.1250
 31
0.0000
  0
LINE
  8
4
 10
0.2254
 20
-0.1250
 30
0.0000
 11
0.2254
 21
-0.3248
 31
0.0000
  0
LINE
  8
4
 10
-1.8248
 20
0.3248
 30
0.0000
 11
-1.7746
 21
0.3750
 31
0.0000
  0
LINE
  8
4
 10
-1.7746
 20
0.3750
 30
0.0000
 11
-1.8248
 21
0.4252
 31
0.0000
  0
LINE
  8
4
 10
-1.8248
 20
0.2746
 30
0.0000
 11
-1.1250
 21
0.2746
 31
0.0000
  0
LINE
  8
4
 10
-1.1250
 20
0.2746
 30
0.0000
 11
-1.1250
 21
0.4744
 31
0.0000
  0
LINE
  8
4
 10
-1.1250
 20
0.4744
 30
0.0000
 11
-1.8248
 21
0.4744
 31
0.0000
  0
LINE
  8
4
 10
-1.8248
 20
0.4744
 30
0.0000
 11
-1.8248
 21
0.2746
 31
0.0000
  0
LINE
  8
4
 10
-3.2244
 20
0.3248
 30
0.0000
 11
-3.1752
 21
0.3750
 31
0.0000
  0
LINE
  8
4
 10
-3.1752
 20
0.3750
 30
0.0000
 11
-3.2244
 21
0.4252
 31
0.0000
  0
LINE
  8
4
 10
-3.2244
 20
0.2746
 30
0.0000
 11
-2.5246
 21
0.2746
 31
0.0000
  0
LINE
  8
4
 10
-2.5246
 20
0.2746
 30
0.0000
 11
-2.5246
 21
0.4744
 31
0.0000
  0
LINE
  8
4
 10
-2.5246
 20
0.4744
 30
0.0000
 11
-3.2244
 21
0.4744
 31
0.0000
  0
LINE
  8
4
 10
-3.2244
 20
0.4744
 30
0.0000
 11
-3.2244
 21
0.2746
 31
0.0000
  0
ARC
  8
4
 10
1.3701
 20
1.3100
 30
0.0000
 40
0.0305
 50
0.0000
 51
90.0000
  0
ARC
  8
4
 10
1.3701
 20
1.2402
 30
0.0000
 40
0.0305
 50
270.0000
 51
0.0000
  0
ARC
  8
4
 10
1.2303
 20
1.2402
 30
0.0000
 40
0.0305
 50
180.0000
 51
270.0000
  0
ARC
  8
4
 10
1.2303
 20
1.3100
 30
0.0000
 40
0.0295
 50
90.0000
 51
180.0000
  0
LINE
  8
4
 10
1.3701
 20
1.2096
 30
0.0000
 11
1.2303
 21
1.2096
 31
0.0000
  0
LINE
  8
4
 10
1.3701
 20
1.3396
 30
0.0000
 11
1.2303
 21
1.3396
 31
0.0000
  0
LINE
  8
4
 10
1.1998
 20
1.2402
 30
0.0000
 11
1.1998
 21
1.3100
 31
0.0000
  0
LINE
  8
4
 10
1.4006
 20
1.3100
 30
0.0000
 11
1.4006
 21
1.2402
 31
0.0000
  0
ARC
  8
4
 10
-3.0551
 20
0.0846
 30
0.0000
 40
0.0305
 50
0.0000
 51
90.0000
  0
ARC
  8
4
 10
-3.0551
 20
0.0148
 30
0.0000
 40
0.0295
 50
270.0000
 51
0.0000
  0
ARC
  8
4
 10
-3.1949
 20
0.0148
 30
0.0000
 40
0.0295
 50
180.0000
 51
270.0000
  0
ARC
  8
4
 10
-3.1949
 20
0.0846
 30
0.0000
 40
0.0305
 50
90.0000
 51
180.0000
  0
LINE
  8
4
 10
-3.0551
 20
-0.0148
 30
0.0000
 11
-3.1949
 21
-0.0148
 31
0.0000
  0
LINE
  8
4
 10
-3.0551
 20
0.1152
 30
0.0000
 11
-3.1949
 21
0.1152
 31
0.0000
  0
LINE
  8
4
 10
-3.2244
 20
0.0148
 30
0.0000
 11
-3.2244
 21
0.0846
 31
0.0000
  0
LINE
  8
4
 10
-3.0246
 20
0.0846
 30
0.0000
 11
-3.0246
 21
0.0148
 31
0.0000
  0
ARC
  8
4
 10
-0.5945
 20
1.8150
 30
0.0000
 40
0.0305
 50
180.0000
 51
270.0000
  0
ARC
  8
4
 10
-0.5945
 20
1.8848
 30
0.0000
 40
0.0295
 50
90.0000
 51
180.0000
  0
ARC
  8
4
 10
-0.4547
 20
1.8848
 30
0.0000
 40
0.0295
 50
0.0000
 51
90.0000
  0
ARC
  8
4
 10
-0.4547
 20
1.8150
 30
0.0000
 40
0.0305
 50
270.0000
 51
0.0000
  0
LINE
  8
4
 10
-0.5945
 20
1.9144
 30
0.0000
 11
-0.4547
 21
1.9144
 31
0.0000
  0
LINE
  8
4
 10
-0.5945
 20
1.7844
 30
0.0000
 11
-0.4547
 21
1.7844
 31
0.0000
  0
LINE
  8
4
 10
-0.4252
 20
1.8848
 30
0.0000
 11
-0.4252
 21
1.8150
 31
0.0000
  0
LINE
  8
4
 10
-0.6250
 20
1.8150
 30
0.0000
 11
-0.6250
 21
1.8848
 31
0.0000
  0
ARC
  8
4
 10
-1.6545
 20
1.8848
 30
0.0000
 40
0.0295
 50
0.0000
 51
90.0000
  0
ARC
  8
4
 10
-1.6545
 20
1.8150
 30
0.0000
 40
0.0305
 50
270.0000
 51
0.0000
  0
ARC
  8
4
 10
-1.7953
 20
1.8150
 30
0.0000
 40
0.0295
 50
180.0000
 51
270.0000
  0
ARC
  8
4
 10
-1.7953
 20
1.8848
 30
0.0000
 40
0.0295
 50
90.0000
 51
180.0000
  0
LINE
  8
4
 10
-1.6545
 20
1.7844
 30
0.0000
 11
-1.7953
 21
1.7844
 31
0.0000
  0
LINE
  8
4
 10
-1.6545
 20
1.9144
 30
0.0000
 11
-1.7953
 21
1.9144
 31
0.0000
  0
LINE
  8
4
 10
-1.8248
 20
1.8150
 30
0.0000
 11
-1.8248
 21
1.8848
 31
0.0000
  0
LINE
  8
4
 10
-1.6250
 20
1.8848
 30
0.0000
 11
-1.6250
 21
1.8150
 31
0.0000
  0
ARC
  8
4
 10
-2.1447
 20
1.1644
 30
0.0000
 40
0.0305
 50
180.0000
 51
270.0000
  0
ARC
  8
4
 10
-2.1447
 20
1.2352
 30
0.0000
 40
0.0295
 50
90.0000
 51
180.0000
  0
ARC
  8
4
 10
-2.0049
 20
1.2352
 30
0.0000
 40
0.0305
 50
0.0000
 51
90.0000
  0
ARC
  8
4
 10
-2.0049
 20
1.1644
 30
0.0000
 40
0.0295
 50
270.0000
 51
0.0000
  0
LINE
  8
4
 10
-2.1447
 20
1.2648
 30
0.0000
 11
-2.0049
 21
1.2648
 31
0.0000
  0
LINE
  8
4
 10
-2.1447
 20
1.1348
 30
0.0000
 11
-2.0049
 21
1.1348
 31
0.0000
  0
LINE
  8
4
 10
-1.9744
 20
1.2352
 30
0.0000
 11
-1.9744
 21
1.1644
 31
0.0000
  0
LINE
  8
4
 10
-2.1752
 20
1.1644
 30
0.0000
 11
-2.1752
 21
1.2352
 31
0.0000
  0
ARC
  8
4
 10
0.7047
 20
1.4902
 30
0.0000
 40
0.0295
 50
180.0000
 51
270.0000
  0
ARC
  8
4
 10
0.7047
 20
1.5600
 30
0.0000
 40
0.0295
 50
90.0000
 51
180.0000
  0
ARC
  8
4
 10
0.8455
 20
1.5600
 30
0.0000
 40
0.0295
 50
0.0000
 51
90.0000
  0
ARC
  8
4
 10
0.8455
 20
1.4902
 30
0.0000
 40
0.0305
 50
270.0000
 51
0.0000
  0
LINE
  8
4
 10
0.7047
 20
1.5896
 30
0.0000
 11
0.8455
 21
1.5896
 31
0.0000
  0
LINE
  8
4
 10
0.7047
 20
1.4596
 30
0.0000
 11
0.8455
 21
1.4596
 31
0.0000
  0
LINE
  8
4
 10
0.8750
 20
1.5600
 30
0.0000
 11
0.8750
 21
1.4902
 31
0.0000
  0
LINE
  8
4
 10
0.6752
 20
1.4902
 30
0.0000
 11
0.6752
 21
1.5600
 31
0.0000
  0
ARC
  8
4
 10
-1.6545
 20
0.0846
 30
0.0000
 40
0.0295
 50
0.0000
 51
90.0000
  0
ARC
  8
4
 10
-1.6545
 20
0.0148
 30
0.0000
 40
0.0295
 50
270.0000
 51
0.0000
  0
ARC
  8
4
 10
-1.7953
 20
0.0148
 30
0.0000
 40
0.0295
 50
180.0000
 51
270.0000
  0
ARC
  8
4
 10
-1.7953
 20
0.0846
 30
0.0000
 40
0.0305
 50
90.0000
 51
180.0000
  0
LINE
  8
4
 10
-1.6545
 20
-0.0148
 30
0.0000
 11
-1.7953
 21
-0.0148
 31
0.0000
  0
LINE
  8
4
 10
-1.6545
 20
0.1152
 30
0.0000
 11
-1.7953
 21
0.1152
 31
0.0000
  0
LINE
  8
4
 10
-1.8248
 20
0.0148
 30
0.0000
 11
-1.8248
 21
0.0846
 31
0.0000
  0
LINE
  8
4
 10
-1.6250
 20
0.0846
 30
0.0000
 11
-1.6250
 21
0.0148
 31
0.0000
  0
ARC
  8
4
 10
0.6457
 20
1.5600
 30
0.0000
 40
0.0295
 50
0.0000
 51
90.0000
  0
ARC
  8
4
 10
0.6457
 20
1.4902
 30
0.0000
 40
0.0305
 50
270.0000
 51
0.0000
  0
ARC
  8
4
 10
0.5049
 20
1.4902
 30
0.0000
 40
0.0295
 50
180.0000
 51
270.0000
  0
ARC
  8
4
 10
0.5049
 20
1.5600
 30
0.0000
 40
0.0295
 50
90.0000
 51
180.0000
  0
LINE
  8
4
 10
0.6457
 20
1.4596
 30
0.0000
 11
0.5049
 21
1.4596
 31
0.0000
  0
LINE
  8
4
 10
0.6457
 20
1.5896
 30
0.0000
 11
0.5049
 21
1.5896
 31
0.0000
  0
LINE
  8
4
 10
0.4754
 20
1.4902
 30
0.0000
 11
0.4754
 21
1.5600
 31
0.0000
  0
LINE
  8
4
 10
0.6752
 20
1.5600
 30
0.0000
 11
0.6752
 21
1.4902
 31
0.0000
  0
ARC
  8
4
 10
-1.6545
 20
-0.5148
 30
0.0000
 40
0.0295
 50
0.0000
 51
90.0000
  0
ARC
  8
4
 10
-1.6545
 20
-0.5856
 30
0.0000
 40
0.0295
 50
270.0000
 51
0.0000
  0
ARC
  8
4
 10
-1.7953
 20
-0.5856
 30
0.0000
 40
0.0295
 50
180.0000
 51
270.0000
  0
ARC
  8
4
 10
-1.7953
 20
-0.5148
 30
0.0000
 40
0.0295
 50
90.0000
 51
180.0000
  0
LINE
  8
4
 10
-1.6545
 20
-0.6152
 30
0.0000
 11
-1.7953
 21
-0.6152
 31
0.0000
  0
LINE
  8
4
 10
-1.6545
 20
-0.4852
 30
0.0000
 11
-1.7953
 21
-0.4852
 31
0.0000
  0
LINE
  8
4
 10
-1.8248
 20
-0.5856
 30
0.0000
 11
-1.8248
 21
-0.5148
 31
0.0000
  0
LINE
  8
4
 10
-1.6250
 20
-0.5148
 30
0.0000
 11
-1.6250
 21
-0.5856
 31
0.0000
  0
ARC
  8
4
 10
1.1703
 20
-0.5148
 30
0.0000
 40
0.0295
 50
0.0000
 51
90.0000
  0
ARC
  8
4
 10
1.1703
 20
-0.5856
 30
0.0000
 40
0.0295
 50
270.0000
 51
0.0000
  0
ARC
  8
4
 10
1.0305
 20
-0.5856
 30
0.0000
 40
0.0305
 50
180.0000
 51
270.0000
  0
ARC
  8
4
 10
1.0305
 20
-0.5148
 30
0.0000
 40
0.0295
 50
90.0000
 51
180.0000
  0
LINE
  8
4
 10
1.1703
 20
-0.6152
 30
0.0000
 11
1.0305
 21
-0.6152
 31
0.0000
  0
LINE
  8
4
 10
1.1703
 20
-0.4852
 30
0.0000
 11
1.0305
 21
-0.4852
 31
0.0000
  0
LINE
  8
4
 10
1.0000
 20
-0.5856
 30
0.0000
 11
1.0000
 21
-0.5148
 31
0.0000
  0
LINE
  8
4
 10
1.1998
 20
-0.5148
 30
0.0000
 11
1.1998
 21
-0.5856
 31
0.0000
  0
ARC
  8
4
 10
1.3701
 20
0.6850
 30
0.0000
 40
0.0305
 50
0.0000
 51
90.0000
  0
ARC
  8
4
 10
1.3701
 20
0.6152
 30
0.0000
 40
0.0305
 50
270.0000
 51
0.0000
  0
ARC
  8
4
 10
1.2303
 20
0.6152
 30
0.0000
 40
0.0305
 50
180.0000
 51
270.0000
  0
ARC
  8
4
 10
1.2303
 20
0.6850
 30
0.0000
 40
0.0295
 50
90.0000
 51
180.0000
  0
LINE
  8
4
 10
1.3701
 20
0.5846
 30
0.0000
 11
1.2303
 21
0.5846
 31
0.0000
  0
LINE
  8
4
 10
1.3701
 20
0.7146
 30
0.0000
 11
1.2303
 21
0.7146
 31
0.0000
  0
LINE
  8
4
 10
1.1998
 20
0.6152
 30
0.0000
 11
1.1998
 21
0.6850
 31
0.0000
  0
LINE
  8
4
 10
1.4006
 20
0.6850
 30
0.0000
 11
1.4006
 21
0.6152
 31
0.0000
  0
LINE
  8
4
 10
1.0000
 20
-0.3248
 30
0.0000
 11
2.0000
 21
-0.3248
 31
0.0000
  0
LINE
  8
4
 10
2.0000
 20
-0.3248
 30
0.0000
 11
2.0000
 21
-0.1250
 31
0.0000
  0
LINE
  8
4
 10
2.0000
 20
-0.1250
 30
0.0000
 11
1.0000
 21
-0.1250
 31
0.0000
  0
LINE
  8
4
 10
1.0000
 20
-0.1250
 30
0.0000
 11
1.0000
 21
-0.3248
 31
0.0000
  0
LINE
  8
4
 10
1.0000
 20
-0.2756
 30
0.0000
 11
1.0502
 21
-0.2254
 31
0.0000
  0
LINE
  8
4
 10
1.0502
 20
-0.2254
 30
0.0000
 11
1.0000
 21
-0.1752
 31
0.0000
  0
LINE
  8
4
 10
-0.0748
 20
-0.9252
 30
0.0000
 11
0.9252
 21
-0.9252
 31
0.0000
  0
LINE
  8
4
 10
0.9252
 20
-0.9252
 30
0.0000
 11
0.9252
 21
-0.7254
 31
0.0000
  0
LINE
  8
4
 10
0.9252
 20
-0.7254
 30
0.0000
 11
-0.0748
 21
-0.7254
 31
0.0000
  0
LINE
  8
4
 10
-0.0748
 20
-0.7254
 30
0.0000
 11
-0.0748
 21
-0.9252
 31
0.0000
  0
LINE
  8
4
 10
-0.0748
 20
-0.8750
 30
0.0000
 11
-0.0246
 21
-0.8248
 31
0.0000
  0
LINE
  8
4
 10
-0.0246
 20
-0.8248
 30
0.0000
 11
-0.0748
 21
-0.7756
 31
0.0000
  0
LINE
  8
4
 10
-1.8248
 20
-0.9252
 30
0.0000
 11
-0.8248
 21
-0.9252
 31
0.0000
  0
LINE
  8
4
 10
-0.8248
 20
-0.9252
 30
0.0000
 11
-0.8248
 21
-0.7254
 31
0.0000
  0
LINE
  8
4
 10
-0.8248
 20
-0.7254
 30
0.0000
 11
-1.8248
 21
-0.7254
 31
0.0000
  0
LINE
  8
4
 10
-1.8248
 20
-0.7254
 30
0.0000
 11
-1.8248
 21
-0.9252
 31
0.0000
  0
LINE
  8
4
 10
-1.8248
 20
-0.8750
 30
0.0000
 11
-1.7746
 21
-0.8248
 31
0.0000
  0
LINE
  8
4
 10
-1.7746
 20
-0.8248
 30
0.0000
 11
-1.8248
 21
-0.7756
 31
0.0000
  0
LINE
  8
4
 10
1.0000
 20
-0.9252
 30
0.0000
 11
2.0000
 21
-0.9252
 31
0.0000
  0
LINE
  8
4
 10
2.0000
 20
-0.9252
 30
0.0000
 11
2.0000
 21
-0.7254
 31
0.0000
  0
LINE
  8
4
 10
2.0000
 20
-0.7254
 30
0.0000
 11
1.0000
 21
-0.7254
 31
0.0000
  0
LINE
  8
4
 10
1.0000
 20
-0.7254
 30
0.0000
 11
1.0000
 21
-0.9252
 31
0.0000
  0
LINE
  8
4
 10
1.0000
 20
-0.8750
 30
0.0000
 11
1.0502
 21
-0.8248
 31
0.0000
  0
LINE
  8
4
 10
1.0502
 20
-0.8248
 30
0.0000
 11
1.0000
 21
-0.7756
 31
0.0000
  0
LINE
  8
4
 10
1.0000
 20
1.5748
 30
0.0000
 11
2.0000
 21
1.5748
 31
0.0000
  0
LINE
  8
4
 10
2.0000
 20
1.5748
 30
0.0000
 11
2.0000
 21
1.7746
 31
0.0000
  0
LINE
  8
4
 10
2.0000
 20
1.7746
 30
0.0000
 11
1.0000
 21
1.7746
 31
0.0000
  0
LINE
  8
4
 10
1.0000
 20
1.7746
 30
0.0000
 11
1.0000
 21
1.5748
 31
0.0000
  0
LINE
  8
4
 10
1.0000
 20
1.6250
 30
0.0000
 11
1.0502
 21
1.6752
 31
0.0000
  0
LINE
  8
4
 10
1.0502
 20
1.6752
 30
0.0000
 11
1.0000
 21
1.7244
 31
0.0000
  0
LINE
  8
4
 10
-1.8248
 20
-0.3248
 30
0.0000
 11
-0.6250
 21
-0.3248
 31
0.0000
  0
LINE
  8
4
 10
-0.6250
 20
-0.3248
 30
0.0000
 11
-0.6250
 21
-0.1250
 31
0.0000
  0
LINE
  8
4
 10
-0.6250
 20
-0.1250
 30
0.0000
 11
-1.8248
 21
-0.1250
 31
0.0000
  0
LINE
  8
4
 10
-1.8248
 20
-0.1250
 30
0.0000
 11
-1.8248
 21
-0.3248
 31
0.0000
  0
LINE
  8
4
 10
-1.8248
 20
-0.2756
 30
0.0000
 11
-1.7746
 21
-0.2254
 31
0.0000
  0
LINE
  8
4
 10
-1.7746
 20
-0.2254
 30
0.0000
 11
-1.8248
 21
-0.1752
 31
0.0000
  0
LINE
  8
4
 10
-1.7746
 20
-1.2500
 30
0.0000
 11
-1.7746
 21
-1.3504
 31
0.0000
  0
LINE
  8
4
 10
-2.6752
 20
-1.3504
 30
0.0000
 11
-1.6752
 21
-1.3504
 31
0.0000
  0
LINE
  8
4
 10
-1.6752
 20
-1.3504
 30
0.0000
 11
-1.6752
 21
-1.2500
 31
0.0000
  0
LINE
  8
4
 10
-1.6752
 20
-1.2500
 30
0.0000
 11
-2.6752
 21
-1.2500
 31
0.0000
  0
LINE
  8
4
 10
-2.6752
 20
-1.2500
 30
0.0000
 11
-2.6752
 21
-1.3504
 31
0.0000
  0
LINE
  8
4
 10
2.1998
 20
1.5000
 30
0.0000
 11
2.3002
 21
1.5000
 31
0.0000
  0
LINE
  8
4
 10
2.1998
 20
0.5994
 30
0.0000
 11
2.3002
 21
0.5994
 31
0.0000
  0
LINE
  8
4
 10
2.3002
 20
0.5994
 30
0.0000
 11
2.3002
 21
1.5994
 31
0.0000
  0
LINE
  8
4
 10
2.3002
 20
1.5994
 30
0.0000
 11
2.1998
 21
1.5994
 31
0.0000
  0
LINE
  8
4
 10
2.1998
 20
1.5994
 30
0.0000
 11
2.1998
 21
0.5994
 31
0.0000
  0
LINE
  8
4
 10
-0.7500
 20
-0.9252
 30
0.0000
 11
-0.6496
 21
-0.9252
 31
0.0000
  0
LINE
  8
4
 10
-0.6496
 20
-0.9252
 30
0.0000
 11
-0.6496
 21
-0.8248
 31
0.0000
  0
LINE
  8
4
 10
-0.6496
 20
-0.8248
 30
0.0000
 11
-0.7500
 21
-0.8248
 31
0.0000
  0
LINE
  8
4
 10
-0.7500
 20
-0.8248
 30
0.0000
 11
-0.7500
 21
-0.9252
 31
0.0000
  0
LINE
  8
4
 10
-0.7500
 20
-0.9252
 30
0.0000
 11
-0.1496
 21
-0.9252
 31
0.0000
  0
LINE
  8
4
 10
-0.1496
 20
-0.9252
 30
0.0000
 11
-0.1496
 21
-0.7254
 31
0.0000
  0
LINE
  8
4
 10
-0.1496
 20
-0.7254
 30
0.0000
 11
-0.7500
 21
-0.7254
 31
0.0000
  0
LINE
  8
4
 10
-0.7500
 20
-0.7254
 30
0.0000
 11
-0.7500
 21
-0.9252
 31
0.0000
  0
LINE
  8
4
 10
-2.4744
 20
-0.6250
 30
0.0000
 11
-1.9744
 21
-0.6250
 31
0.0000
  0
LINE
  8
4
 10
-1.9744
 20
-0.6250
 30
0.0000
 11
-1.9744
 21
-1.0256
 31
0.0000
  0
LINE
  8
4
 10
-1.9744
 20
-1.0256
 30
0.0000
 11
-2.4498
 21
-1.0256
 31
0.0000
  0
LINE
  8
4
 10
-2.4498
 20
-1.0256
 30
0.0000
 11
-2.4744
 21
-1.0000
 31
0.0000
  0
LINE
  8
4
 10
-2.4744
 20
-1.0000
 30
0.0000
 11
-2.4744
 21
-0.6250
 31
0.0000
  0
CIRCLE
  8
4
 10
2.0748
 20
-1.2402
 30
0.0000
 40
0.1004
  0
LINE
  8
4
 10
1.9803
 20
-1.1752
 30
0.0000
 11
1.9803
 21
-1.1152
 31
0.0000
  0
LINE
  8
4
 10
2.0098
 20
-1.1457
 30
0.0000
 11
1.9498
 21
-1.1457
 31
0.0000
  0
CIRCLE
  8
4
 10
-1.5000
 20
-1.2402
 30
0.0000
 40
0.1004
  0
LINE
  8
4
 10
-1.5945
 20
-1.1752
 30
0.0000
 11
-1.5945
 21
-1.1152
 31
0.0000
  0
LINE
  8
4
 10
-1.5650
 20
-1.1457
 30
0.0000
 11
-1.6250
 21
-1.1457
 31
0.0000
  0
LINE
  8
4
 10
-2.4252
 20
1.0994
 30
0.0000
 11
-2.4252
 21
0.3002
 31
0.0000
  0
ARC
  8
4
 10
-1.9744
 20
1.0502
 30
0.0000
 40
0.0492
 50
0.0000
 51
90.0000
  0
ARC
  8
4
 10
-1.9744
 20
0.3002
 30
0.0000
 40
0.0502
 50
270.0000
 51
0.0000
  0
ARC
  8
4
 10
-2.3750
 20
0.3002
 30
0.0000
 40
0.0502
 50
180.0000
 51
270.0000
  0
LINE
  8
4
 10
-1.9744
 20
0.2500
 30
0.0000
 11
-2.3750
 21
0.2500
 31
0.0000
  0
LINE
  8
4
 10
-1.9252
 20
1.0502
 30
0.0000
 11
-1.9252
 21
0.3002
 31
0.0000
  0
LINE
  8
4
 10
-1.9744
 20
1.0994
 30
0.0000
 11
-2.4252
 21
1.0994
 31
0.0000
  0
LINE
  8
4
 10
2.3750
 20
0.4793
 30
0.0000
 11
2.8848
 21
0.4793
 31
0.0000
  0
LINE
  8
4
 10
2.8848
 20
0.4793
 30
0.0000
 11
2.8848
 21
1.6998
 31
0.0000
  0
LINE
  8
4
 10
2.8848
 20
1.6998
 30
0.0000
 11
2.3750
 21
1.6998
 31
0.0000
  0
LINE
  8
4
 10
2.3750
 20
1.6998
 30
0.0000
 11
2.3750
 21
0.4793
 31
0.0000
  0
LINE
  8
4
 10
2.8848
 20
0.7648
 30
0.0000
 11
3.1102
 21
0.7648
 31
0.0000
  0
LINE
  8
4
 10
3.1102
 20
0.7648
 30
0.0000
 11
3.1102
 21
1.4144
 31
0.0000
  0
LINE
  8
4
 10
3.1102
 20
1.4144
 30
0.0000
 11
2.8848
 21
1.4144
 31
0.0000
  0
LINE
  8
4
 10
2.8848
 20
-1.4754
 30
0.0000
 11
3.1102
 21
-1.4754
 31
0.0000
  0
LINE
  8
4
 10
3.1102
 20
-1.4754
 30
0.0000
 11
3.1102
 21
0.0748
 31
0.0000
  0
LINE
  8
4
 10
3.1102
 20
0.0748
 30
0.0000
 11
2.8848
 21
0.0748
 31
0.0000
  0
LINE
  8
4
 10
2.3750
 20
-1.7500
 30
0.0000
 11
2.8848
 21
-1.7500
 31
0.0000
  0
LINE
  8
4
 10
2.8848
 20
-1.7500
 30
0.0000
 11
2.8848
 21
0.3494
 31
0.0000
  0
LINE
  8
4
 10
2.8848
 20
0.3494
 30
0.0000
 11
2.3750
 21
0.3494
 31
0.0000
  0
LINE
  8
4
 10
2.3750
 20
0.3494
 30
0.0000
 11
2.3750
 21
-1.7500
 31
0.0000
  0
LINE
  8
4
 10
1.8652
 20
-1.2500
 30
0.0000
 11
1.8898
 21
-1.2500
 31
0.0000
  0
LINE
  8
4
 10
1.8652
 20
-1.2500
 30
0.0000
 11
1.7904
 21
-1.2500
 31
0.0000
  0
LINE
  8
4
 10
1.7904
 20
-1.2500
 30
0.0000
 11
1.7904
 21
-1.3504
 31
0.0000
  0
LINE
  8
4
 10
-1.3100
 20
-1.3504
 30
0.0000
 11
1.8898
 21
-1.3504
 31
0.0000
  0
LINE
  8
4
 10
1.8898
 20
-1.3504
 30
0.0000
 11
1.8898
 21
-1.1506
 31
0.0000
  0
LINE
  8
4
 10
1.8898
 20
-1.1506
 30
0.0000
 11
-1.3100
 21
-1.1506
 31
0.0000
  0
LINE
  8
4
 10
-1.3100
 20
-1.1506
 30
0.0000
 11
-1.3100
 21
-1.3504
 31
0.0000
  0
TEXT
  8
4
 10
-1.3110
 20
-1.1250
 30
0.0000
 40
0.0492
  1
64
  0
TEXT
  8
4
 10
-1.4016
 20
-1.3848
 30
0.0000
 40
0.0492
  1
63
  0
TEXT
  8
4
 10
1.9104
 20
-1.2244
 30
0.0000
 40
0.0492
  1
2
  0
TEXT
  8
4
 10
1.9104
 20
-1.3248
 30
0.0000
 40
0.0492
  1
1
  0
TEXT
  8
4
 10
-2.8927
 20
1.8750
 30
0.0000
 40
0.0492
  1
SERIAL
  0
TEXT
  8
4
 10
-1.5679
 20
2.2254
 30
0.0000
 40
0.0492
  1
2000
  0
CIRCLE
  8
4
 10
-1.6722
 20
2.2520
 30
0.0000
 40
0.0404
  0
TEXT
  8
4
 10
-1.6900
 20
2.2352
 30
0.0000
 40
0.0492
  1
c
  0
LINE
  8
4
 10
-1.5994
 20
2.0246
 30
0.0000
 11
-1.5994
 21
2.1752
 31
0.0000
  0
LINE
  8
4
 10
-1.5994
 20
2.1752
 30
0.0000
 11
-1.2746
 21
2.1752
 31
0.0000
  0
LINE
  8
4
 10
-1.2746
 20
2.1752
 30
0.0000
 11
-1.2746
 21
2.0246
 31
0.0000
  0
LINE
  8
4
 10
-1.2746
 20
2.0246
 30
0.0000
 11
-1.5994
 21
2.0246
 31
0.0000
  0
LINE
  8
4
 10
-1.2746
 20
2.1752
 30
0.0000
 11
-1.5994
 21
2.1752
 31
0.0000
  0
LINE
  8
4
 10
-1.5994
 20
2.1654
 30
0.0000
 11
-1.2746
 21
2.1654
 31
0.0000
  0
LINE
  8
4
 10
-1.2746
 20
2.1555
 30
0.0000
 11
-1.5994
 21
2.1555
 31
0.0000
  0
LINE
  8
4
 10
-1.5994
 20
2.1457
 30
0.0000
 11
-1.2746
 21
2.1457
 31
0.0000
  0
LINE
  8
4
 10
-1.2746
 20
2.1358
 30
0.0000
 11
-1.5994
 21
2.1358
 31
0.0000
  0
LINE
  8
4
 10
-1.5994
 20
2.1260
 30
0.0000
 11
-1.2746
 21
2.1260
 31
0.0000
  0
LINE
  8
4
 10
-1.2746
 20
2.1161
 30
0.0000
 11
-1.5994
 21
2.1161
 31
0.0000
  0
LINE
  8
4
 10
-1.5994
 20
2.1063
 30
0.0000
 11
-1.2746
 21
2.1063
 31
0.0000
  0
LINE
  8
4
 10
-1.2746
 20
2.0965
 30
0.0000
 11
-1.5994
 21
2.0965
 31
0.0000
  0
LINE
  8
4
 10
-1.5994
 20
2.0866
 30
0.0000
 11
-1.2746
 21
2.0866
 31
0.0000
  0
LINE
  8
4
 10
-1.2746
 20
2.0768
 30
0.0000
 11
-1.5994
 21
2.0768
 31
0.0000
  0
LINE
  8
4
 10
-1.5994
 20
2.0669
 30
0.0000
 11
-1.2746
 21
2.0669
 31
0.0000
  0
LINE
  8
4
 10
-1.2746
 20
2.0571
 30
0.0000
 11
-1.5994
 21
2.0571
 31
0.0000
  0
LINE
  8
4
 10
-1.5994
 20
2.0472
 30
0.0000
 11
-1.2746
 21
2.0472
 31
0.0000
  0
LINE
  8
4
 10
-1.2746
 20
2.0374
 30
0.0000
 11
-1.5994
 21
2.0374
 31
0.0000
  0
LINE
  8
4
 10
-1.5994
 20
2.0276
 30
0.0000
 11
-1.2746
 21
2.0276
 31
0.0000
  0
LINE
  8
4
 10
-2.2746
 20
2.0246
 30
0.0000
 11
-2.2746
 21
2.1752
 31
0.0000
  0
LINE
  8
4
 10
-2.2746
 20
2.1752
 30
0.0000
 11
-1.8494
 21
2.1752
 31
0.0000
  0
LINE
  8
4
 10
-1.8494
 20
2.1752
 30
0.0000
 11
-1.8494
 21
2.0246
 31
0.0000
  0
LINE
  8
4
 10
-1.8494
 20
2.0246
 30
0.0000
 11
-2.2746
 21
2.0246
 31
0.0000
  0
LINE
  8
4
 10
-1.8494
 20
2.1752
 30
0.0000
 11
-2.2746
 21
2.1752
 31
0.0000
  0
LINE
  8
4
 10
-2.2746
 20
2.1654
 30
0.0000
 11
-1.8494
 21
2.1654
 31
0.0000
  0
LINE
  8
4
 10
-1.8494
 20
2.1555
 30
0.0000
 11
-2.2746
 21
2.1555
 31
0.0000
  0
LINE
  8
4
 10
-2.2746
 20
2.1457
 30
0.0000
 11
-1.8494
 21
2.1457
 31
0.0000
  0
LINE
  8
4
 10
-1.8494
 20
2.1358
 30
0.0000
 11
-2.2746
 21
2.1358
 31
0.0000
  0
LINE
  8
4
 10
-2.2746
 20
2.1260
 30
0.0000
 11
-1.8494
 21
2.1260
 31
0.0000
  0
LINE
  8
4
 10
-1.8494
 20
2.1161
 30
0.0000
 11
-2.2746
 21
2.1161
 31
0.0000
  0
LINE
  8
4
 10
-2.2746
 20
2.1063
 30
0.0000
 11
-1.8494
 21
2.1063
 31
0.0000
  0
LINE
  8
4
 10
-1.8494
 20
2.0965
 30
0.0000
 11
-2.2746
 21
2.0965
 31
0.0000
  0
LINE
  8
4
 10
-2.2746
 20
2.0866
 30
0.0000
 11
-1.8494
 21
2.0866
 31
0.0000
  0
LINE
  8
4
 10
-1.8494
 20
2.0768
 30
0.0000
 11
-2.2746
 21
2.0768
 31
0.0000
  0
LINE
  8
4
 10
-2.2746
 20
2.0669
 30
0.0000
 11
-1.8494
 21
2.0669
 31
0.0000
  0
LINE
  8
4
 10
-1.8494
 20
2.0571
 30
0.0000
 11
-2.2746
 21
2.0571
 31
0.0000
  0
LINE
  8
4
 10
-2.2746
 20
2.0472
 30
0.0000
 11
-1.8494
 21
2.0472
 31
0.0000
  0
LINE
  8
4
 10
-1.8494
 20
2.0374
 30
0.0000
 11
-2.2746
 21
2.0374
 31
0.0000
  0
LINE
  8
4
 10
-2.2746
 20
2.0276
 30
0.0000
 11
-1.8494
 21
2.0276
 31
0.0000
  0
LINE
  8
4
 10
-2.5748
 20
1.8248
 30
0.0000
 11
-2.5748
 21
1.9744
 31
0.0000
  0
LINE
  8
4
 10
-2.5748
 20
1.9744
 30
0.0000
 11
-1.8494
 21
1.9744
 31
0.0000
  0
LINE
  8
4
 10
-1.8494
 20
1.9744
 30
0.0000
 11
-1.8494
 21
1.8248
 31
0.0000
  0
LINE
  8
4
 10
-1.8494
 20
1.8248
 30
0.0000
 11
-2.5748
 21
1.8248
 31
0.0000
  0
LINE
  8
4
 10
-1.8494
 20
1.9744
 30
0.0000
 11
-2.5748
 21
1.9744
 31
0.0000
  0
LINE
  8
4
 10
-2.5748
 20
1.9646
 30
0.0000
 11
-1.8494
 21
1.9646
 31
0.0000
  0
LINE
  8
4
 10
-1.8494
 20
1.9547
 30
0.0000
 11
-2.5748
 21
1.9547
 31
0.0000
  0
LINE
  8
4
 10
-2.5748
 20
1.9449
 30
0.0000
 11
-1.8494
 21
1.9449
 31
0.0000
  0
LINE
  8
4
 10
-1.8494
 20
1.9350
 30
0.0000
 11
-2.5748
 21
1.9350
 31
0.0000
  0
LINE
  8
4
 10
-2.5748
 20
1.9252
 30
0.0000
 11
-1.8494
 21
1.9252
 31
0.0000
  0
LINE
  8
4
 10
-1.8494
 20
1.9154
 30
0.0000
 11
-2.5748
 21
1.9154
 31
0.0000
  0
LINE
  8
4
 10
-2.5748
 20
1.9055
 30
0.0000
 11
-1.8494
 21
1.9055
 31
0.0000
  0
LINE
  8
4
 10
-1.8494
 20
1.8957
 30
0.0000
 11
-2.5748
 21
1.8957
 31
0.0000
  0
LINE
  8
4
 10
-2.5748
 20
1.8858
 30
0.0000
 11
-1.8494
 21
1.8858
 31
0.0000
  0
LINE
  8
4
 10
-1.8494
 20
1.8760
 30
0.0000
 11
-2.5748
 21
1.8760
 31
0.0000
  0
LINE
  8
4
 10
-2.5748
 20
1.8661
 30
0.0000
 11
-1.8494
 21
1.8661
 31
0.0000
  0
LINE
  8
4
 10
-1.8494
 20
1.8563
 30
0.0000
 11
-2.5748
 21
1.8563
 31
0.0000
  0
LINE
  8
4
 10
-2.5748
 20
1.8465
 30
0.0000
 11
-1.8494
 21
1.8465
 31
0.0000
  0
LINE
  8
4
 10
-1.8494
 20
1.8366
 30
0.0000
 11
-2.5748
 21
1.8366
 31
0.0000
  0
LINE
  8
4
 10
-2.5748
 20
1.8268
 30
0.0000
 11
-1.8494
 21
1.8268
 31
0.0000
  0
TEXT
  8
4
 10
-2.8927
 20
2.0748
 30
0.0000
 40
0.0492
  1
ASY 031-0102-           REV
  0
TEXT
  8
4
 10
-2.8927
 20
2.2254
 30
0.0000
 40
0.0492
  1
PCB 030-0102-01  REV A
  0
TEXT
  8
4
 10
-2.8927
 20
2.3504
 30
0.0000
 40
0.0492
  1
NATIONAL MODEL RAILROAD ASSOCIATION
  0
TEXT
  8
4
 10
-1.2175
 20
-1.4203
 30
0.0000
 40
0.0492
  1
A31
  0
TEXT
  8
4
 10
1.8041
 20
-1.4203
 30
0.0000
 40
0.0492
  1
A1
  0
TEXT
  8
4
 10
1.8091
 20
-1.1348
 30
0.0000
 40
0.0492
  1
A1
  0
TEXT
  8
4
 10
2.2884
 20
-1.3750
 30
0.0000
 40
0.0492
  1
13
  0
TEXT
  8
4
 10
2.3356
 20
-0.0748
 30
0.0000
 40
0.0492
  1
1
  0
TEXT
  8
4
 10
2.3356
 20
0.8504
 30
0.0000
 40
0.0492
  1
5
  0
TEXT
  8
4
 10
2.3356
 20
1.3002
 30
0.0000
 40
0.0492
  1
1
  0
TEXT
  8
4
 10
-0.1752
 20
-0.6870
 30
0.0000
 40
0.0492
  1
12
 50
90.0000
  0
TEXT
  8
4
 10
-0.1752
 20
-1.0364
 30
0.0000
 40
0.0492
  1
11
 50
90.0000
  0
TEXT
  8
4
 10
-0.6752
 20
-0.6900
 30
0.0000
 40
0.0492
  1
2
 50
90.0000
  0
TEXT
  8
4
 10
-0.6752
 20
-0.9902
 30
0.0000
 40
0.0492
  1
1
 50
90.0000
  0
LINE
  8
5
 10
1.9301
 20
-1.7500
 30
0.0000
 11
1.9301
 21
-1.4498
 31
0.0000
  0
LINE
  8
5
 10
1.9301
 20
-1.4498
 30
0.0000
 11
2.1201
 21
-1.4498
 31
0.0000
  0
LINE
  8
5
 10
2.1201
 20
-1.4498
 30
0.0000
 11
2.1201
 21
-1.7500
 31
0.0000
  0
LINE
  8
5
 10
2.1201
 20
-1.7500
 30
0.0000
 11
2.8199
 21
-1.7500
 31
0.0000
  0
LINE
  8
5
 10
2.8199
 20
-1.7500
 30
0.0000
 11
2.8199
 21
2.4498
 31
0.0000
  0
LINE
  8
5
 10
2.8199
 20
2.4498
 30
0.0000
 11
-3.3494
 21
2.4498
 31
0.0000
  0
LINE
  8
5
 10
-3.3494
 20
2.4498
 30
0.0000
 11
-3.3494
 21
-1.4498
 31
0.0000
  0
LINE
  8
5
 10
-3.3494
 20
-1.4498
 30
0.0000
 11
-1.4695
 21
-1.4498
 31
0.0000
  0
LINE
  8
5
 10
-1.4695
 20
-1.4498
 30
0.0000
 11
-1.2500
 21
-1.4498
 31
0.0000
  0
LINE
  8
5
 10
-1.2500
 20
-1.4498
 30
0.0000
 11
-1.2500
 21
-1.7500
 31
0.0000
  0
LINE
  8
5
 10
-1.2500
 20
-1.7500
 30
0.0000
 11
1.9301
 21
-1.7500
 31
0.0000
  0
LINE
  8
2
 10
-0.9252
 20
0.9744
 30
0.0000
 11
-0.8750
 21
1.0246
 31
0.0000
  0
LINE
  8
2
 10
-0.8750
 20
1.0246
 30
0.0000
 11
-0.9252
 21
1.0748
 31
0.0000
  0
LINE
  8
2
 10
-0.9252
 20
0.7746
 30
0.0000
 11
1.0748
 21
0.7746
 31
0.0000
  0
LINE
  8
2
 10
1.0748
 20
0.7746
 30
0.0000
 11
1.0748
 21
1.2746
 31
0.0000
  0
LINE
  8
2
 10
1.0748
 20
1.2746
 30
0.0000
 11
-0.9252
 21
1.2746
 31
0.0000
  0
LINE
  8
2
 10
-0.9252
 20
1.2746
 30
0.0000
 11
-0.9252
 21
0.7746
 31
0.0000
  0
LINE
  8
2
 10
0.8248
 20
0.3750
 30
0.0000
 11
1.0748
 21
0.3750
 31
0.0000
  0
LINE
  8
2
 10
1.0748
 20
0.3750
 30
0.0000
 11
1.0748
 21
0.4744
 31
0.0000
  0
LINE
  8
2
 10
1.0748
 20
0.4744
 30
0.0000
 11
0.8248
 21
0.4744
 31
0.0000
  0
LINE
  8
2
 10
0.8248
 20
0.4744
 30
0.0000
 11
0.8248
 21
0.3750
 31
0.0000
  0
LINE
  8
2
 10
0.8248
 20
0.2746
 30
0.0000
 11
1.0748
 21
0.2746
 31
0.0000
  0
LINE
  8
2
 10
1.0748
 20
0.2746
 30
0.0000
 11
1.0748
 21
0.3750
 31
0.0000
  0
LINE
  8
2
 10
1.0748
 20
0.3750
 30
0.0000
 11
0.8248
 21
0.3750
 31
0.0000
  0
LINE
  8
2
 10
0.8248
 20
0.3750
 30
0.0000
 11
0.8248
 21
0.2746
 31
0.0000
  0
LINE
  8
2
 10
0.8248
 20
0.1752
 30
0.0000
 11
1.0748
 21
0.1752
 31
0.0000
  0
LINE
  8
2
 10
1.0748
 20
0.1752
 30
0.0000
 11
1.0748
 21
0.2746
 31
0.0000
  0
LINE
  8
2
 10
1.0748
 20
0.2746
 30
0.0000
 11
0.8248
 21
0.2746
 31
0.0000
  0
LINE
  8
2
 10
0.8248
 20
0.2746
 30
0.0000
 11
0.8248
 21
0.1752
 31
0.0000
  0
LINE
  8
2
 10
-0.8248
 20
1.5246
 30
0.0000
 11
-0.7244
 21
1.5246
 31
0.0000
  0
LINE
  8
2
 10
-0.7244
 20
1.5246
 30
0.0000
 11
-0.7244
 21
1.7746
 31
0.0000
  0
LINE
  8
2
 10
-0.7244
 20
1.7746
 30
0.0000
 11
-0.8248
 21
1.7746
 31
0.0000
  0
LINE
  8
2
 10
-0.8248
 20
1.7746
 30
0.0000
 11
-0.8248
 21
1.5246
 31
0.0000
  0
LINE
  8
2
 10
-2.8996
 20
0.5994
 30
0.0000
 11
-2.6496
 21
0.5994
 31
0.0000
  0
LINE
  8
2
 10
-2.6496
 20
0.5994
 30
0.0000
 11
-2.6496
 21
0.6998
 31
0.0000
  0
LINE
  8
2
 10
-2.6496
 20
0.6998
 30
0.0000
 11
-2.8996
 21
0.6998
 31
0.0000
  0
LINE
  8
2
 10
-2.8996
 20
0.6998
 30
0.0000
 11
-2.8996
 21
0.5994
 31
0.0000
  0
LINE
  8
2
 10
-2.7244
 20
-0.9006
 30
0.0000
 11
-2.6250
 21
-0.9006
 31
0.0000
  0
LINE
  8
2
 10
-2.6250
 20
-0.9006
 30
0.0000
 11
-2.6250
 21
-0.6506
 31
0.0000
  0
LINE
  8
2
 10
-2.6250
 20
-0.6506
 30
0.0000
 11
-2.7244
 21
-0.6506
 31
0.0000
  0
LINE
  8
2
 10
-2.7244
 20
-0.6506
 30
0.0000
 11
-2.7244
 21
-0.9006
 31
0.0000
  0
LINE
  8
2
 10
-2.2500
 20
1.3750
 30
0.0000
 11
-2.0000
 21
1.3750
 31
0.0000
  0
LINE
  8
2
 10
-2.0000
 20
1.3750
 30
0.0000
 11
-2.0000
 21
1.4744
 31
0.0000
  0
LINE
  8
2
 10
-2.0000
 20
1.4744
 30
0.0000
 11
-2.2500
 21
1.4744
 31
0.0000
  0
LINE
  8
2
 10
-2.2500
 20
1.4744
 30
0.0000
 11
-2.2500
 21
1.3750
 31
0.0000
  0
LINE
  8
2
 10
0.2756
 20
0.1998
 30
0.0000
 11
0.3750
 21
0.1998
 31
0.0000
  0
LINE
  8
2
 10
0.3750
 20
0.1998
 30
0.0000
 11
0.3750
 21
0.4498
 31
0.0000
  0
LINE
  8
2
 10
0.3750
 20
0.4498
 30
0.0000
 11
0.2756
 21
0.4498
 31
0.0000
  0
LINE
  8
2
 10
0.2756
 20
0.4498
 30
0.0000
 11
0.2756
 21
0.1998
 31
0.0000
  0
LINE
  8
2
 10
0.4754
 20
0.1998
 30
0.0000
 11
0.5748
 21
0.1998
 31
0.0000
  0
LINE
  8
2
 10
0.5748
 20
0.1998
 30
0.0000
 11
0.5748
 21
0.4498
 31
0.0000
  0
LINE
  8
2
 10
0.5748
 20
0.4498
 30
0.0000
 11
0.4754
 21
0.4498
 31
0.0000
  0
LINE
  8
2
 10
0.4754
 20
0.4498
 30
0.0000
 11
0.4754
 21
0.1998
 31
0.0000
  0
LINE
  8
2
 10
0.3750
 20
0.1998
 30
0.0000
 11
0.4754
 21
0.1998
 31
0.0000
  0
LINE
  8
2
 10
0.4754
 20
0.1998
 30
0.0000
 11
0.4754
 21
0.4498
 31
0.0000
  0
LINE
  8
2
 10
0.4754
 20
0.4498
 30
0.0000
 11
0.3750
 21
0.4498
 31
0.0000
  0
LINE
  8
2
 10
0.3750
 20
0.4498
 30
0.0000
 11
0.3750
 21
0.1998
 31
0.0000
  0
LINE
  8
2
 10
0.3504
 20
-0.6004
 30
0.0000
 11
0.6004
 21
-0.6004
 31
0.0000
  0
LINE
  8
2
 10
0.6004
 20
-0.6004
 30
0.0000
 11
0.6004
 21
-0.5000
 31
0.0000
  0
LINE
  8
2
 10
0.6004
 20
-0.5000
 30
0.0000
 11
0.3504
 21
-0.5000
 31
0.0000
  0
LINE
  8
2
 10
0.3504
 20
-0.5000
 30
0.0000
 11
0.3504
 21
-0.6004
 31
0.0000
  0
LINE
  8
2
 10
0.8248
 20
0.4744
 30
0.0000
 11
1.0748
 21
0.4744
 31
0.0000
  0
LINE
  8
2
 10
1.0748
 20
0.4744
 30
0.0000
 11
1.0748
 21
0.5748
 31
0.0000
  0
LINE
  8
2
 10
1.0748
 20
0.5748
 30
0.0000
 11
0.8248
 21
0.5748
 31
0.0000
  0
LINE
  8
2
 10
0.8248
 20
0.5748
 30
0.0000
 11
0.8248
 21
0.4744
 31
0.0000
  0
LINE
  8
2
 10
2.1348
 20
-0.6850
 30
0.0000
 11
2.3150
 21
-0.6850
 31
0.0000
  0
LINE
  8
2
 10
2.3150
 20
-0.6850
 30
0.0000
 11
2.3150
 21
-0.1654
 31
0.0000
  0
LINE
  8
2
 10
2.3150
 20
-0.1654
 30
0.0000
 11
2.1348
 21
-0.1654
 31
0.0000
  0
LINE
  8
2
 10
2.1348
 20
-0.1654
 30
0.0000
 11
2.1348
 21
-0.6850
 31
0.0000
  0
ARC
  8
2
 10
2.9154
 20
2.1703
 30
0.0000
 40
0.0600
 50
180.0000
 51
240.0000
  0
ARC
  8
2
 10
2.7402
 20
1.9793
 30
0.0000
 40
0.0600
 50
180.0000
 51
270.0000
  0
ARC
  8
2
 10
2.7953
 20
2.3701
 30
0.0000
 40
0.0600
 50
0.0000
 51
90.0000
  0
ARC
  8
2
 10
2.5502
 20
2.3701
 30
0.0000
 40
0.0600
 50
90.0000
 51
180.0000
  0
ARC
  8
2
 10
2.5502
 20
2.1703
 30
0.0000
 40
0.0600
 50
180.0000
 51
270.0000
  0
LINE
  8
2
 10
2.5502
 20
2.4301
 30
0.0000
 11
2.7953
 21
2.4301
 31
0.0000
  0
LINE
  8
2
 10
2.8553
 20
2.3701
 30
0.0000
 11
2.8553
 21
2.1703
 31
0.0000
  0
LINE
  8
2
 10
2.4902
 20
2.3701
 30
0.0000
 11
2.4902
 21
2.1703
 31
0.0000
  0
LINE
  8
2
 10
2.5502
 20
2.1102
 30
0.0000
 11
2.6801
 21
2.1102
 31
0.0000
  0
LINE
  8
2
 10
2.6801
 20
2.1102
 30
0.0000
 11
2.6801
 21
1.9793
 31
0.0000
  0
LINE
  8
2
 10
2.9154
 20
0.9350
 30
0.0000
 11
2.8848
 21
0.9350
 31
0.0000
  0
LINE
  8
2
 10
2.8848
 20
0.3346
 30
0.0000
 11
2.9154
 21
0.3346
 31
0.0000
  0
LINE
  8
2
 10
2.9154
 20
0.2549
 30
0.0000
 11
2.8848
 21
0.2549
 31
0.0000
  0
LINE
  8
2
 10
2.8848
 20
-0.3455
 30
0.0000
 11
2.9154
 21
-0.3455
 31
0.0000
  0
LINE
  8
2
 10
2.9154
 20
-0.4252
 30
0.0000
 11
2.8848
 21
-0.4252
 31
0.0000
  0
LINE
  8
2
 10
2.8848
 20
-1.0256
 30
0.0000
 11
2.9154
 21
-1.0256
 31
0.0000
  0
LINE
  8
2
 10
2.9154
 20
1.9203
 30
0.0000
 11
2.7402
 21
1.9203
 31
0.0000
  0
LINE
  8
2
 10
2.8848
 20
1.0148
 30
0.0000
 11
2.9154
 21
1.0148
 31
0.0000
  0
LINE
  8
2
 10
2.8848
 20
2.1496
 30
0.0000
 11
2.8848
 21
-2.5000
 31
0.0000
  0
LINE
  8
2
 10
2.9154
 20
-2.5000
 30
0.0000
 11
2.9154
 21
2.1496
 31
0.0000
  0
LINE
  8
2
 10
2.8848
 20
-2.4006
 30
0.0000
 11
2.9154
 21
-2.3504
 31
0.0000
  0
LINE
  8
2
 10
2.8848
 20
-2.3504
 30
0.0000
 11
2.9154
 21
-2.3002
 31
0.0000
  0
LINE
  8
2
 10
2.8848
 20
-2.4498
 30
0.0000
 11
2.9154
 21
-2.4006
 31
0.0000
  0
LINE
  8
2
 10
2.8848
 20
-2.5000
 30
0.0000
 11
2.9154
 21
-2.4498
 31
0.0000
  0
LINE
  8
2
 10
2.8848
 20
-2.3002
 30
0.0000
 11
2.9154
 21
-2.2500
 31
0.0000
  0
LINE
  8
2
 10
2.8848
 20
-2.2500
 30
0.0000
 11
2.9154
 21
-2.1998
 31
0.0000
  0
LINE
  8
2
 10
2.8848
 20
-2.1506
 30
0.0000
 11
2.9154
 21
-2.1004
 31
0.0000
  0
LINE
  8
2
 10
2.8848
 20
-2.1998
 30
0.0000
 11
2.9154
 21
-2.1506
 31
0.0000
  0
LINE
  8
2
 10
2.8848
 20
-2.1004
 30
0.0000
 11
2.9154
 21
-2.0502
 31
0.0000
  0
LINE
  8
2
 10
2.8848
 20
-2.0502
 30
0.0000
 11
2.9154
 21
-2.0000
 31
0.0000
  0
LINE
  8
2
 10
2.8848
 20
-1.9498
 30
0.0000
 11
2.9154
 21
-1.9006
 31
0.0000
  0
LINE
  8
2
 10
2.8848
 20
-2.0000
 30
0.0000
 11
2.9154
 21
-1.9498
 31
0.0000
  0
LINE
  8
2
 10
2.8848
 20
-1.9006
 30
0.0000
 11
2.9154
 21
-1.8504
 31
0.0000
  0
LINE
  8
2
 10
2.8848
 20
-1.8504
 30
0.0000
 11
2.9154
 21
-1.8002
 31
0.0000
  0
LINE
  8
2
 10
2.8848
 20
-1.7500
 30
0.0000
 11
2.9154
 21
-1.6998
 31
0.0000
  0
LINE
  8
2
 10
2.8848
 20
-1.8002
 30
0.0000
 11
2.9154
 21
-1.7500
 31
0.0000
  0
LINE
  8
2
 10
2.8848
 20
-1.6998
 30
0.0000
 11
2.9154
 21
-1.6506
 31
0.0000
  0
LINE
  8
2
 10
2.8848
 20
-1.6506
 30
0.0000
 11
2.9154
 21
-1.6004
 31
0.0000
  0
LINE
  8
2
 10
2.8848
 20
-1.5502
 30
0.0000
 11
2.9154
 21
-1.5000
 31
0.0000
  0
LINE
  8
2
 10
2.8848
 20
-1.6004
 30
0.0000
 11
2.9154
 21
-1.5502
 31
0.0000
  0
LINE
  8
2
 10
2.8848
 20
-1.5000
 30
0.0000
 11
2.9154
 21
-1.4498
 31
0.0000
  0
LINE
  8
2
 10
2.8848
 20
-1.4498
 30
0.0000
 11
2.9154
 21
-1.4006
 31
0.0000
  0
LINE
  8
2
 10
2.8848
 20
-1.3504
 30
0.0000
 11
2.9154
 21
-1.3002
 31
0.0000
  0
LINE
  8
2
 10
2.8848
 20
-1.4006
 30
0.0000
 11
2.9154
 21
-1.3504
 31
0.0000
  0
LINE
  8
2
 10
2.8848
 20
-1.3002
 30
0.0000
 11
2.9154
 21
-1.2500
 31
0.0000
  0
LINE
  8
2
 10
2.8848
 20
-1.2500
 30
0.0000
 11
2.9154
 21
-1.1998
 31
0.0000
  0
LINE
  8
2
 10
2.8848
 20
-1.1506
 30
0.0000
 11
2.9154
 21
-1.1004
 31
0.0000
  0
LINE
  8
2
 10
2.8848
 20
-1.1998
 30
0.0000
 11
2.9154
 21
-1.1506
 31
0.0000
  0
LINE
  8
2
 10
2.8848
 20
-1.1004
 30
0.0000
 11
2.9154
 21
-1.0502
 31
0.0000
  0
LINE
  8
2
 10
2.8848
 20
-1.0502
 30
0.0000
 11
2.9006
 21
-1.0256
 31
0.0000
  0
LINE
  8
2
 10
2.9006
 20
-0.4252
 30
0.0000
 11
2.9154
 21
-0.4006
 31
0.0000
  0
LINE
  8
2
 10
2.8848
 20
-0.3504
 30
0.0000
 11
2.8898
 21
-0.3455
 31
0.0000
  0
LINE
  8
2
 10
2.8848
 20
-0.4006
 30
0.0000
 11
2.9154
 21
-0.3504
 31
0.0000
  0
LINE
  8
2
 10
3.3248
 20
2.1801
 30
0.0000
 11
3.3553
 21
2.2293
 31
0.0000
  0
LINE
  8
2
 10
3.3553
 20
2.1703
 30
0.0000
 11
3.3848
 21
2.2293
 31
0.0000
  0
LINE
  8
2
 10
3.2756
 20
2.1998
 30
0.0000
 11
3.2953
 21
2.2293
 31
0.0000
  0
LINE
  8
2
 10
3.2953
 20
2.1900
 30
0.0000
 11
3.3248
 21
2.2293
 31
0.0000
  0
LINE
  8
2
 10
3.2156
 20
2.1998
 30
0.0000
 11
3.2352
 21
2.2293
 31
0.0000
  0
LINE
  8
2
 10
3.2451
 20
2.1998
 30
0.0000
 11
3.2648
 21
2.2293
 31
0.0000
  0
LINE
  8
2
 10
3.0049
 20
2.1998
 30
0.0000
 11
3.0148
 21
2.2146
 31
0.0000
  0
LINE
  8
2
 10
2.9754
 20
2.1998
 30
0.0000
 11
2.9951
 21
2.2293
 31
0.0000
  0
LINE
  8
2
 10
2.9449
 20
2.1998
 30
0.0000
 11
2.9656
 21
2.2293
 31
0.0000
  0
LINE
  8
2
 10
2.8848
 20
2.0994
 30
0.0000
 11
2.9154
 21
2.1496
 31
0.0000
  0
LINE
  8
2
 10
2.8848
 20
2.1496
 30
0.0000
 11
2.9252
 21
2.2195
 31
0.0000
  0
LINE
  8
2
 10
2.8848
 20
1.6998
 30
0.0000
 11
2.9154
 21
1.7500
 31
0.0000
  0
LINE
  8
2
 10
2.8848
 20
1.7500
 30
0.0000
 11
2.9154
 21
1.8002
 31
0.0000
  0
LINE
  8
2
 10
2.8848
 20
1.8494
 30
0.0000
 11
2.9154
 21
1.8996
 31
0.0000
  0
LINE
  8
2
 10
2.8848
 20
1.8002
 30
0.0000
 11
2.9154
 21
1.8494
 31
0.0000
  0
LINE
  8
2
 10
2.8848
 20
2.0000
 30
0.0000
 11
2.9154
 21
2.0502
 31
0.0000
  0
LINE
  8
2
 10
2.8848
 20
2.0502
 30
0.0000
 11
2.9154
 21
2.0994
 31
0.0000
  0
LINE
  8
2
 10
2.8848
 20
1.9498
 30
0.0000
 11
2.9154
 21
2.0000
 31
0.0000
  0
LINE
  8
2
 10
2.8848
 20
1.8996
 30
0.0000
 11
2.9154
 21
1.9498
 31
0.0000
  0
LINE
  8
2
 10
2.8957
 20
1.6152
 30
0.0000
 11
2.9154
 21
1.6496
 31
0.0000
  0
LINE
  8
2
 10
2.8848
 20
1.6496
 30
0.0000
 11
2.9154
 21
1.6998
 31
0.0000
  0
LINE
  8
2
 10
2.8848
 20
0.3002
 30
0.0000
 11
2.9055
 21
0.3346
 31
0.0000
  0
LINE
  8
2
 10
2.9656
 20
2.1998
 30
0.0000
 11
3.3848
 21
2.1998
 31
0.0000
  0
LINE
  8
2
 10
3.3848
 20
2.1998
 30
0.0000
 11
3.3848
 21
2.2293
 31
0.0000
  0
LINE
  8
2
 10
3.3848
 20
2.2293
 30
0.0000
 11
2.9656
 21
2.2293
 31
0.0000
  0
ARC
  8
2
 10
2.9656
 20
2.1496
 30
0.0000
 40
0.0797
 50
90.0000
 51
180.0000
  0
ARC
  8
2
 10
2.9656
 20
2.1496
 30
0.0000
 40
0.0502
 50
90.0000
 51
180.0000
  0
LINE
  8
2
 10
3.2156
 20
2.2293
 30
0.0000
 11
3.2156
 21
2.1998
 31
0.0000
  0
LINE
  8
2
 10
3.0148
 20
2.2293
 30
0.0000
 11
3.0148
 21
2.1998
 31
0.0000
  0
LINE
  8
2
 10
2.8848
 20
-2.1250
 30
0.0000
 11
2.9154
 21
-2.1250
 31
0.0000
  0
LINE
  8
2
 10
2.8848
 20
-2.2500
 30
0.0000
 11
2.9154
 21
-2.2500
 31
0.0000
  0
LINE
  8
2
 10
2.9154
 20
-2.5000
 30
0.0000
 11
2.8848
 21
-2.5000
 31
0.0000
  0
LINE
  8
2
 10
3.2648
 20
2.1998
 30
0.0000
 11
3.3848
 21
2.1594
 31
0.0000
  0
LINE
  8
2
 10
3.3848
 20
2.1594
 30
0.0000
 11
3.3848
 21
2.1998
 31
0.0000
  0
LINE
  8
2
 10
2.8848
 20
1.0000
 30
0.0000
 11
2.8957
 21
1.0148
 31
0.0000
  0
LINE
  8
2
 10
2.8848
 20
0.9498
 30
0.0000
 11
2.9154
 21
1.0000
 31
0.0000
  0
LINE
  8
2
 10
2.9055
 20
0.9350
 30
0.0000
 11
2.9154
 21
0.9498
 31
0.0000
  0
LINE
  8
2
 10
2.8898
 20
0.2549
 30
0.0000
 11
2.9154
 21
0.3002
 31
0.0000
  0
TEXT
  8
2
 10
-3.0030
 20
-2.1998
 30
0.0000
 40
0.0492
  1
COMPONENT SIDE (LAYER 1) SILKSCREEN
  0
CIRCLE
  8
3
 10
1.0502
 20
0.0502
 30
0.0000
 40
0.0295
  0
CIRCLE
  8
3
 10
1.1506
 20
0.0502
 30
0.0000
 40
0.0295
  0
CIRCLE
  8
3
 10
-3.1752
 20
0.6496
 30
0.0000
 40
0.0295
  0
CIRCLE
  8
3
 10
-3.0748
 20
0.6496
 30
0.0000
 40
0.0295
  0
CIRCLE
  8
3
 10
-3.1752
 20
1.8494
 30
0.0000
 40
0.0295
  0
CIRCLE
  8
3
 10
-3.0748
 20
1.8494
 30
0.0000
 40
0.0295
  0
CIRCLE
  8
3
 10
-1.0000
 20
0.5246
 30
0.0000
 40
0.0295
  0
CIRCLE
  8
3
 10
-1.0000
 20
0.4252
 30
0.0000
 40
0.0295
  0
CIRCLE
  8
3
 10
-3.1752
 20
1.2500
 30
0.0000
 40
0.0295
  0
CIRCLE
  8
3
 10
-3.0748
 20
1.2500
 30
0.0000
 40
0.0295
  0
CIRCLE
  8
3
 10
-1.7746
 20
1.2500
 30
0.0000
 40
0.0295
  0
CIRCLE
  8
3
 10
-1.6752
 20
1.2500
 30
0.0000
 40
0.0295
  0
CIRCLE
  8
3
 10
0.1506
 20
-0.1004
 30
0.0000
 40
0.0295
  0
CIRCLE
  8
3
 10
0.1506
 20
-0.1998
 30
0.0000
 40
0.0295
  0
CIRCLE
  8
3
 10
-1.7746
 20
0.6496
 30
0.0000
 40
0.0295
  0
CIRCLE
  8
3
 10
-1.6752
 20
0.6496
 30
0.0000
 40
0.0295
  0
CIRCLE
  8
3
 10
-0.0246
 20
-0.5502
 30
0.0000
 40
0.0295
  0
CIRCLE
  8
3
 10
0.0748
 20
-0.5502
 30
0.0000
 40
0.0295
  0
CIRCLE
  8
3
 10
1.0502
 20
1.9498
 30
0.0000
 40
0.0295
  0
CIRCLE
  8
3
 10
1.1506
 20
1.9498
 30
0.0000
 40
0.0295
  0
LINE
  8
3
 10
1.2805
 20
0.7953
 30
0.0000
 11
1.2805
 21
0.8543
 31
0.0000
  0
LINE
  8
3
 10
1.2805
 20
0.8543
 30
0.0000
 11
1.2205
 21
0.8543
 31
0.0000
  0
LINE
  8
3
 10
1.2205
 20
0.8543
 30
0.0000
 11
1.2205
 21
0.7953
 31
0.0000
  0
LINE
  8
3
 10
1.2205
 20
0.7953
 30
0.0000
 11
1.2805
 21
0.7953
 31
0.0000
  0
CIRCLE
  8
3
 10
1.3504
 20
0.8248
 30
0.0000
 40
0.0295
  0
CIRCLE
  8
3
 10
1.4498
 20
0.8248
 30
0.0000
 40
0.0295
  0
CIRCLE
  8
3
 10
1.5502
 20
0.8248
 30
0.0000
 40
0.0295
  0
CIRCLE
  8
3
 10
1.6506
 20
0.8248
 30
0.0000
 40
0.0295
  0
CIRCLE
  8
3
 10
1.7500
 20
0.8248
 30
0.0000
 40
0.0295
  0
CIRCLE
  8
3
 10
1.8504
 20
0.8248
 30
0.0000
 40
0.0295
  0
CIRCLE
  8
3
 10
1.9498
 20
0.8248
 30
0.0000
 40
0.0295
  0
CIRCLE
  8
3
 10
1.9498
 20
1.1250
 30
0.0000
 40
0.0295
  0
CIRCLE
  8
3
 10
1.8504
 20
1.1250
 30
0.0000
 40
0.0295
  0
CIRCLE
  8
3
 10
1.7500
 20
1.1250
 30
0.0000
 40
0.0295
  0
CIRCLE
  8
3
 10
1.6506
 20
1.1250
 30
0.0000
 40
0.0295
  0
CIRCLE
  8
3
 10
1.5502
 20
1.1250
 30
0.0000
 40
0.0295
  0
CIRCLE
  8
3
 10
1.4498
 20
1.1250
 30
0.0000
 40
0.0295
  0
CIRCLE
  8
3
 10
1.3504
 20
1.1250
 30
0.0000
 40
0.0295
  0
CIRCLE
  8
3
 10
1.2500
 20
1.1250
 30
0.0000
 40
0.0295
  0
LINE
  8
3
 10
-3.1447
 20
-0.4055
 30
0.0000
 11
-3.1447
 21
-0.3455
 31
0.0000
  0
LINE
  8
3
 10
-3.1447
 20
-0.3455
 30
0.0000
 11
-3.2047
 21
-0.3455
 31
0.0000
  0
LINE
  8
3
 10
-3.2047
 20
-0.3455
 30
0.0000
 11
-3.2047
 21
-0.4055
 31
0.0000
  0
LINE
  8
3
 10
-3.2047
 20
-0.4055
 30
0.0000
 11
-3.1447
 21
-0.4055
 31
0.0000
  0
CIRCLE
  8
3
 10
-3.0748
 20
-0.3750
 30
0.0000
 40
0.0295
  0
CIRCLE
  8
3
 10
-2.9744
 20
-0.3750
 30
0.0000
 40
0.0295
  0
CIRCLE
  8
3
 10
-2.8750
 20
-0.3750
 30
0.0000
 40
0.0295
  0
CIRCLE
  8
3
 10
-2.7746
 20
-0.3750
 30
0.0000
 40
0.0295
  0
CIRCLE
  8
3
 10
-2.6752
 20
-0.3750
 30
0.0000
 40
0.0295
  0
CIRCLE
  8
3
 10
-2.5748
 20
-0.3750
 30
0.0000
 40
0.0295
  0
CIRCLE
  8
3
 10
-2.4744
 20
-0.3750
 30
0.0000
 40
0.0295
  0
CIRCLE
  8
3
 10
-2.4744
 20
-0.0748
 30
0.0000
 40
0.0295
  0
CIRCLE
  8
3
 10
-2.5748
 20
-0.0748
 30
0.0000
 40
0.0295
  0
CIRCLE
  8
3
 10
-2.6752
 20
-0.0748
 30
0.0000
 40
0.0295
  0
CIRCLE
  8
3
 10
-2.7746
 20
-0.0748
 30
0.0000
 40
0.0295
  0
CIRCLE
  8
3
 10
-2.8750
 20
-0.0748
 30
0.0000
 40
0.0295
  0
CIRCLE
  8
3
 10
-2.9744
 20
-0.0748
 30
0.0000
 40
0.0295
  0
CIRCLE
  8
3
 10
-3.0748
 20
-0.0748
 30
0.0000
 40
0.0295
  0
CIRCLE
  8
3
 10
-3.1752
 20
-0.0748
 30
0.0000
 40
0.0295
  0
LINE
  8
3
 10
-0.5049
 20
2.3051
 30
0.0000
 11
-0.5049
 21
2.2451
 31
0.0000
  0
LINE
  8
3
 10
-0.5049
 20
2.2451
 30
0.0000
 11
-0.4449
 21
2.2451
 31
0.0000
  0
LINE
  8
3
 10
-0.4449
 20
2.2451
 30
0.0000
 11
-0.4449
 21
2.3051
 31
0.0000
  0
LINE
  8
3
 10
-0.4449
 20
2.3051
 30
0.0000
 11
-0.5049
 21
2.3051
 31
0.0000
  0
CIRCLE
  8
3
 10
-0.5748
 20
2.2746
 30
0.0000
 40
0.0295
  0
CIRCLE
  8
3
 10
-0.6752
 20
2.2746
 30
0.0000
 40
0.0295
  0
CIRCLE
  8
3
 10
-0.7746
 20
2.2746
 30
0.0000
 40
0.0295
  0
CIRCLE
  8
3
 10
-0.8750
 20
2.2746
 30
0.0000
 40
0.0295
  0
CIRCLE
  8
3
 10
-0.9744
 20
2.2746
 30
0.0000
 40
0.0295
  0
CIRCLE
  8
3
 10
-1.0748
 20
2.2746
 30
0.0000
 40
0.0295
  0
CIRCLE
  8
3
 10
-1.1752
 20
2.2746
 30
0.0000
 40
0.0295
  0
CIRCLE
  8
3
 10
-1.1752
 20
1.9744
 30
0.0000
 40
0.0295
  0
CIRCLE
  8
3
 10
-1.0748
 20
1.9744
 30
0.0000
 40
0.0295
  0
CIRCLE
  8
3
 10
-0.9744
 20
1.9744
 30
0.0000
 40
0.0295
  0
CIRCLE
  8
3
 10
-0.8750
 20
1.9744
 30
0.0000
 40
0.0295
  0
CIRCLE
  8
3
 10
-0.7746
 20
1.9744
 30
0.0000
 40
0.0295
  0
CIRCLE
  8
3
 10
-0.6752
 20
1.9744
 30
0.0000
 40
0.0295
  0
CIRCLE
  8
3
 10
-0.5748
 20
1.9744
 30
0.0000
 40
0.0295
  0
CIRCLE
  8
3
 10
-0.4744
 20
1.9744
 30
0.0000
 40
0.0295
  0
LINE
  8
3
 10
1.2805
 20
0.1949
 30
0.0000
 11
1.2805
 21
0.2549
 31
0.0000
  0
LINE
  8
3
 10
1.2805
 20
0.2549
 30
0.0000
 11
1.2205
 21
0.2549
 31
0.0000
  0
LINE
  8
3
 10
1.2205
 20
0.2549
 30
0.0000
 11
1.2205
 21
0.1949
 31
0.0000
  0
LINE
  8
3
 10
1.2205
 20
0.1949
 30
0.0000
 11
1.2805
 21
0.1949
 31
0.0000
  0
CIRCLE
  8
3
 10
1.3504
 20
0.2244
 30
0.0000
 40
0.0295
  0
CIRCLE
  8
3
 10
1.4498
 20
0.2244
 30
0.0000
 40
0.0295
  0
CIRCLE
  8
3
 10
1.5502
 20
0.2244
 30
0.0000
 40
0.0295
  0
CIRCLE
  8
3
 10
1.6506
 20
0.2244
 30
0.0000
 40
0.0295
  0
CIRCLE
  8
3
 10
1.7500
 20
0.2244
 30
0.0000
 40
0.0295
  0
CIRCLE
  8
3
 10
1.8504
 20
0.2244
 30
0.0000
 40
0.0295
  0
CIRCLE
  8
3
 10
1.9498
 20
0.2244
 30
0.0000
 40
0.0295
  0
CIRCLE
  8
3
 10
1.9498
 20
0.5246
 30
0.0000
 40
0.0295
  0
CIRCLE
  8
3
 10
1.8504
 20
0.5246
 30
0.0000
 40
0.0295
  0
CIRCLE
  8
3
 10
1.7500
 20
0.5246
 30
0.0000
 40
0.0295
  0
CIRCLE
  8
3
 10
1.6506
 20
0.5246
 30
0.0000
 40
0.0295
  0
CIRCLE
  8
3
 10
1.5502
 20
0.5246
 30
0.0000
 40
0.0295
  0
CIRCLE
  8
3
 10
1.4498
 20
0.5246
 30
0.0000
 40
0.0295
  0
CIRCLE
  8
3
 10
1.3504
 20
0.5246
 30
0.0000
 40
0.0295
  0
CIRCLE
  8
3
 10
1.2500
 20
0.5246
 30
0.0000
 40
0.0295
  0
LINE
  8
3
 10
0.7953
 20
2.3051
 30
0.0000
 11
0.7953
 21
2.2451
 31
0.0000
  0
LINE
  8
3
 10
0.7953
 20
2.2451
 30
0.0000
 11
0.8553
 21
2.2451
 31
0.0000
  0
LINE
  8
3
 10
0.8553
 20
2.2451
 30
0.0000
 11
0.8553
 21
2.3051
 31
0.0000
  0
LINE
  8
3
 10
0.8553
 20
2.3051
 30
0.0000
 11
0.7953
 21
2.3051
 31
0.0000
  0
CIRCLE
  8
3
 10
0.7254
 20
2.2746
 30
0.0000
 40
0.0295
  0
CIRCLE
  8
3
 10
0.6250
 20
2.2746
 30
0.0000
 40
0.0295
  0
CIRCLE
  8
3
 10
0.5256
 20
2.2746
 30
0.0000
 40
0.0295
  0
CIRCLE
  8
3
 10
0.4252
 20
2.2746
 30
0.0000
 40
0.0295
  0
CIRCLE
  8
3
 10
0.3248
 20
2.2746
 30
0.0000
 40
0.0295
  0
CIRCLE
  8
3
 10
0.2254
 20
2.2746
 30
0.0000
 40
0.0295
  0
CIRCLE
  8
3
 10
0.1250
 20
2.2746
 30
0.0000
 40
0.0295
  0
CIRCLE
  8
3
 10
0.0256
 20
2.2746
 30
0.0000
 40
0.0295
  0
CIRCLE
  8
3
 10
0.0256
 20
1.6752
 30
0.0000
 40
0.0295
  0
CIRCLE
  8
3
 10
0.1250
 20
1.6752
 30
0.0000
 40
0.0295
  0
CIRCLE
  8
3
 10
0.2254
 20
1.6752
 30
0.0000
 40
0.0295
  0
CIRCLE
  8
3
 10
0.3248
 20
1.6752
 30
0.0000
 40
0.0295
  0
CIRCLE
  8
3
 10
0.4252
 20
1.6752
 30
0.0000
 40
0.0295
  0
CIRCLE
  8
3
 10
0.5256
 20
1.6752
 30
0.0000
 40
0.0295
  0
CIRCLE
  8
3
 10
0.6250
 20
1.6752
 30
0.0000
 40
0.0295
  0
CIRCLE
  8
3
 10
0.7254
 20
1.6752
 30
0.0000
 40
0.0295
  0
CIRCLE
  8
3
 10
0.8248
 20
1.6752
 30
0.0000
 40
0.0295
  0
CIRCLE
  8
3
 10
-0.0748
 20
2.2746
 30
0.0000
 40
0.0295
  0
CIRCLE
  8
3
 10
-0.1752
 20
2.2746
 30
0.0000
 40
0.0295
  0
CIRCLE
  8
3
 10
-0.2746
 20
2.2746
 30
0.0000
 40
0.0295
  0
CIRCLE
  8
3
 10
-0.2746
 20
1.6752
 30
0.0000
 40
0.0295
  0
CIRCLE
  8
3
 10
-0.1752
 20
1.6752
 30
0.0000
 40
0.0295
  0
CIRCLE
  8
3
 10
-0.0748
 20
1.6752
 30
0.0000
 40
0.0295
  0
LINE
  8
3
 10
-3.1447
 20
1.3947
 30
0.0000
 11
-3.1447
 21
1.4547
 31
0.0000
  0
LINE
  8
3
 10
-3.1447
 20
1.4547
 30
0.0000
 11
-3.2047
 21
1.4547
 31
0.0000
  0
LINE
  8
3
 10
-3.2047
 20
1.4547
 30
0.0000
 11
-3.2047
 21
1.3947
 31
0.0000
  0
LINE
  8
3
 10
-3.2047
 20
1.3947
 30
0.0000
 11
-3.1447
 21
1.3947
 31
0.0000
  0
CIRCLE
  8
3
 10
-3.0748
 20
1.4252
 30
0.0000
 40
0.0295
  0
CIRCLE
  8
3
 10
-2.9744
 20
1.4252
 30
0.0000
 40
0.0295
  0
CIRCLE
  8
3
 10
-2.8750
 20
1.4252
 30
0.0000
 40
0.0295
  0
CIRCLE
  8
3
 10
-2.7746
 20
1.4252
 30
0.0000
 40
0.0295
  0
CIRCLE
  8
3
 10
-2.6752
 20
1.4252
 30
0.0000
 40
0.0295
  0
CIRCLE
  8
3
 10
-2.5748
 20
1.4252
 30
0.0000
 40
0.0295
  0
CIRCLE
  8
3
 10
-2.5748
 20
1.7244
 30
0.0000
 40
0.0295
  0
CIRCLE
  8
3
 10
-2.6752
 20
1.7244
 30
0.0000
 40
0.0295
  0
CIRCLE
  8
3
 10
-2.7746
 20
1.7244
 30
0.0000
 40
0.0295
  0
CIRCLE
  8
3
 10
-2.8750
 20
1.7244
 30
0.0000
 40
0.0295
  0
CIRCLE
  8
3
 10
-2.9744
 20
1.7244
 30
0.0000
 40
0.0295
  0
CIRCLE
  8
3
 10
-3.0748
 20
1.7244
 30
0.0000
 40
0.0295
  0
CIRCLE
  8
3
 10
-3.1752
 20
1.7244
 30
0.0000
 40
0.0295
  0
LINE
  8
3
 10
-0.8445
 20
0.1949
 30
0.0000
 11
-0.8445
 21
0.2549
 31
0.0000
  0
LINE
  8
3
 10
-0.8445
 20
0.2549
 30
0.0000
 11
-0.9045
 21
0.2549
 31
0.0000
  0
LINE
  8
3
 10
-0.9045
 20
0.2549
 30
0.0000
 11
-0.9045
 21
0.1949
 31
0.0000
  0
LINE
  8
3
 10
-0.9045
 20
0.1949
 30
0.0000
 11
-0.8445
 21
0.1949
 31
0.0000
  0
CIRCLE
  8
3
 10
-0.7746
 20
0.2244
 30
0.0000
 40
0.0295
  0
CIRCLE
  8
3
 10
-0.6752
 20
0.2244
 30
0.0000
 40
0.0295
  0
CIRCLE
  8
3
 10
-0.5748
 20
0.2244
 30
0.0000
 40
0.0295
  0
CIRCLE
  8
3
 10
-0.4744
 20
0.2244
 30
0.0000
 40
0.0295
  0
CIRCLE
  8
3
 10
-0.3750
 20
0.2244
 30
0.0000
 40
0.0295
  0
CIRCLE
  8
3
 10
-0.2746
 20
0.2244
 30
0.0000
 40
0.0295
  0
CIRCLE
  8
3
 10
-0.2746
 20
0.5246
 30
0.0000
 40
0.0295
  0
CIRCLE
  8
3
 10
-0.3750
 20
0.5246
 30
0.0000
 40
0.0295
  0
CIRCLE
  8
3
 10
-0.4744
 20
0.5246
 30
0.0000
 40
0.0295
  0
CIRCLE
  8
3
 10
-0.5748
 20
0.5246
 30
0.0000
 40
0.0295
  0
CIRCLE
  8
3
 10
-0.6752
 20
0.5246
 30
0.0000
 40
0.0295
  0
CIRCLE
  8
3
 10
-0.7746
 20
0.5246
 30
0.0000
 40
0.0295
  0
CIRCLE
  8
3
 10
-0.8750
 20
0.5246
 30
0.0000
 40
0.0295
  0
LINE
  8
3
 10
-3.1447
 20
0.7953
 30
0.0000
 11
-3.1447
 21
0.8543
 31
0.0000
  0
LINE
  8
3
 10
-3.1447
 20
0.8543
 30
0.0000
 11
-3.2047
 21
0.8543
 31
0.0000
  0
LINE
  8
3
 10
-3.2047
 20
0.8543
 30
0.0000
 11
-3.2047
 21
0.7953
 31
0.0000
  0
LINE
  8
3
 10
-3.2047
 20
0.7953
 30
0.0000
 11
-3.1447
 21
0.7953
 31
0.0000
  0
CIRCLE
  8
3
 10
-3.0748
 20
0.8248
 30
0.0000
 40
0.0295
  0
CIRCLE
  8
3
 10
-2.9744
 20
0.8248
 30
0.0000
 40
0.0295
  0
CIRCLE
  8
3
 10
-2.8750
 20
0.8248
 30
0.0000
 40
0.0295
  0
CIRCLE
  8
3
 10
-2.7746
 20
0.8248
 30
0.0000
 40
0.0295
  0
CIRCLE
  8
3
 10
-2.6752
 20
0.8248
 30
0.0000
 40
0.0295
  0
CIRCLE
  8
3
 10
-2.5748
 20
0.8248
 30
0.0000
 40
0.0295
  0
CIRCLE
  8
3
 10
-2.5748
 20
1.1250
 30
0.0000
 40
0.0295
  0
CIRCLE
  8
3
 10
-2.6752
 20
1.1250
 30
0.0000
 40
0.0295
  0
CIRCLE
  8
3
 10
-2.7746
 20
1.1250
 30
0.0000
 40
0.0295
  0
CIRCLE
  8
3
 10
-2.8750
 20
1.1250
 30
0.0000
 40
0.0295
  0
CIRCLE
  8
3
 10
-2.9744
 20
1.1250
 30
0.0000
 40
0.0295
  0
CIRCLE
  8
3
 10
-3.0748
 20
1.1250
 30
0.0000
 40
0.0295
  0
CIRCLE
  8
3
 10
-3.1752
 20
1.1250
 30
0.0000
 40
0.0295
  0
LINE
  8
3
 10
-1.7451
 20
0.7953
 30
0.0000
 11
-1.7451
 21
0.8543
 31
0.0000
  0
LINE
  8
3
 10
-1.7451
 20
0.8543
 30
0.0000
 11
-1.8051
 21
0.8543
 31
0.0000
  0
LINE
  8
3
 10
-1.8051
 20
0.8543
 30
0.0000
 11
-1.8051
 21
0.7953
 31
0.0000
  0
LINE
  8
3
 10
-1.8051
 20
0.7953
 30
0.0000
 11
-1.7451
 21
0.7953
 31
0.0000
  0
CIRCLE
  8
3
 10
-1.6752
 20
0.8248
 30
0.0000
 40
0.0295
  0
CIRCLE
  8
3
 10
-1.5748
 20
0.8248
 30
0.0000
 40
0.0295
  0
CIRCLE
  8
3
 10
-1.4744
 20
0.8248
 30
0.0000
 40
0.0295
  0
CIRCLE
  8
3
 10
-1.3750
 20
0.8248
 30
0.0000
 40
0.0295
  0
CIRCLE
  8
3
 10
-1.2746
 20
0.8248
 30
0.0000
 40
0.0295
  0
CIRCLE
  8
3
 10
-1.1752
 20
0.8248
 30
0.0000
 40
0.0295
  0
CIRCLE
  8
3
 10
-1.1752
 20
1.1250
 30
0.0000
 40
0.0295
  0
CIRCLE
  8
3
 10
-1.2746
 20
1.1250
 30
0.0000
 40
0.0295
  0
CIRCLE
  8
3
 10
-1.3750
 20
1.1250
 30
0.0000
 40
0.0295
  0
CIRCLE
  8
3
 10
-1.4744
 20
1.1250
 30
0.0000
 40
0.0295
  0
CIRCLE
  8
3
 10
-1.5748
 20
1.1250
 30
0.0000
 40
0.0295
  0
CIRCLE
  8
3
 10
-1.6752
 20
1.1250
 30
0.0000
 40
0.0295
  0
CIRCLE
  8
3
 10
-1.7746
 20
1.1250
 30
0.0000
 40
0.0295
  0
LINE
  8
3
 10
-1.7451
 20
1.3947
 30
0.0000
 11
-1.7451
 21
1.4547
 31
0.0000
  0
LINE
  8
3
 10
-1.7451
 20
1.4547
 30
0.0000
 11
-1.8051
 21
1.4547
 31
0.0000
  0
LINE
  8
3
 10
-1.8051
 20
1.4547
 30
0.0000
 11
-1.8051
 21
1.3947
 31
0.0000
  0
LINE
  8
3
 10
-1.8051
 20
1.3947
 30
0.0000
 11
-1.7451
 21
1.3947
 31
0.0000
  0
CIRCLE
  8
3
 10
-1.6752
 20
1.4252
 30
0.0000
 40
0.0295
  0
CIRCLE
  8
3
 10
-1.5748
 20
1.4252
 30
0.0000
 40
0.0295
  0
CIRCLE
  8
3
 10
-1.4744
 20
1.4252
 30
0.0000
 40
0.0295
  0
CIRCLE
  8
3
 10
-1.3750
 20
1.4252
 30
0.0000
 40
0.0295
  0
CIRCLE
  8
3
 10
-1.2746
 20
1.4252
 30
0.0000
 40
0.0295
  0
CIRCLE
  8
3
 10
-1.1752
 20
1.4252
 30
0.0000
 40
0.0295
  0
CIRCLE
  8
3
 10
-1.1752
 20
1.7244
 30
0.0000
 40
0.0295
  0
CIRCLE
  8
3
 10
-1.2746
 20
1.7244
 30
0.0000
 40
0.0295
  0
CIRCLE
  8
3
 10
-1.3750
 20
1.7244
 30
0.0000
 40
0.0295
  0
CIRCLE
  8
3
 10
-1.4744
 20
1.7244
 30
0.0000
 40
0.0295
  0
CIRCLE
  8
3
 10
-1.5748
 20
1.7244
 30
0.0000
 40
0.0295
  0
CIRCLE
  8
3
 10
-1.6752
 20
1.7244
 30
0.0000
 40
0.0295
  0
CIRCLE
  8
3
 10
-1.7746
 20
1.7244
 30
0.0000
 40
0.0295
  0
LINE
  8
3
 10
0.3051
 20
-0.4055
 30
0.0000
 11
0.3051
 21
-0.3455
 31
0.0000
  0
LINE
  8
3
 10
0.3051
 20
-0.3455
 30
0.0000
 11
0.2451
 21
-0.3455
 31
0.0000
  0
LINE
  8
3
 10
0.2451
 20
-0.3455
 30
0.0000
 11
0.2451
 21
-0.4055
 31
0.0000
  0
LINE
  8
3
 10
0.2451
 20
-0.4055
 30
0.0000
 11
0.3051
 21
-0.4055
 31
0.0000
  0
CIRCLE
  8
3
 10
0.3750
 20
-0.3750
 30
0.0000
 40
0.0295
  0
CIRCLE
  8
3
 10
0.4754
 20
-0.3750
 30
0.0000
 40
0.0295
  0
CIRCLE
  8
3
 10
0.5748
 20
-0.3750
 30
0.0000
 40
0.0295
  0
CIRCLE
  8
3
 10
0.6752
 20
-0.3750
 30
0.0000
 40
0.0295
  0
CIRCLE
  8
3
 10
0.7756
 20
-0.3750
 30
0.0000
 40
0.0295
  0
CIRCLE
  8
3
 10
0.8750
 20
-0.3750
 30
0.0000
 40
0.0295
  0
CIRCLE
  8
3
 10
0.8750
 20
-0.0748
 30
0.0000
 40
0.0295
  0
CIRCLE
  8
3
 10
0.7756
 20
-0.0748
 30
0.0000
 40
0.0295
  0
CIRCLE
  8
3
 10
0.6752
 20
-0.0748
 30
0.0000
 40
0.0295
  0
CIRCLE
  8
3
 10
0.5748
 20
-0.0748
 30
0.0000
 40
0.0295
  0
CIRCLE
  8
3
 10
0.4754
 20
-0.0748
 30
0.0000
 40
0.0295
  0
CIRCLE
  8
3
 10
0.3750
 20
-0.0748
 30
0.0000
 40
0.0295
  0
CIRCLE
  8
3
 10
0.2756
 20
-0.0748
 30
0.0000
 40
0.0295
  0
LINE
  8
3
 10
-1.7451
 20
0.1949
 30
0.0000
 11
-1.7451
 21
0.2549
 31
0.0000
  0
LINE
  8
3
 10
-1.7451
 20
0.2549
 30
0.0000
 11
-1.8051
 21
0.2549
 31
0.0000
  0
LINE
  8
3
 10
-1.8051
 20
0.2549
 30
0.0000
 11
-1.8051
 21
0.1949
 31
0.0000
  0
LINE
  8
3
 10
-1.8051
 20
0.1949
 30
0.0000
 11
-1.7451
 21
0.1949
 31
0.0000
  0
CIRCLE
  8
3
 10
-1.6752
 20
0.2244
 30
0.0000
 40
0.0295
  0
CIRCLE
  8
3
 10
-1.5748
 20
0.2244
 30
0.0000
 40
0.0295
  0
CIRCLE
  8
3
 10
-1.4744
 20
0.2244
 30
0.0000
 40
0.0295
  0
CIRCLE
  8
3
 10
-1.3750
 20
0.2244
 30
0.0000
 40
0.0295
  0
CIRCLE
  8
3
 10
-1.2746
 20
0.2244
 30
0.0000
 40
0.0295
  0
CIRCLE
  8
3
 10
-1.1752
 20
0.2244
 30
0.0000
 40
0.0295
  0
CIRCLE
  8
3
 10
-1.1752
 20
0.5246
 30
0.0000
 40
0.0295
  0
CIRCLE
  8
3
 10
-1.2746
 20
0.5246
 30
0.0000
 40
0.0295
  0
CIRCLE
  8
3
 10
-1.3750
 20
0.5246
 30
0.0000
 40
0.0295
  0
CIRCLE
  8
3
 10
-1.4744
 20
0.5246
 30
0.0000
 40
0.0295
  0
CIRCLE
  8
3
 10
-1.5748
 20
0.5246
 30
0.0000
 40
0.0295
  0
CIRCLE
  8
3
 10
-1.6752
 20
0.5246
 30
0.0000
 40
0.0295
  0
CIRCLE
  8
3
 10
-1.7746
 20
0.5246
 30
0.0000
 40
0.0295
  0
LINE
  8
3
 10
-3.1447
 20
0.1949
 30
0.0000
 11
-3.1447
 21
0.2549
 31
0.0000
  0
LINE
  8
3
 10
-3.1447
 20
0.2549
 30
0.0000
 11
-3.2047
 21
0.2549
 31
0.0000
  0
LINE
  8
3
 10
-3.2047
 20
0.2549
 30
0.0000
 11
-3.2047
 21
0.1949
 31
0.0000
  0
LINE
  8
3
 10
-3.2047
 20
0.1949
 30
0.0000
 11
-3.1447
 21
0.1949
 31
0.0000
  0
CIRCLE
  8
3
 10
-3.0748
 20
0.2244
 30
0.0000
 40
0.0295
  0
CIRCLE
  8
3
 10
-2.9744
 20
0.2244
 30
0.0000
 40
0.0295
  0
CIRCLE
  8
3
 10
-2.8750
 20
0.2244
 30
0.0000
 40
0.0295
  0
CIRCLE
  8
3
 10
-2.7746
 20
0.2244
 30
0.0000
 40
0.0295
  0
CIRCLE
  8
3
 10
-2.6752
 20
0.2244
 30
0.0000
 40
0.0295
  0
CIRCLE
  8
3
 10
-2.5748
 20
0.2244
 30
0.0000
 40
0.0295
  0
CIRCLE
  8
3
 10
-2.5748
 20
0.5246
 30
0.0000
 40
0.0295
  0
CIRCLE
  8
3
 10
-2.6752
 20
0.5246
 30
0.0000
 40
0.0295
  0
CIRCLE
  8
3
 10
-2.7746
 20
0.5246
 30
0.0000
 40
0.0295
  0
CIRCLE
  8
3
 10
-2.8750
 20
0.5246
 30
0.0000
 40
0.0295
  0
CIRCLE
  8
3
 10
-2.9744
 20
0.5246
 30
0.0000
 40
0.0295
  0
CIRCLE
  8
3
 10
-3.0748
 20
0.5246
 30
0.0000
 40
0.0295
  0
CIRCLE
  8
3
 10
-3.1752
 20
0.5246
 30
0.0000
 40
0.0295
  0
LINE
  8
3
 10
-0.8445
 20
0.6949
 30
0.0000
 11
-0.8445
 21
0.7549
 31
0.0000
  0
LINE
  8
3
 10
-0.8445
 20
0.7549
 30
0.0000
 11
-0.9045
 21
0.7549
 31
0.0000
  0
LINE
  8
3
 10
-0.9045
 20
0.7549
 30
0.0000
 11
-0.9045
 21
0.6949
 31
0.0000
  0
LINE
  8
3
 10
-0.9045
 20
0.6949
 30
0.0000
 11
-0.8445
 21
0.6949
 31
0.0000
  0
CIRCLE
  8
3
 10
-0.7746
 20
0.7244
 30
0.0000
 40
0.0295
  0
CIRCLE
  8
3
 10
-0.6752
 20
0.7244
 30
0.0000
 40
0.0295
  0
CIRCLE
  8
3
 10
-0.5748
 20
0.7244
 30
0.0000
 40
0.0295
  0
CIRCLE
  8
3
 10
-0.4744
 20
0.7244
 30
0.0000
 40
0.0295
  0
CIRCLE
  8
3
 10
-0.3750
 20
0.7244
 30
0.0000
 40
0.0295
  0
CIRCLE
  8
3
 10
-0.2746
 20
0.7244
 30
0.0000
 40
0.0295
  0
CIRCLE
  8
3
 10
-0.1752
 20
0.7244
 30
0.0000
 40
0.0295
  0
CIRCLE
  8
3
 10
-0.0748
 20
0.7244
 30
0.0000
 40
0.0295
  0
CIRCLE
  8
3
 10
0.0256
 20
0.7244
 30
0.0000
 40
0.0295
  0
CIRCLE
  8
3
 10
0.1250
 20
0.7244
 30
0.0000
 40
0.0295
  0
CIRCLE
  8
3
 10
0.2254
 20
0.7244
 30
0.0000
 40
0.0295
  0
CIRCLE
  8
3
 10
0.3248
 20
0.7244
 30
0.0000
 40
0.0295
  0
CIRCLE
  8
3
 10
0.4252
 20
0.7244
 30
0.0000
 40
0.0295
  0
CIRCLE
  8
3
 10
0.5256
 20
0.7244
 30
0.0000
 40
0.0295
  0
CIRCLE
  8
3
 10
0.6250
 20
0.7244
 30
0.0000
 40
0.0295
  0
CIRCLE
  8
3
 10
0.7254
 20
0.7244
 30
0.0000
 40
0.0295
  0
CIRCLE
  8
3
 10
0.8248
 20
0.7244
 30
0.0000
 40
0.0295
  0
CIRCLE
  8
3
 10
0.9252
 20
0.7244
 30
0.0000
 40
0.0295
  0
CIRCLE
  8
3
 10
1.0256
 20
0.7244
 30
0.0000
 40
0.0295
  0
CIRCLE
  8
3
 10
1.0256
 20
1.3248
 30
0.0000
 40
0.0295
  0
CIRCLE
  8
3
 10
0.9252
 20
1.3248
 30
0.0000
 40
0.0295
  0
CIRCLE
  8
3
 10
0.8248
 20
1.3248
 30
0.0000
 40
0.0295
  0
CIRCLE
  8
3
 10
0.7254
 20
1.3248
 30
0.0000
 40
0.0295
  0
CIRCLE
  8
3
 10
0.6250
 20
1.3248
 30
0.0000
 40
0.0295
  0
CIRCLE
  8
3
 10
0.5256
 20
1.3248
 30
0.0000
 40
0.0295
  0
CIRCLE
  8
3
 10
0.4252
 20
1.3248
 30
0.0000
 40
0.0295
  0
CIRCLE
  8
3
 10
0.3248
 20
1.3248
 30
0.0000
 40
0.0295
  0
CIRCLE
  8
3
 10
0.2254
 20
1.3248
 30
0.0000
 40
0.0295
  0
CIRCLE
  8
3
 10
0.1250
 20
1.3248
 30
0.0000
 40
0.0295
  0
CIRCLE
  8
3
 10
0.0256
 20
1.3248
 30
0.0000
 40
0.0295
  0
CIRCLE
  8
3
 10
-0.0748
 20
1.3248
 30
0.0000
 40
0.0295
  0
CIRCLE
  8
3
 10
-0.1752
 20
1.3248
 30
0.0000
 40
0.0295
  0
CIRCLE
  8
3
 10
-0.2746
 20
1.3248
 30
0.0000
 40
0.0295
  0
CIRCLE
  8
3
 10
-0.3750
 20
1.3248
 30
0.0000
 40
0.0295
  0
CIRCLE
  8
3
 10
-0.4744
 20
1.3248
 30
0.0000
 40
0.0295
  0
CIRCLE
  8
3
 10
-0.5748
 20
1.3248
 30
0.0000
 40
0.0295
  0
CIRCLE
  8
3
 10
-0.6752
 20
1.3248
 30
0.0000
 40
0.0295
  0
CIRCLE
  8
3
 10
-0.7746
 20
1.3248
 30
0.0000
 40
0.0295
  0
CIRCLE
  8
3
 10
-0.8750
 20
1.3248
 30
0.0000
 40
0.0295
  0
CIRCLE
  8
3
 10
1.2500
 20
1.2746
 30
0.0000
 40
0.0295
  0
CIRCLE
  8
3
 10
1.3504
 20
1.2746
 30
0.0000
 40
0.0295
  0
CIRCLE
  8
3
 10
-3.1752
 20
0.0502
 30
0.0000
 40
0.0295
  0
CIRCLE
  8
3
 10
-3.0748
 20
0.0502
 30
0.0000
 40
0.0295
  0
CIRCLE
  8
3
 10
-0.4744
 20
1.8494
 30
0.0000
 40
0.0295
  0
CIRCLE
  8
3
 10
-0.5748
 20
1.8494
 30
0.0000
 40
0.0295
  0
CIRCLE
  8
3
 10
-1.7746
 20
1.8494
 30
0.0000
 40
0.0295
  0
CIRCLE
  8
3
 10
-1.6752
 20
1.8494
 30
0.0000
 40
0.0295
  0
CIRCLE
  8
3
 10
-2.0246
 20
1.1998
 30
0.0000
 40
0.0295
  0
CIRCLE
  8
3
 10
-2.1250
 20
1.1998
 30
0.0000
 40
0.0295
  0
CIRCLE
  8
3
 10
0.8248
 20
1.5246
 30
0.0000
 40
0.0295
  0
CIRCLE
  8
3
 10
0.7254
 20
1.5246
 30
0.0000
 40
0.0295
  0
CIRCLE
  8
3
 10
-1.7746
 20
0.0502
 30
0.0000
 40
0.0295
  0
CIRCLE
  8
3
 10
-1.6752
 20
0.0502
 30
0.0000
 40
0.0295
  0
CIRCLE
  8
3
 10
0.5256
 20
1.5246
 30
0.0000
 40
0.0295
  0
CIRCLE
  8
3
 10
0.6250
 20
1.5246
 30
0.0000
 40
0.0295
  0
CIRCLE
  8
3
 10
-1.7746
 20
-0.5502
 30
0.0000
 40
0.0295
  0
CIRCLE
  8
3
 10
-1.6752
 20
-0.5502
 30
0.0000
 40
0.0295
  0
CIRCLE
  8
3
 10
1.0502
 20
-0.5502
 30
0.0000
 40
0.0295
  0
CIRCLE
  8
3
 10
1.1506
 20
-0.5502
 30
0.0000
 40
0.0295
  0
CIRCLE
  8
3
 10
1.2500
 20
0.6496
 30
0.0000
 40
0.0295
  0
CIRCLE
  8
3
 10
1.3504
 20
0.6496
 30
0.0000
 40
0.0295
  0
LINE
  8
3
 10
1.0797
 20
-0.4055
 30
0.0000
 11
1.0797
 21
-0.3455
 31
0.0000
  0
LINE
  8
3
 10
1.0797
 20
-0.3455
 30
0.0000
 11
1.0207
 21
-0.3455
 31
0.0000
  0
LINE
  8
3
 10
1.0207
 20
-0.3455
 30
0.0000
 11
1.0207
 21
-0.4055
 31
0.0000
  0
LINE
  8
3
 10
1.0207
 20
-0.4055
 30
0.0000
 11
1.0797
 21
-0.4055
 31
0.0000
  0
CIRCLE
  8
3
 10
1.1506
 20
-0.3750
 30
0.0000
 40
0.0295
  0
CIRCLE
  8
3
 10
1.2500
 20
-0.3750
 30
0.0000
 40
0.0295
  0
CIRCLE
  8
3
 10
1.3504
 20
-0.3750
 30
0.0000
 40
0.0295
  0
CIRCLE
  8
3
 10
1.4498
 20
-0.3750
 30
0.0000
 40
0.0295
  0
CIRCLE
  8
3
 10
1.5502
 20
-0.3750
 30
0.0000
 40
0.0295
  0
CIRCLE
  8
3
 10
1.6506
 20
-0.3750
 30
0.0000
 40
0.0295
  0
CIRCLE
  8
3
 10
1.7500
 20
-0.3750
 30
0.0000
 40
0.0295
  0
CIRCLE
  8
3
 10
1.8504
 20
-0.3750
 30
0.0000
 40
0.0295
  0
CIRCLE
  8
3
 10
1.9498
 20
-0.3750
 30
0.0000
 40
0.0295
  0
CIRCLE
  8
3
 10
1.9498
 20
-0.0748
 30
0.0000
 40
0.0295
  0
CIRCLE
  8
3
 10
1.8504
 20
-0.0748
 30
0.0000
 40
0.0295
  0
CIRCLE
  8
3
 10
1.7500
 20
-0.0748
 30
0.0000
 40
0.0295
  0
CIRCLE
  8
3
 10
1.6506
 20
-0.0748
 30
0.0000
 40
0.0295
  0
CIRCLE
  8
3
 10
1.5502
 20
-0.0748
 30
0.0000
 40
0.0295
  0
CIRCLE
  8
3
 10
1.4498
 20
-0.0748
 30
0.0000
 40
0.0295
  0
CIRCLE
  8
3
 10
1.3504
 20
-0.0748
 30
0.0000
 40
0.0295
  0
CIRCLE
  8
3
 10
1.2500
 20
-0.0748
 30
0.0000
 40
0.0295
  0
CIRCLE
  8
3
 10
1.1506
 20
-0.0748
 30
0.0000
 40
0.0295
  0
CIRCLE
  8
3
 10
1.0502
 20
-0.0748
 30
0.0000
 40
0.0295
  0
LINE
  8
3
 10
0.0049
 20
-1.0049
 30
0.0000
 11
0.0049
 21
-0.9449
 31
0.0000
  0
LINE
  8
3
 10
0.0049
 20
-0.9449
 30
0.0000
 11
-0.0551
 21
-0.9449
 31
0.0000
  0
LINE
  8
3
 10
-0.0551
 20
-0.9449
 30
0.0000
 11
-0.0551
 21
-1.0049
 31
0.0000
  0
LINE
  8
3
 10
-0.0551
 20
-1.0049
 30
0.0000
 11
0.0049
 21
-1.0049
 31
0.0000
  0
CIRCLE
  8
3
 10
0.0748
 20
-0.9754
 30
0.0000
 40
0.0295
  0
CIRCLE
  8
3
 10
0.1752
 20
-0.9754
 30
0.0000
 40
0.0295
  0
CIRCLE
  8
3
 10
0.2756
 20
-0.9754
 30
0.0000
 40
0.0295
  0
CIRCLE
  8
3
 10
0.3750
 20
-0.9754
 30
0.0000
 40
0.0295
  0
CIRCLE
  8
3
 10
0.4754
 20
-0.9754
 30
0.0000
 40
0.0295
  0
CIRCLE
  8
3
 10
0.5748
 20
-0.9754
 30
0.0000
 40
0.0295
  0
CIRCLE
  8
3
 10
0.6752
 20
-0.9754
 30
0.0000
 40
0.0295
  0
CIRCLE
  8
3
 10
0.7756
 20
-0.9754
 30
0.0000
 40
0.0295
  0
CIRCLE
  8
3
 10
0.8750
 20
-0.9754
 30
0.0000
 40
0.0295
  0
CIRCLE
  8
3
 10
0.8750
 20
-0.6752
 30
0.0000
 40
0.0295
  0
CIRCLE
  8
3
 10
0.7756
 20
-0.6752
 30
0.0000
 40
0.0295
  0
CIRCLE
  8
3
 10
0.6752
 20
-0.6752
 30
0.0000
 40
0.0295
  0
CIRCLE
  8
3
 10
0.5748
 20
-0.6752
 30
0.0000
 40
0.0295
  0
CIRCLE
  8
3
 10
0.4754
 20
-0.6752
 30
0.0000
 40
0.0295
  0
CIRCLE
  8
3
 10
0.3750
 20
-0.6752
 30
0.0000
 40
0.0295
  0
CIRCLE
  8
3
 10
0.2756
 20
-0.6752
 30
0.0000
 40
0.0295
  0
CIRCLE
  8
3
 10
0.1752
 20
-0.6752
 30
0.0000
 40
0.0295
  0
CIRCLE
  8
3
 10
0.0748
 20
-0.6752
 30
0.0000
 40
0.0295
  0
CIRCLE
  8
3
 10
-0.0246
 20
-0.6752
 30
0.0000
 40
0.0295
  0
LINE
  8
3
 10
-1.7451
 20
-1.0049
 30
0.0000
 11
-1.7451
 21
-0.9449
 31
0.0000
  0
LINE
  8
3
 10
-1.7451
 20
-0.9449
 30
0.0000
 11
-1.8051
 21
-0.9449
 31
0.0000
  0
LINE
  8
3
 10
-1.8051
 20
-0.9449
 30
0.0000
 11
-1.8051
 21
-1.0049
 31
0.0000
  0
LINE
  8
3
 10
-1.8051
 20
-1.0049
 30
0.0000
 11
-1.7451
 21
-1.0049
 31
0.0000
  0
CIRCLE
  8
3
 10
-1.6752
 20
-0.9754
 30
0.0000
 40
0.0295
  0
CIRCLE
  8
3
 10
-1.5748
 20
-0.9754
 30
0.0000
 40
0.0295
  0
CIRCLE
  8
3
 10
-1.4744
 20
-0.9754
 30
0.0000
 40
0.0295
  0
CIRCLE
  8
3
 10
-1.3750
 20
-0.9754
 30
0.0000
 40
0.0295
  0
CIRCLE
  8
3
 10
-1.2746
 20
-0.9754
 30
0.0000
 40
0.0295
  0
CIRCLE
  8
3
 10
-1.1752
 20
-0.9754
 30
0.0000
 40
0.0295
  0
CIRCLE
  8
3
 10
-1.0748
 20
-0.9754
 30
0.0000
 40
0.0295
  0
CIRCLE
  8
3
 10
-0.9744
 20
-0.9754
 30
0.0000
 40
0.0295
  0
CIRCLE
  8
3
 10
-0.8750
 20
-0.9754
 30
0.0000
 40
0.0295
  0
CIRCLE
  8
3
 10
-0.8750
 20
-0.6752
 30
0.0000
 40
0.0295
  0
CIRCLE
  8
3
 10
-0.9744
 20
-0.6752
 30
0.0000
 40
0.0295
  0
CIRCLE
  8
3
 10
-1.0748
 20
-0.6752
 30
0.0000
 40
0.0295
  0
CIRCLE
  8
3
 10
-1.1752
 20
-0.6752
 30
0.0000
 40
0.0295
  0
CIRCLE
  8
3
 10
-1.2746
 20
-0.6752
 30
0.0000
 40
0.0295
  0
CIRCLE
  8
3
 10
-1.3750
 20
-0.6752
 30
0.0000
 40
0.0295
  0
CIRCLE
  8
3
 10
-1.4744
 20
-0.6752
 30
0.0000
 40
0.0295
  0
CIRCLE
  8
3
 10
-1.5748
 20
-0.6752
 30
0.0000
 40
0.0295
  0
CIRCLE
  8
3
 10
-1.6752
 20
-0.6752
 30
0.0000
 40
0.0295
  0
CIRCLE
  8
3
 10
-1.7746
 20
-0.6752
 30
0.0000
 40
0.0295
  0
LINE
  8
3
 10
1.0797
 20
-1.0049
 30
0.0000
 11
1.0797
 21
-0.9449
 31
0.0000
  0
LINE
  8
3
 10
1.0797
 20
-0.9449
 30
0.0000
 11
1.0207
 21
-0.9449
 31
0.0000
  0
LINE
  8
3
 10
1.0207
 20
-0.9449
 30
0.0000
 11
1.0207
 21
-1.0049
 31
0.0000
  0
LINE
  8
3
 10
1.0207
 20
-1.0049
 30
0.0000
 11
1.0797
 21
-1.0049
 31
0.0000
  0
CIRCLE
  8
3
 10
1.1506
 20
-0.9754
 30
0.0000
 40
0.0295
  0
CIRCLE
  8
3
 10
1.2500
 20
-0.9754
 30
0.0000
 40
0.0295
  0
CIRCLE
  8
3
 10
1.3504
 20
-0.9754
 30
0.0000
 40
0.0295
  0
CIRCLE
  8
3
 10
1.4498
 20
-0.9754
 30
0.0000
 40
0.0295
  0
CIRCLE
  8
3
 10
1.5502
 20
-0.9754
 30
0.0000
 40
0.0295
  0
CIRCLE
  8
3
 10
1.6506
 20
-0.9754
 30
0.0000
 40
0.0295
  0
CIRCLE
  8
3
 10
1.7500
 20
-0.9754
 30
0.0000
 40
0.0295
  0
CIRCLE
  8
3
 10
1.8504
 20
-0.9754
 30
0.0000
 40
0.0295
  0
CIRCLE
  8
3
 10
1.9498
 20
-0.9754
 30
0.0000
 40
0.0295
  0
CIRCLE
  8
3
 10
1.9498
 20
-0.6752
 30
0.0000
 40
0.0295
  0
CIRCLE
  8
3
 10
1.8504
 20
-0.6752
 30
0.0000
 40
0.0295
  0
CIRCLE
  8
3
 10
1.7500
 20
-0.6752
 30
0.0000
 40
0.0295
  0
CIRCLE
  8
3
 10
1.6506
 20
-0.6752
 30
0.0000
 40
0.0295
  0
CIRCLE
  8
3
 10
1.5502
 20
-0.6752
 30
0.0000
 40
0.0295
  0
CIRCLE
  8
3
 10
1.4498
 20
-0.6752
 30
0.0000
 40
0.0295
  0
CIRCLE
  8
3
 10
1.3504
 20
-0.6752
 30
0.0000
 40
0.0295
  0
CIRCLE
  8
3
 10
1.2500
 20
-0.6752
 30
0.0000
 40
0.0295
  0
CIRCLE
  8
3
 10
1.1506
 20
-0.6752
 30
0.0000
 40
0.0295
  0
CIRCLE
  8
3
 10
1.0502
 20
-0.6752
 30
0.0000
 40
0.0295
  0
LINE
  8
3
 10
1.0797
 20
1.4951
 30
0.0000
 11
1.0797
 21
1.5551
 31
0.0000
  0
LINE
  8
3
 10
1.0797
 20
1.5551
 30
0.0000
 11
1.0207
 21
1.5551
 31
0.0000
  0
LINE
  8
3
 10
1.0207
 20
1.5551
 30
0.0000
 11
1.0207
 21
1.4951
 31
0.0000
  0
LINE
  8
3
 10
1.0207
 20
1.4951
 30
0.0000
 11
1.0797
 21
1.4951
 31
0.0000
  0
CIRCLE
  8
3
 10
1.1506
 20
1.5246
 30
0.0000
 40
0.0295
  0
CIRCLE
  8
3
 10
1.2500
 20
1.5246
 30
0.0000
 40
0.0295
  0
CIRCLE
  8
3
 10
1.3504
 20
1.5246
 30
0.0000
 40
0.0295
  0
CIRCLE
  8
3
 10
1.4498
 20
1.5246
 30
0.0000
 40
0.0295
  0
CIRCLE
  8
3
 10
1.5502
 20
1.5246
 30
0.0000
 40
0.0295
  0
CIRCLE
  8
3
 10
1.6506
 20
1.5246
 30
0.0000
 40
0.0295
  0
CIRCLE
  8
3
 10
1.7500
 20
1.5246
 30
0.0000
 40
0.0295
  0
CIRCLE
  8
3
 10
1.8504
 20
1.5246
 30
0.0000
 40
0.0295
  0
CIRCLE
  8
3
 10
1.9498
 20
1.5246
 30
0.0000
 40
0.0295
  0
CIRCLE
  8
3
 10
1.9498
 20
1.8248
 30
0.0000
 40
0.0295
  0
CIRCLE
  8
3
 10
1.8504
 20
1.8248
 30
0.0000
 40
0.0295
  0
CIRCLE
  8
3
 10
1.7500
 20
1.8248
 30
0.0000
 40
0.0295
  0
CIRCLE
  8
3
 10
1.6506
 20
1.8248
 30
0.0000
 40
0.0295
  0
CIRCLE
  8
3
 10
1.5502
 20
1.8248
 30
0.0000
 40
0.0295
  0
CIRCLE
  8
3
 10
1.4498
 20
1.8248
 30
0.0000
 40
0.0295
  0
CIRCLE
  8
3
 10
1.3504
 20
1.8248
 30
0.0000
 40
0.0295
  0
CIRCLE
  8
3
 10
1.2500
 20
1.8248
 30
0.0000
 40
0.0295
  0
CIRCLE
  8
3
 10
1.1506
 20
1.8248
 30
0.0000
 40
0.0295
  0
CIRCLE
  8
3
 10
1.0502
 20
1.8248
 30
0.0000
 40
0.0295
  0
CIRCLE
  8
3
 10
1.1506
 20
0.4252
 30
0.0000
 40
0.0295
  0
CIRCLE
  8
3
 10
0.7500
 20
0.4252
 30
0.0000
 40
0.0295
  0
CIRCLE
  8
3
 10
1.1506
 20
0.3248
 30
0.0000
 40
0.0295
  0
CIRCLE
  8
3
 10
0.7500
 20
0.3248
 30
0.0000
 40
0.0295
  0
CIRCLE
  8
3
 10
1.1506
 20
0.2244
 30
0.0000
 40
0.0295
  0
CIRCLE
  8
3
 10
0.7500
 20
0.2244
 30
0.0000
 40
0.0295
  0
CIRCLE
  8
3
 10
-0.7746
 20
1.4498
 30
0.0000
 40
0.0295
  0
CIRCLE
  8
3
 10
-0.7746
 20
1.8494
 30
0.0000
 40
0.0295
  0
CIRCLE
  8
3
 10
-2.5748
 20
0.6496
 30
0.0000
 40
0.0295
  0
CIRCLE
  8
3
 10
-2.9744
 20
0.6496
 30
0.0000
 40
0.0295
  0
CIRCLE
  8
3
 10
-2.6752
 20
-0.9754
 30
0.0000
 40
0.0295
  0
CIRCLE
  8
3
 10
-2.6752
 20
-0.5748
 30
0.0000
 40
0.0295
  0
CIRCLE
  8
3
 10
-2.3248
 20
1.4252
 30
0.0000
 40
0.0295
  0
CIRCLE
  8
3
 10
-1.9252
 20
1.4252
 30
0.0000
 40
0.0295
  0
CIRCLE
  8
3
 10
0.3248
 20
0.5246
 30
0.0000
 40
0.0295
  0
CIRCLE
  8
3
 10
0.3248
 20
0.1250
 30
0.0000
 40
0.0295
  0
CIRCLE
  8
3
 10
0.5256
 20
0.5246
 30
0.0000
 40
0.0295
  0
CIRCLE
  8
3
 10
0.5256
 20
0.1250
 30
0.0000
 40
0.0295
  0
CIRCLE
  8
3
 10
0.4252
 20
0.1250
 30
0.0000
 40
0.0295
  0
CIRCLE
  8
3
 10
0.4252
 20
0.5246
 30
0.0000
 40
0.0295
  0
CIRCLE
  8
3
 10
0.6752
 20
-0.5502
 30
0.0000
 40
0.0295
  0
CIRCLE
  8
3
 10
0.2756
 20
-0.5502
 30
0.0000
 40
0.0295
  0
CIRCLE
  8
3
 10
1.1506
 20
0.5246
 30
0.0000
 40
0.0295
  0
CIRCLE
  8
3
 10
0.7500
 20
0.5246
 30
0.0000
 40
0.0295
  0
LINE
  8
3
 10
-1.7451
 20
-0.4055
 30
0.0000
 11
-1.7451
 21
-0.3455
 31
0.0000
  0
LINE
  8
3
 10
-1.7451
 20
-0.3455
 30
0.0000
 11
-1.8051
 21
-0.3455
 31
0.0000
  0
LINE
  8
3
 10
-1.8051
 20
-0.3455
 30
0.0000
 11
-1.8051
 21
-0.4055
 31
0.0000
  0
LINE
  8
3
 10
-1.8051
 20
-0.4055
 30
0.0000
 11
-1.7451
 21
-0.4055
 31
0.0000
  0
CIRCLE
  8
3
 10
-1.6752
 20
-0.3750
 30
0.0000
 40
0.0295
  0
CIRCLE
  8
3
 10
-1.5748
 20
-0.3750
 30
0.0000
 40
0.0295
  0
CIRCLE
  8
3
 10
-1.4744
 20
-0.3750
 30
0.0000
 40
0.0295
  0
CIRCLE
  8
3
 10
-1.3750
 20
-0.3750
 30
0.0000
 40
0.0295
  0
CIRCLE
  8
3
 10
-1.2746
 20
-0.3750
 30
0.0000
 40
0.0295
  0
CIRCLE
  8
3
 10
-1.1752
 20
-0.3750
 30
0.0000
 40
0.0295
  0
CIRCLE
  8
3
 10
-1.0748
 20
-0.3750
 30
0.0000
 40
0.0295
  0
CIRCLE
  8
3
 10
-0.9744
 20
-0.3750
 30
0.0000
 40
0.0295
  0
CIRCLE
  8
3
 10
-0.9744
 20
-0.0748
 30
0.0000
 40
0.0295
  0
CIRCLE
  8
3
 10
-1.0748
 20
-0.0748
 30
0.0000
 40
0.0295
  0
CIRCLE
  8
3
 10
-1.1752
 20
-0.0748
 30
0.0000
 40
0.0295
  0
CIRCLE
  8
3
 10
-1.2746
 20
-0.0748
 30
0.0000
 40
0.0295
  0
CIRCLE
  8
3
 10
-1.3750
 20
-0.0748
 30
0.0000
 40
0.0295
  0
CIRCLE
  8
3
 10
-1.4744
 20
-0.0748
 30
0.0000
 40
0.0295
  0
CIRCLE
  8
3
 10
-1.5748
 20
-0.0748
 30
0.0000
 40
0.0295
  0
CIRCLE
  8
3
 10
-1.6752
 20
-0.0748
 30
0.0000
 40
0.0295
  0
CIRCLE
  8
3
 10
-1.7746
 20
-0.0748
 30
0.0000
 40
0.0295
  0
CIRCLE
  8
3
 10
-0.8750
 20
-0.3750
 30
0.0000
 40
0.0295
  0
CIRCLE
  8
3
 10
-0.7746
 20
-0.3750
 30
0.0000
 40
0.0295
  0
CIRCLE
  8
3
 10
-0.6752
 20
-0.3750
 30
0.0000
 40
0.0295
  0
CIRCLE
  8
3
 10
-0.6752
 20
-0.0748
 30
0.0000
 40
0.0295
  0
CIRCLE
  8
3
 10
-0.7746
 20
-0.0748
 30
0.0000
 40
0.0295
  0
CIRCLE
  8
3
 10
-0.8750
 20
-0.0748
 30
0.0000
 40
0.0295
  0
CIRCLE
  8
3
 10
2.2254
 20
-0.0502
 30
0.0000
 40
0.0295
  0
CIRCLE
  8
3
 10
2.2254
 20
-0.8002
 30
0.0000
 40
0.0295
  0
LINE
  8
3
 10
-1.6949
 20
-1.2707
 30
0.0000
 11
-1.7549
 21
-1.2707
 31
0.0000
  0
LINE
  8
3
 10
-1.7549
 20
-1.2707
 30
0.0000
 11
-1.7549
 21
-1.3297
 31
0.0000
  0
LINE
  8
3
 10
-1.7549
 20
-1.3297
 30
0.0000
 11
-1.6949
 21
-1.3297
 31
0.0000
  0
LINE
  8
3
 10
-1.6949
 20
-1.3297
 30
0.0000
 11
-1.6949
 21
-1.2707
 31
0.0000
  0
CIRCLE
  8
3
 10
-1.8248
 20
-1.3002
 30
0.0000
 40
0.0295
  0
CIRCLE
  8
3
 10
-1.9252
 20
-1.3002
 30
0.0000
 40
0.0295
  0
CIRCLE
  8
3
 10
-2.0246
 20
-1.3002
 30
0.0000
 40
0.0295
  0
CIRCLE
  8
3
 10
-2.1250
 20
-1.3002
 30
0.0000
 40
0.0295
  0
CIRCLE
  8
3
 10
-2.2244
 20
-1.3002
 30
0.0000
 40
0.0295
  0
CIRCLE
  8
3
 10
-2.3248
 20
-1.3002
 30
0.0000
 40
0.0295
  0
CIRCLE
  8
3
 10
-2.4252
 20
-1.3002
 30
0.0000
 40
0.0295
  0
CIRCLE
  8
3
 10
-2.5246
 20
-1.3002
 30
0.0000
 40
0.0295
  0
CIRCLE
  8
3
 10
-2.6250
 20
-1.3002
 30
0.0000
 40
0.0295
  0
LINE
  8
3
 10
2.2205
 20
1.5797
 30
0.0000
 11
2.2205
 21
1.5197
 31
0.0000
  0
LINE
  8
3
 10
2.2205
 20
1.5197
 30
0.0000
 11
2.2805
 21
1.5197
 31
0.0000
  0
LINE
  8
3
 10
2.2805
 20
1.5197
 30
0.0000
 11
2.2805
 21
1.5797
 31
0.0000
  0
LINE
  8
3
 10
2.2805
 20
1.5797
 30
0.0000
 11
2.2205
 21
1.5797
 31
0.0000
  0
CIRCLE
  8
3
 10
2.2500
 20
1.4498
 30
0.0000
 40
0.0295
  0
CIRCLE
  8
3
 10
2.2500
 20
1.3494
 30
0.0000
 40
0.0295
  0
CIRCLE
  8
3
 10
2.2500
 20
1.2500
 30
0.0000
 40
0.0295
  0
CIRCLE
  8
3
 10
2.2500
 20
1.1496
 30
0.0000
 40
0.0295
  0
CIRCLE
  8
3
 10
2.2500
 20
1.0502
 30
0.0000
 40
0.0295
  0
CIRCLE
  8
3
 10
2.2500
 20
0.9498
 30
0.0000
 40
0.0295
  0
CIRCLE
  8
3
 10
2.2500
 20
0.8494
 30
0.0000
 40
0.0295
  0
CIRCLE
  8
3
 10
2.2500
 20
0.7500
 30
0.0000
 40
0.0295
  0
CIRCLE
  8
3
 10
2.2500
 20
0.6496
 30
0.0000
 40
0.0295
  0
LINE
  8
3
 10
-0.7293
 20
-0.9055
 30
0.0000
 11
-0.6703
 21
-0.9055
 31
0.0000
  0
LINE
  8
3
 10
-0.6703
 20
-0.9055
 30
0.0000
 11
-0.6703
 21
-0.8455
 31
0.0000
  0
LINE
  8
3
 10
-0.6703
 20
-0.8455
 30
0.0000
 11
-0.7293
 21
-0.8455
 31
0.0000
  0
LINE
  8
3
 10
-0.7293
 20
-0.8455
 30
0.0000
 11
-0.7293
 21
-0.9055
 31
0.0000
  0
CIRCLE
  8
3
 10
-0.6998
 20
-0.7756
 30
0.0000
 40
0.0295
  0
CIRCLE
  8
3
 10
-0.5994
 20
-0.8750
 30
0.0000
 40
0.0295
  0
CIRCLE
  8
3
 10
-0.5994
 20
-0.7756
 30
0.0000
 40
0.0295
  0
CIRCLE
  8
3
 10
-0.5000
 20
-0.8750
 30
0.0000
 40
0.0295
  0
CIRCLE
  8
3
 10
-0.5000
 20
-0.7756
 30
0.0000
 40
0.0295
  0
CIRCLE
  8
3
 10
-0.3996
 20
-0.8750
 30
0.0000
 40
0.0295
  0
CIRCLE
  8
3
 10
-0.3996
 20
-0.7756
 30
0.0000
 40
0.0295
  0
CIRCLE
  8
3
 10
-0.3002
 20
-0.8750
 30
0.0000
 40
0.0295
  0
CIRCLE
  8
3
 10
-0.3002
 20
-0.7756
 30
0.0000
 40
0.0295
  0
CIRCLE
  8
3
 10
-0.1998
 20
-0.8750
 30
0.0000
 40
0.0295
  0
CIRCLE
  8
3
 10
-0.1998
 20
-0.7756
 30
0.0000
 40
0.0295
  0
LINE
  8
3
 10
-2.3947
 20
-1.0049
 30
0.0000
 11
-2.3947
 21
-0.9449
 31
0.0000
  0
LINE
  8
3
 10
-2.3947
 20
-0.9449
 30
0.0000
 11
-2.4547
 21
-0.9449
 31
0.0000
  0
LINE
  8
3
 10
-2.4547
 20
-0.9449
 30
0.0000
 11
-2.4547
 21
-1.0049
 31
0.0000
  0
LINE
  8
3
 10
-2.4547
 20
-1.0049
 30
0.0000
 11
-2.3947
 21
-1.0049
 31
0.0000
  0
CIRCLE
  8
3
 10
-2.3248
 20
-0.9754
 30
0.0000
 40
0.0295
  0
CIRCLE
  8
3
 10
-2.2244
 20
-0.9754
 30
0.0000
 40
0.0295
  0
CIRCLE
  8
3
 10
-2.1250
 20
-0.9754
 30
0.0000
 40
0.0295
  0
CIRCLE
  8
3
 10
-2.0246
 20
-0.9754
 30
0.0000
 40
0.0295
  0
CIRCLE
  8
3
 10
-2.0246
 20
-0.6752
 30
0.0000
 40
0.0295
  0
CIRCLE
  8
3
 10
-2.1250
 20
-0.6752
 30
0.0000
 40
0.0295
  0
CIRCLE
  8
3
 10
-2.2244
 20
-0.6752
 30
0.0000
 40
0.0295
  0
CIRCLE
  8
3
 10
-2.3248
 20
-0.6752
 30
0.0000
 40
0.0295
  0
CIRCLE
  8
3
 10
-2.4252
 20
-0.6752
 30
0.0000
 40
0.0295
  0
LINE
  8
3
 10
2.0453
 20
-1.1703
 30
0.0000
 11
2.0453
 21
-1.2303
 31
0.0000
  0
LINE
  8
3
 10
2.0453
 20
-1.2303
 30
0.0000
 11
2.1053
 21
-1.2303
 31
0.0000
  0
LINE
  8
3
 10
2.1053
 20
-1.2303
 30
0.0000
 11
2.1053
 21
-1.1703
 31
0.0000
  0
LINE
  8
3
 10
2.1053
 20
-1.1703
 30
0.0000
 11
2.0453
 21
-1.1703
 31
0.0000
  0
CIRCLE
  8
3
 10
2.0748
 20
-1.2805
 30
0.0000
 40
0.0295
  0
LINE
  8
3
 10
-1.5295
 20
-1.1703
 30
0.0000
 11
-1.5295
 21
-1.2303
 31
0.0000
  0
LINE
  8
3
 10
-1.5295
 20
-1.2303
 30
0.0000
 11
-1.4695
 21
-1.2303
 31
0.0000
  0
LINE
  8
3
 10
-1.4695
 20
-1.2303
 30
0.0000
 11
-1.4695
 21
-1.1703
 31
0.0000
  0
LINE
  8
3
 10
-1.4695
 20
-1.1703
 30
0.0000
 11
-1.5295
 21
-1.1703
 31
0.0000
  0
CIRCLE
  8
3
 10
-1.5000
 20
-1.2805
 30
0.0000
 40
0.0295
  0
LINE
  8
3
 10
-2.3543
 20
0.9449
 30
0.0000
 11
-2.2953
 21
0.9449
 31
0.0000
  0
LINE
  8
3
 10
-2.2953
 20
0.9449
 30
0.0000
 11
-2.2953
 21
1.0049
 31
0.0000
  0
LINE
  8
3
 10
-2.2953
 20
1.0049
 30
0.0000
 11
-2.3543
 21
1.0049
 31
0.0000
  0
LINE
  8
3
 10
-2.3543
 20
1.0049
 30
0.0000
 11
-2.3543
 21
0.9449
 31
0.0000
  0
CIRCLE
  8
3
 10
-2.3248
 20
0.3750
 30
0.0000
 40
0.0295
  0
CIRCLE
  8
3
 10
-2.0246
 20
0.3750
 30
0.0000
 40
0.0295
  0
CIRCLE
  8
3
 10
-2.0246
 20
0.9744
 30
0.0000
 40
0.0295
  0
LINE
  8
3
 10
2.4163
 20
1.2717
 30
0.0000
 11
2.4921
 21
1.2717
 31
0.0000
  0
LINE
  8
3
 10
2.4921
 20
1.2717
 30
0.0000
 11
2.4921
 21
1.3474
 31
0.0000
  0
LINE
  8
3
 10
2.4921
 20
1.3474
 30
0.0000
 11
2.4163
 21
1.3474
 31
0.0000
  0
LINE
  8
3
 10
2.4163
 20
1.3474
 30
0.0000
 11
2.4163
 21
1.2717
 31
0.0000
  0
CIRCLE
  8
3
 10
2.4537
 20
1.1998
 30
0.0000
 40
0.0384
  0
CIRCLE
  8
3
 10
2.4537
 20
1.0896
 30
0.0000
 40
0.0384
  0
CIRCLE
  8
3
 10
2.4537
 20
0.9793
 30
0.0000
 40
0.0384
  0
CIRCLE
  8
3
 10
2.4537
 20
0.8701
 30
0.0000
 40
0.0384
  0
CIRCLE
  8
3
 10
2.5659
 20
1.2549
 30
0.0000
 40
0.0384
  0
CIRCLE
  8
3
 10
2.5659
 20
1.1447
 30
0.0000
 40
0.0384
  0
CIRCLE
  8
3
 10
2.5659
 20
1.0344
 30
0.0000
 40
0.0384
  0
CIRCLE
  8
3
 10
2.5659
 20
0.9252
 30
0.0000
 40
0.0384
  0
CIRCLE
  8
3
 10
2.5098
 20
1.5807
 30
0.0000
 40
0.1250
  0
CIRCLE
  8
3
 10
2.5098
 20
0.5984
 30
0.0000
 40
0.1250
  0
LINE
  8
3
 10
2.4163
 20
-0.0778
 30
0.0000
 11
2.4921
 21
-0.0778
 31
0.0000
  0
LINE
  8
3
 10
2.4921
 20
-0.0778
 30
0.0000
 11
2.4921
 21
-0.0020
 31
0.0000
  0
LINE
  8
3
 10
2.4921
 20
-0.0020
 30
0.0000
 11
2.4163
 21
-0.0020
 31
0.0000
  0
LINE
  8
3
 10
2.4163
 20
-0.0020
 30
0.0000
 11
2.4163
 21
-0.0778
 31
0.0000
  0
CIRCLE
  8
3
 10
2.4537
 20
-0.1506
 30
0.0000
 40
0.0384
  0
CIRCLE
  8
3
 10
2.4537
 20
-0.2598
 30
0.0000
 40
0.0384
  0
CIRCLE
  8
3
 10
2.4537
 20
-0.3701
 30
0.0000
 40
0.0384
  0
CIRCLE
  8
3
 10
2.4537
 20
-0.4803
 30
0.0000
 40
0.0384
  0
CIRCLE
  8
3
 10
2.4537
 20
-0.5906
 30
0.0000
 40
0.0384
  0
CIRCLE
  8
3
 10
2.4537
 20
-0.6998
 30
0.0000
 40
0.0384
  0
CIRCLE
  8
3
 10
2.4537
 20
-0.8100
 30
0.0000
 40
0.0384
  0
CIRCLE
  8
3
 10
2.4537
 20
-0.9203
 30
0.0000
 40
0.0384
  0
CIRCLE
  8
3
 10
2.4537
 20
-1.0305
 30
0.0000
 40
0.0384
  0
CIRCLE
  8
3
 10
2.4537
 20
-1.1398
 30
0.0000
 40
0.0384
  0
CIRCLE
  8
3
 10
2.4537
 20
-1.2500
 30
0.0000
 40
0.0384
  0
CIRCLE
  8
3
 10
2.4537
 20
-1.3602
 30
0.0000
 40
0.0384
  0
CIRCLE
  8
3
 10
2.5659
 20
-0.0955
 30
0.0000
 40
0.0384
  0
CIRCLE
  8
3
 10
2.5659
 20
-0.2047
 30
0.0000
 40
0.0384
  0
CIRCLE
  8
3
 10
2.5659
 20
-0.3150
 30
0.0000
 40
0.0384
  0
CIRCLE
  8
3
 10
2.5659
 20
-0.4252
 30
0.0000
 40
0.0384
  0
CIRCLE
  8
3
 10
2.5659
 20
-0.5354
 30
0.0000
 40
0.0384
  0
CIRCLE
  8
3
 10
2.5659
 20
-0.6457
 30
0.0000
 40
0.0384
  0
CIRCLE
  8
3
 10
2.5659
 20
-0.7549
 30
0.0000
 40
0.0384
  0
CIRCLE
  8
3
 10
2.5659
 20
-0.8652
 30
0.0000
 40
0.0384
  0
CIRCLE
  8
3
 10
2.5659
 20
-0.9754
 30
0.0000
 40
0.0384
  0
CIRCLE
  8
3
 10
2.5659
 20
-1.0856
 30
0.0000
 40
0.0384
  0
CIRCLE
  8
3
 10
2.5659
 20
-1.1949
 30
0.0000
 40
0.0384
  0
CIRCLE
  8
3
 10
2.5659
 20
-1.3051
 30
0.0000
 40
0.0384
  0
CIRCLE
  8
3
 10
2.5098
 20
0.2254
 30
0.0000
 40
0.1250
  0
CIRCLE
  8
3
 10
2.5098
 20
-1.6260
 30
0.0000
 40
0.1250
  0
LINE
  8
3
 10
1.8701
 20
-1.2707
 30
0.0000
 11
1.8100
 21
-1.2707
 31
0.0000
  0
LINE
  8
3
 10
1.8100
 20
-1.2707
 30
0.0000
 11
1.8100
 21
-1.3297
 31
0.0000
  0
LINE
  8
3
 10
1.8100
 20
-1.3297
 30
0.0000
 11
1.8701
 21
-1.3297
 31
0.0000
  0
LINE
  8
3
 10
1.8701
 20
-1.3297
 30
0.0000
 11
1.8701
 21
-1.2707
 31
0.0000
  0
CIRCLE
  8
3
 10
1.8406
 20
-1.1998
 30
0.0000
 40
0.0295
  0
CIRCLE
  8
3
 10
1.7402
 20
-1.3002
 30
0.0000
 40
0.0295
  0
CIRCLE
  8
3
 10
1.6398
 20
-1.3002
 30
0.0000
 40
0.0295
  0
CIRCLE
  8
3
 10
1.5404
 20
-1.3002
 30
0.0000
 40
0.0295
  0
CIRCLE
  8
3
 10
1.4400
 20
-1.3002
 30
0.0000
 40
0.0295
  0
CIRCLE
  8
3
 10
1.3406
 20
-1.3002
 30
0.0000
 40
0.0295
  0
CIRCLE
  8
3
 10
1.2402
 20
-1.3002
 30
0.0000
 40
0.0295
  0
CIRCLE
  8
3
 10
1.1398
 20
-1.3002
 30
0.0000
 40
0.0295
  0
CIRCLE
  8
3
 10
1.0404
 20
-1.3002
 30
0.0000
 40
0.0295
  0
CIRCLE
  8
3
 10
0.9400
 20
-1.3002
 30
0.0000
 40
0.0295
  0
CIRCLE
  8
3
 10
0.8406
 20
-1.3002
 30
0.0000
 40
0.0295
  0
CIRCLE
  8
3
 10
0.7402
 20
-1.3002
 30
0.0000
 40
0.0295
  0
CIRCLE
  8
3
 10
0.6398
 20
-1.3002
 30
0.0000
 40
0.0295
  0
CIRCLE
  8
3
 10
0.5404
 20
-1.3002
 30
0.0000
 40
0.0295
  0
CIRCLE
  8
3
 10
0.4400
 20
-1.3002
 30
0.0000
 40
0.0295
  0
CIRCLE
  8
3
 10
0.3406
 20
-1.3002
 30
0.0000
 40
0.0295
  0
CIRCLE
  8
3
 10
0.2402
 20
-1.3002
 30
0.0000
 40
0.0295
  0
CIRCLE
  8
3
 10
0.1398
 20
-1.3002
 30
0.0000
 40
0.0295
  0
CIRCLE
  8
3
 10
0.0404
 20
-1.3002
 30
0.0000
 40
0.0295
  0
CIRCLE
  8
3
 10
-0.0600
 20
-1.3002
 30
0.0000
 40
0.0295
  0
CIRCLE
  8
3
 10
-0.1594
 20
-1.3002
 30
0.0000
 40
0.0295
  0
CIRCLE
  8
3
 10
-0.2598
 20
-1.3002
 30
0.0000
 40
0.0295
  0
CIRCLE
  8
3
 10
-0.3602
 20
-1.3002
 30
0.0000
 40
0.0295
  0
CIRCLE
  8
3
 10
-0.4596
 20
-1.3002
 30
0.0000
 40
0.0295
  0
CIRCLE
  8
3
 10
-0.5600
 20
-1.3002
 30
0.0000
 40
0.0295
  0
CIRCLE
  8
3
 10
-0.6594
 20
-1.3002
 30
0.0000
 40
0.0295
  0
CIRCLE
  8
3
 10
-0.7598
 20
-1.3002
 30
0.0000
 40
0.0295
  0
CIRCLE
  8
3
 10
-0.8602
 20
-1.3002
 30
0.0000
 40
0.0295
  0
CIRCLE
  8
3
 10
-0.9596
 20
-1.3002
 30
0.0000
 40
0.0295
  0
CIRCLE
  8
3
 10
-1.0600
 20
-1.3002
 30
0.0000
 40
0.0295
  0
CIRCLE
  8
3
 10
-1.1594
 20
-1.3002
 30
0.0000
 40
0.0295
  0
CIRCLE
  8
3
 10
1.7402
 20
-1.1998
 30
0.0000
 40
0.0295
  0
CIRCLE
  8
3
 10
1.6398
 20
-1.1998
 30
0.0000
 40
0.0295
  0
CIRCLE
  8
3
 10
1.5404
 20
-1.1998
 30
0.0000
 40
0.0295
  0
CIRCLE
  8
3
 10
1.4400
 20
-1.1998
 30
0.0000
 40
0.0295
  0
CIRCLE
  8
3
 10
1.3406
 20
-1.1998
 30
0.0000
 40
0.0295
  0
CIRCLE
  8
3
 10
1.2402
 20
-1.1998
 30
0.0000
 40
0.0295
  0
CIRCLE
  8
3
 10
1.1398
 20
-1.1998
 30
0.0000
 40
0.0295
  0
CIRCLE
  8
3
 10
1.0404
 20
-1.1998
 30
0.0000
 40
0.0295
  0
CIRCLE
  8
3
 10
0.9400
 20
-1.1998
 30
0.0000
 40
0.0295
  0
CIRCLE
  8
3
 10
0.8406
 20
-1.1998
 30
0.0000
 40
0.0295
  0
CIRCLE
  8
3
 10
0.7402
 20
-1.1998
 30
0.0000
 40
0.0295
  0
CIRCLE
  8
3
 10
0.6398
 20
-1.1998
 30
0.0000
 40
0.0295
  0
CIRCLE
  8
3
 10
0.5404
 20
-1.1998
 30
0.0000
 40
0.0295
  0
CIRCLE
  8
3
 10
0.4400
 20
-1.1998
 30
0.0000
 40
0.0295
  0
CIRCLE
  8
3
 10
0.3406
 20
-1.1998
 30
0.0000
 40
0.0295
  0
CIRCLE
  8
3
 10
0.2402
 20
-1.1998
 30
0.0000
 40
0.0295
  0
CIRCLE
  8
3
 10
0.1398
 20
-1.1998
 30
0.0000
 40
0.0295
  0
CIRCLE
  8
3
 10
0.0404
 20
-1.1998
 30
0.0000
 40
0.0295
  0
CIRCLE
  8
3
 10
-0.0600
 20
-1.1998
 30
0.0000
 40
0.0295
  0
CIRCLE
  8
3
 10
-0.1594
 20
-1.1998
 30
0.0000
 40
0.0295
  0
CIRCLE
  8
3
 10
-0.2598
 20
-1.1998
 30
0.0000
 40
0.0295
  0
CIRCLE
  8
3
 10
-0.3602
 20
-1.1998
 30
0.0000
 40
0.0295
  0
CIRCLE
  8
3
 10
-0.4596
 20
-1.1998
 30
0.0000
 40
0.0295
  0
CIRCLE
  8
3
 10
-0.5600
 20
-1.1998
 30
0.0000
 40
0.0295
  0
CIRCLE
  8
3
 10
-0.6594
 20
-1.1998
 30
0.0000
 40
0.0295
  0
CIRCLE
  8
3
 10
-0.7598
 20
-1.1998
 30
0.0000
 40
0.0295
  0
CIRCLE
  8
3
 10
-0.8602
 20
-1.1998
 30
0.0000
 40
0.0295
  0
CIRCLE
  8
3
 10
-0.9596
 20
-1.1998
 30
0.0000
 40
0.0295
  0
CIRCLE
  8
3
 10
-1.0600
 20
-1.1998
 30
0.0000
 40
0.0295
  0
CIRCLE
  8
3
 10
-1.1594
 20
-1.1998
 30
0.0000
 40
0.0295
  0
CIRCLE
  8
3
 10
-1.2598
 20
-1.3002
 30
0.0000
 40
0.0295
  0
CIRCLE
  8
3
 10
-1.2598
 20
-1.1998
 30
0.0000
 40
0.0295
  0
CIRCLE
  8
3
 10
-3.0502
 20
-1.2303
 30
0.0000
 40
0.1250
  0
CIRCLE
  8
3
 10
-3.0502
 20
2.2697
 30
0.0000
 40
0.1250
  0
CIRCLE
  8
3
 10
2.5906
 20
2.2697
 30
0.0000
 40
0.1250
  0
CIRCLE
  8
3
 10
0.8602
 20
2.3494
 30
0.0000
 40
0.0246
  0
CIRCLE
  8
3
 10
0.5256
 20
0.3543
 30
0.0000
 40
0.0246
  0
CIRCLE
  8
3
 10
0.5797
 20
0.7894
 30
0.0000
 40
0.0246
  0
CIRCLE
  8
3
 10
0.7254
 20
1.0994
 30
0.0000
 40
0.0246
  0
CIRCLE
  8
3
 10
-0.5699
 20
1.2047
 30
0.0000
 40
0.0246
  0
CIRCLE
  8
3
 10
1.8356
 20
1.0394
 30
0.0000
 40
0.0246
  0
CIRCLE
  8
3
 10
-0.6201
 20
-0.6722
 30
0.0000
 40
0.0246
  0
CIRCLE
  8
3
 10
1.1506
 20
1.3248
 30
0.0000
 40
0.0246
  0
CIRCLE
  8
3
 10
2.3455
 20
-0.3602
 30
0.0000
 40
0.0246
  0
CIRCLE
  8
3
 10
-0.2293
 20
0.9744
 30
0.0000
 40
0.0246
  0
CIRCLE
  8
3
 10
-1.8396
 20
1.5098
 30
0.0000
 40
0.0246
  0
CIRCLE
  8
3
 10
-2.1447
 20
1.7894
 30
0.0000
 40
0.0246
  0
CIRCLE
  8
3
 10
-0.0295
 20
-0.0305
 30
0.0000
 40
0.0246
  0
CIRCLE
  8
3
 10
-1.1043
 20
0.1998
 30
0.0000
 40
0.0246
  0
CIRCLE
  8
3
 10
1.7549
 20
1.2844
 30
0.0000
 40
0.0246
  0
CIRCLE
  8
3
 10
-1.0650
 20
0.7598
 30
0.0000
 40
0.0246
  0
CIRCLE
  8
3
 10
2.1752
 20
1.5000
 30
0.0000
 40
0.0246
  0
CIRCLE
  8
3
 10
-2.4498
 20
1.0994
 30
0.0000
 40
0.0246
  0
CIRCLE
  8
3
 10
-2.6250
 20
0.0246
 30
0.0000
 40
0.0246
  0
CIRCLE
  8
3
 10
2.7707
 20
2.3996
 30
0.0000
 40
0.0246
  0
CIRCLE
  8
3
 10
2.4902
 20
2.3996
 30
0.0000
 40
0.0246
  0
CIRCLE
  8
3
 10
2.4902
 20
2.1102
 30
0.0000
 40
0.0246
  0
CIRCLE
  8
3
 10
2.6801
 20
2.1102
 30
0.0000
 40
0.0246
  0
CIRCLE
  8
3
 10
2.7707
 20
1.9203
 30
0.0000
 40
0.0246
  0
CIRCLE
  8
3
 10
2.6801
 20
1.9203
 30
0.0000
 40
0.0246
  0
CIRCLE
  8
3
 10
-0.1201
 20
0.2953
 30
0.0000
 40
0.0246
  0
CIRCLE
  8
3
 10
-3.1752
 20
1.3248
 30
0.0000
 40
0.0246
  0
CIRCLE
  8
3
 10
-0.9793
 20
0.6152
 30
0.0000
 40
0.0246
  0
CIRCLE
  8
3
 10
-1.0246
 20
1.0797
 30
0.0000
 40
0.0246
  0
CIRCLE
  8
3
 10
-1.5344
 20
1.3396
 30
0.0000
 40
0.0246
  0
CIRCLE
  8
3
 10
0.0906
 20
0.4793
 30
0.0000
 40
0.0246
  0
CIRCLE
  8
3
 10
2.2254
 20
-0.5207
 30
0.0000
 40
0.0246
  0
CIRCLE
  8
3
 10
-1.2244
 20
0.2746
 30
0.0000
 40
0.0246
  0
CIRCLE
  8
3
 10
-0.8839
 20
1.0453
 30
0.0000
 40
0.0246
  0
CIRCLE
  8
3
 10
-0.4252
 20
0.1594
 30
0.0000
 40
0.0246
  0
CIRCLE
  8
3
 10
-1.0846
 20
1.8297
 30
0.0000
 40
0.0246
  0
CIRCLE
  8
3
 10
-1.2244
 20
1.0246
 30
0.0000
 40
0.0246
  0
CIRCLE
  8
3
 10
-1.0295
 20
-0.7598
 30
0.0000
 40
0.0246
  0
CIRCLE
  8
3
 10
-1.5748
 20
0.3602
 30
0.0000
 40
0.0246
  0
CIRCLE
  8
3
 10
0.8799
 20
1.7549
 30
0.0000
 40
0.0246
  0
CIRCLE
  8
3
 10
1.6152
 20
-0.4705
 30
0.0000
 40
0.0246
  0
CIRCLE
  8
3
 10
-1.0994
 20
-0.4606
 30
0.0000
 40
0.0246
  0
CIRCLE
  8
3
 10
-0.1250
 20
0.9793
 30
0.0000
 40
0.0246
  0
CIRCLE
  8
3
 10
0.2756
 20
0.9793
 30
0.0000
 40
0.0246
  0
CIRCLE
  8
3
 10
-0.4045
 20
0.0394
 30
0.0000
 40
0.0246
  0
CIRCLE
  8
3
 10
-1.0650
 20
0.6801
 30
0.0000
 40
0.0246
  0
CIRCLE
  8
3
 10
1.0256
 20
-1.1201
 30
0.0000
 40
0.0246
  0
CIRCLE
  8
3
 10
1.1053
 20
1.1998
 30
0.0000
 40
0.0246
  0
CIRCLE
  8
3
 10
1.3002
 20
-0.1201
 30
0.0000
 40
0.0246
  0
CIRCLE
  8
3
 10
1.3504
 20
0.9744
 30
0.0000
 40
0.0246
  0
CIRCLE
  8
3
 10
0.7953
 20
0.5896
 30
0.0000
 40
0.0246
  0
CIRCLE
  8
3
 10
-1.2244
 20
1.3750
 30
0.0000
 40
0.0246
  0
CIRCLE
  8
3
 10
0.2756
 20
-1.0748
 30
0.0000
 40
0.0246
  0
CIRCLE
  8
3
 10
0.4902
 20
0.2795
 30
0.0000
 40
0.0246
  0
CIRCLE
  8
3
 10
0.7303
 20
1.0394
 30
0.0000
 40
0.0246
  0
CIRCLE
  8
3
 10
-1.3199
 20
2.2293
 30
0.0000
 40
0.0246
  0
CIRCLE
  8
3
 10
-0.6496
 20
-1.0748
 30
0.0000
 40
0.0246
  0
CIRCLE
  8
3
 10
2.0600
 20
0.8346
 30
0.0000
 40
0.0246
  0
CIRCLE
  8
3
 10
-1.2244
 20
-1.0207
 30
0.0000
 40
0.0246
  0
CIRCLE
  8
3
 10
-0.9252
 20
-1.0748
 30
0.0000
 40
0.0246
  0
CIRCLE
  8
3
 10
2.3248
 20
0.7953
 30
0.0000
 40
0.0246
  0
CIRCLE
  8
3
 10
1.4656
 20
0.3848
 30
0.0000
 40
0.0246
  0
CIRCLE
  8
3
 10
2.0000
 20
1.5994
 30
0.0000
 40
0.0246
  0
CIRCLE
  8
3
 10
1.8002
 20
-0.8248
 30
0.0000
 40
0.0246
  0
CIRCLE
  8
3
 10
0.4754
 20
-0.8248
 30
0.0000
 40
0.0246
  0
CIRCLE
  8
3
 10
0.9203
 20
0.0797
 30
0.0000
 40
0.0246
  0
CIRCLE
  8
3
 10
-2.5000
 20
1.3002
 30
0.0000
 40
0.0246
  0
CIRCLE
  8
3
 10
-2.7352
 20
1.0453
 30
0.0000
 40
0.0246
  0
CIRCLE
  8
3
 10
0.7254
 20
1.8494
 30
0.0000
 40
0.0246
  0
CIRCLE
  8
3
 10
-0.2500
 20
1.9951
 30
0.0000
 40
0.0246
  0
CIRCLE
  8
3
 10
-1.3297
 20
0.0797
 30
0.0000
 40
0.0246
  0
CIRCLE
  8
3
 10
2.6850
 20
0.4646
 30
0.0000
 40
0.0246
  0
CIRCLE
  8
3
 10
-3.1250
 20
0.5866
 30
0.0000
 40
0.0246
  0
CIRCLE
  8
3
 10
2.3406
 20
-0.1348
 30
0.0000
 40
0.0246
  0
CIRCLE
  8
3
 10
1.2648
 20
-0.8701
 30
0.0000
 40
0.0246
  0
ENDSEC
  0
EOF
