  0
SECTION
  2
ENTITIES
  0
LINE
  8
2
 10
4.5994
 20
-1.7500
 30
0.0000
 11
4.5994
 21
-2.1506
 31
0.0000
  0
LINE
  8
2
 10
3.5994
 20
-1.7500
 30
0.0000
 11
3.5994
 21
-2.1506
 31
0.0000
  0
LINE
  8
2
 10
5.0000
 20
-1.9498
 30
0.0000
 11
3.2500
 21
-1.9498
 31
0.0000
  0
LINE
  8
2
 10
3.2500
 20
-1.7500
 30
0.0000
 11
5.0000
 21
-1.7500
 31
0.0000
  0
LINE
  8
2
 10
3.2500
 20
-1.5502
 30
0.0000
 11
5.0000
 21
-1.5502
 31
0.0000
  0
LINE
  8
2
 10
5.0000
 20
-1.5502
 30
0.0000
 11
5.0000
 21
-2.1506
 31
0.0000
  0
LINE
  8
2
 10
5.0000
 20
-2.1506
 30
0.0000
 11
3.2500
 21
-2.1506
 31
0.0000
  0
LINE
  8
2
 10
3.2500
 20
-2.1506
 30
0.0000
 11
3.2500
 21
-1.5502
 31
0.0000
  0
TEXT
  8
2
 10
3.8150
 20
-1.6870
 30
0.0000
 40
0.0738
  1
HOLE CHART
  0
TEXT
  8
2
 10
3.3061
 20
-1.8868
 30
0.0000
 40
0.0738
  1
CODE
  0
TEXT
  8
2
 10
4.7136
 20
-1.8868
 30
0.0000
 40
0.0738
  1
QTY
  0
TEXT
  8
2
 10
3.6939
 20
-1.8868
 30
0.0000
 40
0.0738
  1
FINISHED DIA.
  0
TEXT
  8
2
 10
1.9094
 20
0.8632
 30
0.0000
 40
0.0738
  1
    OR EQUIVALENT.
  0
TEXT
  8
2
 10
1.9094
 20
1.0138
 30
0.0000
 40
0.0738
  1
4.  SOLDERMASK BOTH SIDES OF BOARD USING GREEN PC-401
  0
TEXT
  8
2
 10
1.9094
 20
2.7638
 30
0.0000
 40
0.0738
  1
NOTES: UNLESS OTHERWISE SPECIFIED
  0
TEXT
  8
2
 10
1.9094
 20
2.5138
 30
0.0000
 40
0.0738
  1
1.  MATERIAL: .062 NOMINAL FINISHED THICKNESS GREEN NEMA
  0
TEXT
  8
2
 10
1.9094
 20
2.3632
 30
0.0000
 40
0.0738
  1
    GRADE FR-4 GLASS EPOXY LAMINATE, 1 OUNCE COPPER CLAD
  0
TEXT
  8
2
 10
1.9094
 20
1.9636
 30
0.0000
 40
0.0738
  1
2.  FINISH: ALL THROUGH HOLES AND CONDUCTIVE PATTERNS 
  0
TEXT
  8
2
 10
1.9094
 20
1.2638
 30
0.0000
 40
0.0738
  1
3.  ALL HOLE SIZES SHOWN ARE FINISHED DIAMETERS.
  0
TEXT
  8
2
 10
1.9094
 20
-0.7362
 30
0.0000
 40
0.0738
  1
    CATION.  VENDOR LOGO, TYPE DESIGNATION, AND U.L. APPROVAL
  0
TEXT
  8
2
 10
1.9094
 20
-0.8868
 30
0.0000
 40
0.0738
  1
    MUST BE CLEARLY ETCHED IN A CONVENIENT LOCATION ON THE 
  0
TEXT
  8
2
 10
1.9094
 20
-1.0364
 30
0.0000
 40
0.0738
  1
    SOLDER SIDE OF THE BOARD.
  0
TEXT
  8
2
 10
1.9094
 20
1.5138
 30
0.0000
 40
0.0738
  1
    IS OPTIONAL.
  0
TEXT
  8
2
 10
1.9094
 20
-0.3366
 30
0.0000
 40
0.0738
  1
    CONDUCTIVE EPOXY INK.
  0
TEXT
  8
2
 10
1.9094
 20
2.2136
 30
0.0000
 40
0.0738
  1
    4 LAYERS.
  0
TEXT
  8
2
 10
1.9094
 20
1.8130
 30
0.0000
 40
0.0738
  1
    SHALL BE COPPER PLATED .0010 - .0016 THICK. TIN/LEAD
  0
TEXT
  8
2
 10
1.9094
 20
1.6634
 30
0.0000
 40
0.0738
  1
    PLATE ALL EXPOSED COPPER .0003 - .0008 THICK. REFLOW
  0
TEXT
  8
2
 10
1.9094
 20
0.6132
 30
0.0000
 40
0.0738
  1
5   GOLD PLATE FINGERS .000030 - .000050 THICK TO DIMENSION
  0
TEXT
  8
2
 10
1.9094
 20
0.4636
 30
0.0000
 40
0.0738
  1
    SHOWN OVER .0002 - .0005 THICK NICKEL ALLOY BARRIER.
  0
TEXT
  8
2
 10
1.9094
 20
0.2136
 30
0.0000
 40
0.0738
  1
6.  CHAMFER FINGERS .020 X 45 DEGREES BOTH SIDES (TOP AND
  0
TEXT
  8
2
 10
1.9094
 20
0.0630
 30
0.0000
 40
0.0738
  1
    BOTTOM).
  0
TEXT
  8
2
 10
1.9094
 20
-0.1870
 30
0.0000
 40
0.0738
  1
7.  SILKSCREEN COMPONENT SIDE (LAYER 1) USING WHITE NON-
  0
TEXT
  8
2
 10
1.9094
 20
-0.5866
 30
0.0000
 40
0.0738
  1
8.  FINISHED BOARD MUST MEET OR EXCEED U.L. 94V0 CLASSIFI-
  0
LINE
  8
2
 10
1.8701
 20
0.5699
 30
0.0000
 11
1.9951
 21
0.5699
 31
0.0000
  0
LINE
  8
2
 10
1.9951
 20
0.5699
 30
0.0000
 11
1.9951
 21
0.7195
 31
0.0000
  0
LINE
  8
2
 10
1.9951
 20
0.7195
 30
0.0000
 11
1.8701
 21
0.7195
 31
0.0000
  0
LINE
  8
2
 10
1.8701
 20
0.7195
 30
0.0000
 11
1.8701
 21
0.5699
 31
0.0000
  0
TEXT
  8
2
 10
2.4803
 20
-2.0502
 30
0.0000
 40
0.0492
  1
FABRICATION
  0
TEXT
  8
2
 10
2.7037
 20
-1.6614
 30
0.0000
 40
0.0728
  1
NMRA
  0
TEXT
  8
2
 10
2.5236
 20
-1.7500
 30
0.0000
 40
0.0492
  1
SENDER.PCB
  0
TEXT
  8
2
 10
2.2205
 20
-1.8494
 30
0.0000
 40
0.0492
  1
030-0102-01 REV A
  0
TEXT
  8
2
 10
2.2638
 20
-1.9498
 30
0.0000
 40
0.0492
  1
28 DECEMBER 1999
  0
TEXT
  8
2
 10
4.7451
 20
-2.0866
 30
0.0000
 40
0.0728
  1
75
  0
TEXT
  8
2
 10
-5.1142
 20
2.5098
 30
0.0000
 40
0.0728
  1
0.300
 50
90.0000
  0
TEXT
  8
2
 10
4.7776
 20
-2.6870
 30
0.0000
 40
0.0728
  1
7
  0
TEXT
  8
2
 10
-5.3268
 20
-1.6220
 30
0.0000
 40
0.0728
  1
B
  0
TEXT
  8
2
 10
-5.3573
 20
2.1181
 30
0.0000
 40
0.0728
  1
B
  0
TEXT
  8
2
 10
-6.2106
 20
-1.6860
 30
0.0000
 40
0.0709
  1
0.300
  0
TEXT
  8
2
 10
-6.2106
 20
-1.4665
 30
0.0000
 40
0.0728
  1
0.520
  0
LINE
  8
2
 10
-5.1506
 20
-1.2205
 30
0.0000
 11
-5.1506
 21
-1.6201
 31
0.0000
  0
LINE
  8
2
 10
-4.9606
 20
2.0699
 30
0.0000
 11
-5.3406
 21
2.0699
 31
0.0000
  0
LINE
  8
2
 10
-5.1506
 20
1.8898
 30
0.0000
 11
-5.1506
 21
2.2746
 31
0.0000
  0
LINE
  8
2
 10
-5.1506
 20
2.3002
 30
0.0000
 11
-5.1506
 21
2.4498
 31
0.0000
  0
LINE
  8
2
 10
-4.9508
 20
-1.4301
 30
0.0000
 11
-5.3455
 21
-1.4301
 31
0.0000
  0
LINE
  8
2
 10
-5.3957
 20
-1.4301
 30
0.0000
 11
-5.8504
 21
-1.4301
 31
0.0000
  0
TEXT
  8
2
 10
0.5256
 20
2.5098
 30
0.0000
 40
0.0728
  1
5.940
 50
90.0000
  0
TEXT
  8
2
 10
1.1093
 20
2.0335
 30
0.0000
 40
0.0728
  1
4.020
  0
LINE
  8
2
 10
0.2746
 20
2.0699
 30
0.0000
 11
0.7500
 21
2.0699
 31
0.0000
  0
LINE
  8
2
 10
0.7746
 20
2.0699
 30
0.0000
 11
1.0492
 21
2.0699
 31
0.0000
  0
LINE
  8
2
 10
0.4892
 20
2.2894
 30
0.0000
 11
0.4892
 21
1.8543
 31
0.0000
  0
LINE
  8
2
 10
0.4892
 20
2.3150
 30
0.0000
 11
0.4892
 21
2.4498
 31
0.0000
  0
TEXT
  8
2
 10
-4.4026
 20
-2.2864
 30
0.0000
 40
0.0728
  1
2 PLACES
  0
TEXT
  8
2
 10
-4.9783
 20
-2.1614
 30
0.0000
 40
0.0728
  1
.025 X 45 DEGREES
  0
LINE
  8
2
 10
-3.3356
 20
-1.9400
 30
0.0000
 11
-3.5207
 21
-2.1250
 31
0.0000
  0
LINE
  8
2
 10
-3.5207
 20
-2.1250
 30
0.0000
 11
-3.8504
 21
-2.1250
 31
0.0000
  0
LINE
  8
2
 10
-3.3652
 20
-2.0049
 30
0.0000
 11
-3.3356
 21
-1.9400
 31
0.0000
  0
LINE
  8
2
 10
-3.3356
 20
-1.9400
 30
0.0000
 11
-3.3957
 21
-1.9705
 31
0.0000
  0
LINE
  8
2
 10
-0.1752
 20
-1.9301
 30
0.0000
 11
-3.3455
 21
-1.9301
 31
0.0000
  0
LINE
  8
2
 10
-0.1703
 20
-1.9252
 30
0.0000
 11
-0.1703
 21
-1.6506
 31
0.0000
  0
LINE
  8
2
 10
-0.1703
 20
-1.6506
 30
0.0000
 11
0.0197
 21
-1.6506
 31
0.0000
  0
LINE
  8
2
 10
0.0197
 20
-1.6506
 30
0.0000
 11
0.0197
 21
-1.9498
 31
0.0000
  0
LINE
  8
2
 10
0.0197
 20
-1.9498
 30
0.0000
 11
0.7195
 21
-1.9498
 31
0.0000
  0
LINE
  8
2
 10
0.7195
 20
-1.9498
 30
0.0000
 11
0.7195
 21
2.2500
 31
0.0000
  0
LINE
  8
2
 10
0.7195
 20
2.2500
 30
0.0000
 11
-5.4508
 21
2.2500
 31
0.0000
  0
LINE
  8
2
 10
-5.4508
 20
2.2500
 30
0.0000
 11
-5.4508
 21
-1.6506
 31
0.0000
  0
LINE
  8
2
 10
-5.4508
 20
-1.6506
 30
0.0000
 11
-3.5709
 21
-1.6506
 31
0.0000
  0
LINE
  8
2
 10
-3.5709
 20
-1.6506
 30
0.0000
 11
-3.3504
 21
-1.6506
 31
0.0000
  0
LINE
  8
2
 10
-3.3504
 20
-1.6506
 30
0.0000
 11
-3.3504
 21
-1.9252
 31
0.0000
  0
LINE
  8
2
 10
-3.3504
 20
-1.9252
 30
0.0000
 11
-3.3258
 21
-1.9498
 31
0.0000
  0
LINE
  8
2
 10
-3.3258
 20
-1.9498
 30
0.0000
 11
-0.1959
 21
-1.9498
 31
0.0000
  0
LINE
  8
2
 10
-0.1959
 20
-1.9498
 30
0.0000
 11
-0.1703
 21
-1.9252
 31
0.0000
  0
TEXT
  8
2
 10
4.7136
 20
-2.2864
 30
0.0000
 40
0.0728
  1
546
  0
LINE
  8
2
 10
0.5246
 20
-1.6004
 30
0.0000
 11
0.6250
 21
-0.9754
 31
0.0000
  0
LINE
  8
2
 10
0.6250
 20
-0.9754
 30
0.0000
 11
0.5492
 21
-0.1752
 31
0.0000
  0
LINE
  8
2
 10
0.5492
 20
-0.1752
 30
0.0000
 11
0.2746
 21
-0.1506
 31
0.0000
  0
LINE
  8
2
 10
0.2746
 20
-0.1506
 30
0.0000
 11
0.0994
 21
-0.7254
 31
0.0000
  0
LINE
  8
2
 10
0.0994
 20
-0.7254
 30
0.0000
 11
0.2244
 21
-1.0256
 31
0.0000
  0
LINE
  8
2
 10
0.2244
 20
-1.0256
 30
0.0000
 11
0.2500
 21
-1.6250
 31
0.0000
  0
LINE
  8
2
 10
0.2500
 20
-1.6250
 30
0.0000
 11
0.5246
 21
-1.6004
 31
0.0000
  0
LINE
  8
2
 10
0.2992
 20
0.5994
 30
0.0000
 11
0.5994
 21
0.5748
 31
0.0000
  0
LINE
  8
2
 10
0.5994
 20
0.5748
 30
0.0000
 11
0.6742
 21
0.8494
 31
0.0000
  0
LINE
  8
2
 10
0.6742
 20
0.8494
 30
0.0000
 11
0.6250
 21
1.1496
 31
0.0000
  0
LINE
  8
2
 10
0.6250
 20
1.1496
 30
0.0000
 11
0.2746
 21
1.2244
 31
0.0000
  0
LINE
  8
2
 10
0.2746
 20
1.2244
 30
0.0000
 11
0.2500
 21
0.6998
 31
0.0000
  0
LINE
  8
2
 10
0.2500
 20
0.6998
 30
0.0000
 11
0.2992
 21
0.5994
 31
0.0000
  0
TEXT
  8
2
 10
0.6033
 20
-0.0118
 30
0.0000
 40
0.0728
  1
B
  0
TEXT
  8
2
 10
0.6033
 20
-1.8868
 30
0.0000
 40
0.0728
  1
B
  0
TEXT
  8
2
 10
0.5276
 20
1.5236
 30
0.0000
 40
0.0728
  1
B
  0
TEXT
  8
2
 10
0.3130
 20
1.8730
 30
0.0000
 40
0.0728
  1
B
  0
TEXT
  8
2
 10
0.6033
 20
0.3386
 30
0.0000
 40
0.0728
  1
B
  0
TEXT
  8
2
 10
0.1781
 20
-0.7618
 30
0.0000
 40
0.0728
  1
A
  0
TEXT
  8
2
 10
0.5778
 20
0.8386
 30
0.0000
 40
0.0728
  1
A
  0
TEXT
  8
2
 10
3.1496
 20
-2.8868
 30
0.0000
 40
0.0728
  1
*: DENOTES .050 PADS NOT SHOWN
  0
TEXT
  8
2
 10
3.4026
 20
-2.6870
 30
0.0000
 40
0.0728
  1
B
  0
TEXT
  8
2
 10
3.4026
 20
-2.4862
 30
0.0000
 40
0.0728
  1
A
  0
TEXT
  8
2
 10
3.3061
 20
-2.2864
 30
0.0000
 40
0.0728
  1
NONE
  0
TEXT
  8
2
 10
3.4026
 20
-2.0866
 30
0.0000
 40
0.0728
  1
*
  0
TEXT
  8
2
 10
4.7451
 20
-2.4862
 30
0.0000
 40
0.0728
  1
34
  0
TEXT
  8
2
 10
3.6614
 20
-2.6870
 30
0.0000
 40
0.0728
  1
.125  +/- .004
  0
TEXT
  8
2
 10
3.6614
 20
-2.4862
 30
0.0000
 40
0.0728
  1
.055  +/- .003
  0
TEXT
  8
2
 10
3.6614
 20
-2.2864
 30
0.0000
 40
0.0728
  1
.040  +/- .003
  0
TEXT
  8
2
 10
3.6614
 20
-2.0866
 30
0.0000
 40
0.0728
  1
.025  +/- .003
  0
LINE
  8
2
 10
3.2500
 20
-2.3504
 30
0.0000
 11
5.0000
 21
-2.3504
 31
0.0000
  0
LINE
  8
2
 10
5.0000
 20
-2.5502
 30
0.0000
 11
3.2500
 21
-2.5502
 31
0.0000
  0
LINE
  8
2
 10
3.2500
 20
-2.1506
 30
0.0000
 11
3.2500
 21
-2.7500
 31
0.0000
  0
LINE
  8
2
 10
3.2500
 20
-2.7500
 30
0.0000
 11
5.0000
 21
-2.7500
 31
0.0000
  0
LINE
  8
2
 10
5.0000
 20
-2.7500
 30
0.0000
 11
5.0000
 21
-2.1506
 31
0.0000
  0
LINE
  8
2
 10
4.5994
 20
-2.1506
 30
0.0000
 11
4.5994
 21
-2.7500
 31
0.0000
  0
LINE
  8
2
 10
3.5994
 20
-2.1506
 30
0.0000
 11
3.5994
 21
-2.7500
 31
0.0000
  0
TEXT
  8
2
 10
0.0551
 20
-2.8002
 30
0.0000
 40
0.0709
  1
5.470
 50
90.0000
  0
TEXT
  8
2
 10
0.7549
 20
-2.8002
 30
0.0000
 40
0.0709
  1
6.170
 50
90.0000
  0
TEXT
  8
2
 10
-0.1348
 20
-2.8002
 30
0.0000
 40
0.0709
  1
5.280
 50
90.0000
  0
TEXT
  8
2
 10
-3.3150
 20
-2.8002
 30
0.0000
 40
0.0709
  1
2.100
 50
90.0000
  0
TEXT
  8
2
 10
-6.1860
 20
2.2146
 30
0.0000
 40
0.0709
  1
4.200
  0
TEXT
  8
2
 10
1.2411
 20
-1.5148
 30
0.0000
 40
0.0797
  1
5
  0
LINE
  8
2
 10
1.1644
 20
-1.5748
 30
0.0000
 11
1.3642
 21
-1.5748
 31
0.0000
  0
LINE
  8
2
 10
1.3642
 20
-1.5748
 30
0.0000
 11
1.3642
 21
-1.3750
 31
0.0000
  0
LINE
  8
2
 10
1.3642
 20
-1.3750
 30
0.0000
 11
1.1644
 21
-1.3750
 31
0.0000
  0
LINE
  8
2
 10
1.1644
 20
-1.3750
 30
0.0000
 11
1.1644
 21
-1.5748
 31
0.0000
  0
TEXT
  8
2
 10
1.1142
 20
-1.6860
 30
0.0000
 40
0.0709
  1
.300 (REF)
  0
TEXT
  8
2
 10
-5.4154
 20
-2.5522
 30
0.0000
 40
0.0709
  1
0
 50
90.0000
  0
TEXT
  8
2
 10
-5.9528
 20
-1.9852
 30
0.0000
 40
0.0709
  1
0
  0
LINE
  8
2
 10
-5.4508
 20
-1.6998
 30
0.0000
 11
-5.4508
 21
-2.4498
 31
0.0000
  0
LINE
  8
2
 10
-3.3504
 20
-2.0256
 30
0.0000
 11
-3.3504
 21
-2.4498
 31
0.0000
  0
LINE
  8
2
 10
-0.1703
 20
-2.0000
 30
0.0000
 11
-0.1703
 21
-2.4498
 31
0.0000
  0
LINE
  8
2
 10
0.7195
 20
-2.0000
 30
0.0000
 11
0.7195
 21
-2.4498
 31
0.0000
  0
LINE
  8
2
 10
0.0197
 20
-2.0000
 30
0.0000
 11
0.0197
 21
-2.4498
 31
0.0000
  0
LINE
  8
2
 10
0.0492
 20
-1.6506
 30
0.0000
 11
1.0492
 21
-1.6506
 31
0.0000
  0
LINE
  8
2
 10
-3.4252
 20
-1.9498
 30
0.0000
 11
-5.8504
 21
-1.9498
 31
0.0000
  0
LINE
  8
2
 10
-5.5256
 20
-1.6506
 30
0.0000
 11
-5.8504
 21
-1.6506
 31
0.0000
  0
LINE
  8
2
 10
-5.5256
 20
2.2500
 30
0.0000
 11
-5.8504
 21
2.2500
 31
0.0000
  0
CIRCLE
  8
5
 10
-1.0502
 20
-0.1506
 30
0.0000
 40
0.0354
  0
CIRCLE
  8
5
 10
-0.9508
 20
-0.1506
 30
0.0000
 40
0.0354
  0
CIRCLE
  8
5
 10
-5.2756
 20
0.4498
 30
0.0000
 40
0.0354
  0
CIRCLE
  8
5
 10
-5.1752
 20
0.4498
 30
0.0000
 40
0.0354
  0
CIRCLE
  8
5
 10
-5.2756
 20
1.6496
 30
0.0000
 40
0.0354
  0
CIRCLE
  8
5
 10
-5.1752
 20
1.6496
 30
0.0000
 40
0.0354
  0
CIRCLE
  8
5
 10
-3.1004
 20
0.3248
 30
0.0000
 40
0.0354
  0
CIRCLE
  8
5
 10
-3.1004
 20
0.2244
 30
0.0000
 40
0.0354
  0
CIRCLE
  8
5
 10
-5.2756
 20
1.0502
 30
0.0000
 40
0.0354
  0
CIRCLE
  8
5
 10
-5.1752
 20
1.0502
 30
0.0000
 40
0.0354
  0
CIRCLE
  8
5
 10
-3.8750
 20
1.0502
 30
0.0000
 40
0.0354
  0
CIRCLE
  8
5
 10
-3.7756
 20
1.0502
 30
0.0000
 40
0.0354
  0
CIRCLE
  8
5
 10
-1.9508
 20
-0.3002
 30
0.0000
 40
0.0354
  0
CIRCLE
  8
5
 10
-1.9508
 20
-0.4006
 30
0.0000
 40
0.0354
  0
CIRCLE
  8
5
 10
-3.8750
 20
0.4498
 30
0.0000
 40
0.0354
  0
CIRCLE
  8
5
 10
-3.7756
 20
0.4498
 30
0.0000
 40
0.0354
  0
CIRCLE
  8
5
 10
-2.1250
 20
-0.7500
 30
0.0000
 40
0.0354
  0
CIRCLE
  8
5
 10
-2.0256
 20
-0.7500
 30
0.0000
 40
0.0354
  0
CIRCLE
  8
5
 10
-1.0502
 20
1.7500
 30
0.0000
 40
0.0354
  0
CIRCLE
  8
5
 10
-0.9508
 20
1.7500
 30
0.0000
 40
0.0354
  0
LINE
  8
5
 10
-0.8150
 20
0.5896
 30
0.0000
 11
-0.8150
 21
0.6594
 31
0.0000
  0
LINE
  8
5
 10
-0.8150
 20
0.6594
 30
0.0000
 11
-0.8858
 21
0.6594
 31
0.0000
  0
LINE
  8
5
 10
-0.8858
 20
0.6594
 30
0.0000
 11
-0.8858
 21
0.5896
 31
0.0000
  0
LINE
  8
5
 10
-0.8858
 20
0.5896
 30
0.0000
 11
-0.8150
 21
0.5896
 31
0.0000
  0
CIRCLE
  8
5
 10
-0.7500
 20
0.6250
 30
0.0000
 40
0.0354
  0
CIRCLE
  8
5
 10
-0.6506
 20
0.6250
 30
0.0000
 40
0.0354
  0
CIRCLE
  8
5
 10
-0.5502
 20
0.6250
 30
0.0000
 40
0.0354
  0
CIRCLE
  8
5
 10
-0.4508
 20
0.6250
 30
0.0000
 40
0.0354
  0
CIRCLE
  8
5
 10
-0.3504
 20
0.6250
 30
0.0000
 40
0.0354
  0
CIRCLE
  8
5
 10
-0.2500
 20
0.6250
 30
0.0000
 40
0.0354
  0
CIRCLE
  8
5
 10
-0.1506
 20
0.6250
 30
0.0000
 40
0.0354
  0
CIRCLE
  8
5
 10
-0.1506
 20
0.9252
 30
0.0000
 40
0.0354
  0
CIRCLE
  8
5
 10
-0.2500
 20
0.9252
 30
0.0000
 40
0.0354
  0
CIRCLE
  8
5
 10
-0.3504
 20
0.9252
 30
0.0000
 40
0.0354
  0
CIRCLE
  8
5
 10
-0.4508
 20
0.9252
 30
0.0000
 40
0.0354
  0
CIRCLE
  8
5
 10
-0.5502
 20
0.9252
 30
0.0000
 40
0.0354
  0
CIRCLE
  8
5
 10
-0.6506
 20
0.9252
 30
0.0000
 40
0.0354
  0
CIRCLE
  8
5
 10
-0.7500
 20
0.9252
 30
0.0000
 40
0.0354
  0
CIRCLE
  8
5
 10
-0.8504
 20
0.9252
 30
0.0000
 40
0.0354
  0
LINE
  8
5
 10
-5.2402
 20
-0.6102
 30
0.0000
 11
-5.2402
 21
-0.5404
 31
0.0000
  0
LINE
  8
5
 10
-5.2402
 20
-0.5404
 30
0.0000
 11
-5.3100
 21
-0.5404
 31
0.0000
  0
LINE
  8
5
 10
-5.3100
 20
-0.5404
 30
0.0000
 11
-5.3100
 21
-0.6102
 31
0.0000
  0
LINE
  8
5
 10
-5.3100
 20
-0.6102
 30
0.0000
 11
-5.2402
 21
-0.6102
 31
0.0000
  0
CIRCLE
  8
5
 10
-5.1752
 20
-0.5748
 30
0.0000
 40
0.0354
  0
CIRCLE
  8
5
 10
-5.0758
 20
-0.5748
 30
0.0000
 40
0.0354
  0
CIRCLE
  8
5
 10
-4.9754
 20
-0.5748
 30
0.0000
 40
0.0354
  0
CIRCLE
  8
5
 10
-4.8750
 20
-0.5748
 30
0.0000
 40
0.0354
  0
CIRCLE
  8
5
 10
-4.7756
 20
-0.5748
 30
0.0000
 40
0.0354
  0
CIRCLE
  8
5
 10
-4.6752
 20
-0.5748
 30
0.0000
 40
0.0354
  0
CIRCLE
  8
5
 10
-4.5758
 20
-0.5748
 30
0.0000
 40
0.0354
  0
CIRCLE
  8
5
 10
-4.5758
 20
-0.2756
 30
0.0000
 40
0.0354
  0
CIRCLE
  8
5
 10
-4.6752
 20
-0.2756
 30
0.0000
 40
0.0354
  0
CIRCLE
  8
5
 10
-4.7756
 20
-0.2756
 30
0.0000
 40
0.0354
  0
CIRCLE
  8
5
 10
-4.8750
 20
-0.2756
 30
0.0000
 40
0.0354
  0
CIRCLE
  8
5
 10
-4.9754
 20
-0.2756
 30
0.0000
 40
0.0354
  0
CIRCLE
  8
5
 10
-5.0758
 20
-0.2756
 30
0.0000
 40
0.0354
  0
CIRCLE
  8
5
 10
-5.1752
 20
-0.2756
 30
0.0000
 40
0.0354
  0
CIRCLE
  8
5
 10
-5.2756
 20
-0.2756
 30
0.0000
 40
0.0354
  0
LINE
  8
5
 10
-2.6102
 20
2.1102
 30
0.0000
 11
-2.6102
 21
2.0394
 31
0.0000
  0
LINE
  8
5
 10
-2.6102
 20
2.0394
 30
0.0000
 11
-2.5404
 21
2.0394
 31
0.0000
  0
LINE
  8
5
 10
-2.5404
 20
2.0394
 30
0.0000
 11
-2.5404
 21
2.1102
 31
0.0000
  0
LINE
  8
5
 10
-2.5404
 20
2.1102
 30
0.0000
 11
-2.6102
 21
2.1102
 31
0.0000
  0
CIRCLE
  8
5
 10
-2.6752
 20
2.0748
 30
0.0000
 40
0.0354
  0
CIRCLE
  8
5
 10
-2.7756
 20
2.0748
 30
0.0000
 40
0.0354
  0
CIRCLE
  8
5
 10
-2.8750
 20
2.0748
 30
0.0000
 40
0.0354
  0
CIRCLE
  8
5
 10
-2.9754
 20
2.0748
 30
0.0000
 40
0.0354
  0
CIRCLE
  8
5
 10
-3.0758
 20
2.0748
 30
0.0000
 40
0.0354
  0
CIRCLE
  8
5
 10
-3.1752
 20
2.0748
 30
0.0000
 40
0.0354
  0
CIRCLE
  8
5
 10
-3.2756
 20
2.0748
 30
0.0000
 40
0.0354
  0
CIRCLE
  8
5
 10
-3.2756
 20
1.7746
 30
0.0000
 40
0.0354
  0
CIRCLE
  8
5
 10
-3.1752
 20
1.7746
 30
0.0000
 40
0.0354
  0
CIRCLE
  8
5
 10
-3.0758
 20
1.7746
 30
0.0000
 40
0.0354
  0
CIRCLE
  8
5
 10
-2.9754
 20
1.7746
 30
0.0000
 40
0.0354
  0
CIRCLE
  8
5
 10
-2.8750
 20
1.7746
 30
0.0000
 40
0.0354
  0
CIRCLE
  8
5
 10
-2.7756
 20
1.7746
 30
0.0000
 40
0.0354
  0
CIRCLE
  8
5
 10
-2.6752
 20
1.7746
 30
0.0000
 40
0.0354
  0
CIRCLE
  8
5
 10
-2.5758
 20
1.7746
 30
0.0000
 40
0.0354
  0
LINE
  8
5
 10
-0.8150
 20
-0.0098
 30
0.0000
 11
-0.8150
 21
0.0600
 31
0.0000
  0
LINE
  8
5
 10
-0.8150
 20
0.0600
 30
0.0000
 11
-0.8858
 21
0.0600
 31
0.0000
  0
LINE
  8
5
 10
-0.8858
 20
0.0600
 30
0.0000
 11
-0.8858
 21
-0.0098
 31
0.0000
  0
LINE
  8
5
 10
-0.8858
 20
-0.0098
 30
0.0000
 11
-0.8150
 21
-0.0098
 31
0.0000
  0
CIRCLE
  8
5
 10
-0.7500
 20
0.0246
 30
0.0000
 40
0.0354
  0
CIRCLE
  8
5
 10
-0.6506
 20
0.0246
 30
0.0000
 40
0.0354
  0
CIRCLE
  8
5
 10
-0.5502
 20
0.0246
 30
0.0000
 40
0.0354
  0
CIRCLE
  8
5
 10
-0.4508
 20
0.0246
 30
0.0000
 40
0.0354
  0
CIRCLE
  8
5
 10
-0.3504
 20
0.0246
 30
0.0000
 40
0.0354
  0
CIRCLE
  8
5
 10
-0.2500
 20
0.0246
 30
0.0000
 40
0.0354
  0
CIRCLE
  8
5
 10
-0.1506
 20
0.0246
 30
0.0000
 40
0.0354
  0
CIRCLE
  8
5
 10
-0.1506
 20
0.3248
 30
0.0000
 40
0.0354
  0
CIRCLE
  8
5
 10
-0.2500
 20
0.3248
 30
0.0000
 40
0.0354
  0
CIRCLE
  8
5
 10
-0.3504
 20
0.3248
 30
0.0000
 40
0.0354
  0
CIRCLE
  8
5
 10
-0.4508
 20
0.3248
 30
0.0000
 40
0.0354
  0
CIRCLE
  8
5
 10
-0.5502
 20
0.3248
 30
0.0000
 40
0.0354
  0
CIRCLE
  8
5
 10
-0.6506
 20
0.3248
 30
0.0000
 40
0.0354
  0
CIRCLE
  8
5
 10
-0.7500
 20
0.3248
 30
0.0000
 40
0.0354
  0
CIRCLE
  8
5
 10
-0.8504
 20
0.3248
 30
0.0000
 40
0.0354
  0
LINE
  8
5
 10
-1.3100
 20
2.1102
 30
0.0000
 11
-1.3100
 21
2.0394
 31
0.0000
  0
LINE
  8
5
 10
-1.3100
 20
2.0394
 30
0.0000
 11
-1.2402
 21
2.0394
 31
0.0000
  0
LINE
  8
5
 10
-1.2402
 20
2.0394
 30
0.0000
 11
-1.2402
 21
2.1102
 31
0.0000
  0
LINE
  8
5
 10
-1.2402
 20
2.1102
 30
0.0000
 11
-1.3100
 21
2.1102
 31
0.0000
  0
CIRCLE
  8
5
 10
-1.3750
 20
2.0748
 30
0.0000
 40
0.0354
  0
CIRCLE
  8
5
 10
-1.4754
 20
2.0748
 30
0.0000
 40
0.0354
  0
CIRCLE
  8
5
 10
-1.5758
 20
2.0748
 30
0.0000
 40
0.0354
  0
CIRCLE
  8
5
 10
-1.6752
 20
2.0748
 30
0.0000
 40
0.0354
  0
CIRCLE
  8
5
 10
-1.7756
 20
2.0748
 30
0.0000
 40
0.0354
  0
CIRCLE
  8
5
 10
-1.8750
 20
2.0748
 30
0.0000
 40
0.0354
  0
CIRCLE
  8
5
 10
-1.9754
 20
2.0748
 30
0.0000
 40
0.0354
  0
CIRCLE
  8
5
 10
-2.0758
 20
2.0748
 30
0.0000
 40
0.0354
  0
CIRCLE
  8
5
 10
-2.0758
 20
1.4744
 30
0.0000
 40
0.0354
  0
CIRCLE
  8
5
 10
-1.9754
 20
1.4744
 30
0.0000
 40
0.0354
  0
CIRCLE
  8
5
 10
-1.8750
 20
1.4744
 30
0.0000
 40
0.0354
  0
CIRCLE
  8
5
 10
-1.7756
 20
1.4744
 30
0.0000
 40
0.0354
  0
CIRCLE
  8
5
 10
-1.6752
 20
1.4744
 30
0.0000
 40
0.0354
  0
CIRCLE
  8
5
 10
-1.5758
 20
1.4744
 30
0.0000
 40
0.0354
  0
CIRCLE
  8
5
 10
-1.4754
 20
1.4744
 30
0.0000
 40
0.0354
  0
CIRCLE
  8
5
 10
-1.3750
 20
1.4744
 30
0.0000
 40
0.0354
  0
CIRCLE
  8
5
 10
-1.2756
 20
1.4744
 30
0.0000
 40
0.0354
  0
CIRCLE
  8
5
 10
-2.1752
 20
2.0748
 30
0.0000
 40
0.0354
  0
CIRCLE
  8
5
 10
-2.2756
 20
2.0748
 30
0.0000
 40
0.0354
  0
CIRCLE
  8
5
 10
-2.3750
 20
2.0748
 30
0.0000
 40
0.0354
  0
CIRCLE
  8
5
 10
-2.3750
 20
1.4744
 30
0.0000
 40
0.0354
  0
CIRCLE
  8
5
 10
-2.2756
 20
1.4744
 30
0.0000
 40
0.0354
  0
CIRCLE
  8
5
 10
-2.1752
 20
1.4744
 30
0.0000
 40
0.0354
  0
LINE
  8
5
 10
-5.2402
 20
1.1900
 30
0.0000
 11
-5.2402
 21
1.2598
 31
0.0000
  0
LINE
  8
5
 10
-5.2402
 20
1.2598
 30
0.0000
 11
-5.3100
 21
1.2598
 31
0.0000
  0
LINE
  8
5
 10
-5.3100
 20
1.2598
 30
0.0000
 11
-5.3100
 21
1.1900
 31
0.0000
  0
LINE
  8
5
 10
-5.3100
 20
1.1900
 30
0.0000
 11
-5.2402
 21
1.1900
 31
0.0000
  0
CIRCLE
  8
5
 10
-5.1752
 20
1.2244
 30
0.0000
 40
0.0354
  0
CIRCLE
  8
5
 10
-5.0758
 20
1.2244
 30
0.0000
 40
0.0354
  0
CIRCLE
  8
5
 10
-4.9754
 20
1.2244
 30
0.0000
 40
0.0354
  0
CIRCLE
  8
5
 10
-4.8750
 20
1.2244
 30
0.0000
 40
0.0354
  0
CIRCLE
  8
5
 10
-4.7756
 20
1.2244
 30
0.0000
 40
0.0354
  0
CIRCLE
  8
5
 10
-4.6752
 20
1.2244
 30
0.0000
 40
0.0354
  0
CIRCLE
  8
5
 10
-4.6752
 20
1.5246
 30
0.0000
 40
0.0354
  0
CIRCLE
  8
5
 10
-4.7756
 20
1.5246
 30
0.0000
 40
0.0354
  0
CIRCLE
  8
5
 10
-4.8750
 20
1.5246
 30
0.0000
 40
0.0354
  0
CIRCLE
  8
5
 10
-4.9754
 20
1.5246
 30
0.0000
 40
0.0354
  0
CIRCLE
  8
5
 10
-5.0758
 20
1.5246
 30
0.0000
 40
0.0354
  0
CIRCLE
  8
5
 10
-5.1752
 20
1.5246
 30
0.0000
 40
0.0354
  0
CIRCLE
  8
5
 10
-5.2756
 20
1.5246
 30
0.0000
 40
0.0354
  0
LINE
  8
5
 10
-2.9400
 20
-0.0098
 30
0.0000
 11
-2.9400
 21
0.0600
 31
0.0000
  0
LINE
  8
5
 10
-2.9400
 20
0.0600
 30
0.0000
 11
-3.0108
 21
0.0600
 31
0.0000
  0
LINE
  8
5
 10
-3.0108
 20
0.0600
 30
0.0000
 11
-3.0108
 21
-0.0098
 31
0.0000
  0
LINE
  8
5
 10
-3.0108
 20
-0.0098
 30
0.0000
 11
-2.9400
 21
-0.0098
 31
0.0000
  0
CIRCLE
  8
5
 10
-2.8750
 20
0.0246
 30
0.0000
 40
0.0354
  0
CIRCLE
  8
5
 10
-2.7756
 20
0.0246
 30
0.0000
 40
0.0354
  0
CIRCLE
  8
5
 10
-2.6752
 20
0.0246
 30
0.0000
 40
0.0354
  0
CIRCLE
  8
5
 10
-2.5758
 20
0.0246
 30
0.0000
 40
0.0354
  0
CIRCLE
  8
5
 10
-2.4754
 20
0.0246
 30
0.0000
 40
0.0354
  0
CIRCLE
  8
5
 10
-2.3750
 20
0.0246
 30
0.0000
 40
0.0354
  0
CIRCLE
  8
5
 10
-2.3750
 20
0.3248
 30
0.0000
 40
0.0354
  0
CIRCLE
  8
5
 10
-2.4754
 20
0.3248
 30
0.0000
 40
0.0354
  0
CIRCLE
  8
5
 10
-2.5758
 20
0.3248
 30
0.0000
 40
0.0354
  0
CIRCLE
  8
5
 10
-2.6752
 20
0.3248
 30
0.0000
 40
0.0354
  0
CIRCLE
  8
5
 10
-2.7756
 20
0.3248
 30
0.0000
 40
0.0354
  0
CIRCLE
  8
5
 10
-2.8750
 20
0.3248
 30
0.0000
 40
0.0354
  0
CIRCLE
  8
5
 10
-2.9754
 20
0.3248
 30
0.0000
 40
0.0354
  0
LINE
  8
5
 10
-5.2402
 20
0.5896
 30
0.0000
 11
-5.2402
 21
0.6594
 31
0.0000
  0
LINE
  8
5
 10
-5.2402
 20
0.6594
 30
0.0000
 11
-5.3100
 21
0.6594
 31
0.0000
  0
LINE
  8
5
 10
-5.3100
 20
0.6594
 30
0.0000
 11
-5.3100
 21
0.5896
 31
0.0000
  0
LINE
  8
5
 10
-5.3100
 20
0.5896
 30
0.0000
 11
-5.2402
 21
0.5896
 31
0.0000
  0
CIRCLE
  8
5
 10
-5.1752
 20
0.6250
 30
0.0000
 40
0.0354
  0
CIRCLE
  8
5
 10
-5.0758
 20
0.6250
 30
0.0000
 40
0.0354
  0
CIRCLE
  8
5
 10
-4.9754
 20
0.6250
 30
0.0000
 40
0.0354
  0
CIRCLE
  8
5
 10
-4.8750
 20
0.6250
 30
0.0000
 40
0.0354
  0
CIRCLE
  8
5
 10
-4.7756
 20
0.6250
 30
0.0000
 40
0.0354
  0
CIRCLE
  8
5
 10
-4.6752
 20
0.6250
 30
0.0000
 40
0.0354
  0
CIRCLE
  8
5
 10
-4.6752
 20
0.9252
 30
0.0000
 40
0.0354
  0
CIRCLE
  8
5
 10
-4.7756
 20
0.9252
 30
0.0000
 40
0.0354
  0
CIRCLE
  8
5
 10
-4.8750
 20
0.9252
 30
0.0000
 40
0.0354
  0
CIRCLE
  8
5
 10
-4.9754
 20
0.9252
 30
0.0000
 40
0.0354
  0
CIRCLE
  8
5
 10
-5.0758
 20
0.9252
 30
0.0000
 40
0.0354
  0
CIRCLE
  8
5
 10
-5.1752
 20
0.9252
 30
0.0000
 40
0.0354
  0
CIRCLE
  8
5
 10
-5.2756
 20
0.9252
 30
0.0000
 40
0.0354
  0
LINE
  8
5
 10
-3.8406
 20
0.5896
 30
0.0000
 11
-3.8406
 21
0.6594
 31
0.0000
  0
LINE
  8
5
 10
-3.8406
 20
0.6594
 30
0.0000
 11
-3.9104
 21
0.6594
 31
0.0000
  0
LINE
  8
5
 10
-3.9104
 20
0.6594
 30
0.0000
 11
-3.9104
 21
0.5896
 31
0.0000
  0
LINE
  8
5
 10
-3.9104
 20
0.5896
 30
0.0000
 11
-3.8406
 21
0.5896
 31
0.0000
  0
CIRCLE
  8
5
 10
-3.7756
 20
0.6250
 30
0.0000
 40
0.0354
  0
CIRCLE
  8
5
 10
-3.6752
 20
0.6250
 30
0.0000
 40
0.0354
  0
CIRCLE
  8
5
 10
-3.5758
 20
0.6250
 30
0.0000
 40
0.0354
  0
CIRCLE
  8
5
 10
-3.4754
 20
0.6250
 30
0.0000
 40
0.0354
  0
CIRCLE
  8
5
 10
-3.3750
 20
0.6250
 30
0.0000
 40
0.0354
  0
CIRCLE
  8
5
 10
-3.2756
 20
0.6250
 30
0.0000
 40
0.0354
  0
CIRCLE
  8
5
 10
-3.2756
 20
0.9252
 30
0.0000
 40
0.0354
  0
CIRCLE
  8
5
 10
-3.3750
 20
0.9252
 30
0.0000
 40
0.0354
  0
CIRCLE
  8
5
 10
-3.4754
 20
0.9252
 30
0.0000
 40
0.0354
  0
CIRCLE
  8
5
 10
-3.5758
 20
0.9252
 30
0.0000
 40
0.0354
  0
CIRCLE
  8
5
 10
-3.6752
 20
0.9252
 30
0.0000
 40
0.0354
  0
CIRCLE
  8
5
 10
-3.7756
 20
0.9252
 30
0.0000
 40
0.0354
  0
CIRCLE
  8
5
 10
-3.8750
 20
0.9252
 30
0.0000
 40
0.0354
  0
LINE
  8
5
 10
-3.8406
 20
1.1900
 30
0.0000
 11
-3.8406
 21
1.2598
 31
0.0000
  0
LINE
  8
5
 10
-3.8406
 20
1.2598
 30
0.0000
 11
-3.9104
 21
1.2598
 31
0.0000
  0
LINE
  8
5
 10
-3.9104
 20
1.2598
 30
0.0000
 11
-3.9104
 21
1.1900
 31
0.0000
  0
LINE
  8
5
 10
-3.9104
 20
1.1900
 30
0.0000
 11
-3.8406
 21
1.1900
 31
0.0000
  0
CIRCLE
  8
5
 10
-3.7756
 20
1.2244
 30
0.0000
 40
0.0354
  0
CIRCLE
  8
5
 10
-3.6752
 20
1.2244
 30
0.0000
 40
0.0354
  0
CIRCLE
  8
5
 10
-3.5758
 20
1.2244
 30
0.0000
 40
0.0354
  0
CIRCLE
  8
5
 10
-3.4754
 20
1.2244
 30
0.0000
 40
0.0354
  0
CIRCLE
  8
5
 10
-3.3750
 20
1.2244
 30
0.0000
 40
0.0354
  0
CIRCLE
  8
5
 10
-3.2756
 20
1.2244
 30
0.0000
 40
0.0354
  0
CIRCLE
  8
5
 10
-3.2756
 20
1.5246
 30
0.0000
 40
0.0354
  0
CIRCLE
  8
5
 10
-3.3750
 20
1.5246
 30
0.0000
 40
0.0354
  0
CIRCLE
  8
5
 10
-3.4754
 20
1.5246
 30
0.0000
 40
0.0354
  0
CIRCLE
  8
5
 10
-3.5758
 20
1.5246
 30
0.0000
 40
0.0354
  0
CIRCLE
  8
5
 10
-3.6752
 20
1.5246
 30
0.0000
 40
0.0354
  0
CIRCLE
  8
5
 10
-3.7756
 20
1.5246
 30
0.0000
 40
0.0354
  0
CIRCLE
  8
5
 10
-3.8750
 20
1.5246
 30
0.0000
 40
0.0354
  0
LINE
  8
5
 10
-1.7904
 20
-0.6102
 30
0.0000
 11
-1.7904
 21
-0.5404
 31
0.0000
  0
LINE
  8
5
 10
-1.7904
 20
-0.5404
 30
0.0000
 11
-1.8602
 21
-0.5404
 31
0.0000
  0
LINE
  8
5
 10
-1.8602
 20
-0.5404
 30
0.0000
 11
-1.8602
 21
-0.6102
 31
0.0000
  0
LINE
  8
5
 10
-1.8602
 20
-0.6102
 30
0.0000
 11
-1.7904
 21
-0.6102
 31
0.0000
  0
CIRCLE
  8
5
 10
-1.7254
 20
-0.5748
 30
0.0000
 40
0.0354
  0
CIRCLE
  8
5
 10
-1.6250
 20
-0.5748
 30
0.0000
 40
0.0354
  0
CIRCLE
  8
5
 10
-1.5256
 20
-0.5748
 30
0.0000
 40
0.0354
  0
CIRCLE
  8
5
 10
-1.4252
 20
-0.5748
 30
0.0000
 40
0.0354
  0
CIRCLE
  8
5
 10
-1.3258
 20
-0.5748
 30
0.0000
 40
0.0354
  0
CIRCLE
  8
5
 10
-1.2254
 20
-0.5748
 30
0.0000
 40
0.0354
  0
CIRCLE
  8
5
 10
-1.2254
 20
-0.2756
 30
0.0000
 40
0.0354
  0
CIRCLE
  8
5
 10
-1.3258
 20
-0.2756
 30
0.0000
 40
0.0354
  0
CIRCLE
  8
5
 10
-1.4252
 20
-0.2756
 30
0.0000
 40
0.0354
  0
CIRCLE
  8
5
 10
-1.5256
 20
-0.2756
 30
0.0000
 40
0.0354
  0
CIRCLE
  8
5
 10
-1.6250
 20
-0.2756
 30
0.0000
 40
0.0354
  0
CIRCLE
  8
5
 10
-1.7254
 20
-0.2756
 30
0.0000
 40
0.0354
  0
CIRCLE
  8
5
 10
-1.8258
 20
-0.2756
 30
0.0000
 40
0.0354
  0
LINE
  8
5
 10
-3.8406
 20
-0.0098
 30
0.0000
 11
-3.8406
 21
0.0600
 31
0.0000
  0
LINE
  8
5
 10
-3.8406
 20
0.0600
 30
0.0000
 11
-3.9104
 21
0.0600
 31
0.0000
  0
LINE
  8
5
 10
-3.9104
 20
0.0600
 30
0.0000
 11
-3.9104
 21
-0.0098
 31
0.0000
  0
LINE
  8
5
 10
-3.9104
 20
-0.0098
 30
0.0000
 11
-3.8406
 21
-0.0098
 31
0.0000
  0
CIRCLE
  8
5
 10
-3.7756
 20
0.0246
 30
0.0000
 40
0.0354
  0
CIRCLE
  8
5
 10
-3.6752
 20
0.0246
 30
0.0000
 40
0.0354
  0
CIRCLE
  8
5
 10
-3.5758
 20
0.0246
 30
0.0000
 40
0.0354
  0
CIRCLE
  8
5
 10
-3.4754
 20
0.0246
 30
0.0000
 40
0.0354
  0
CIRCLE
  8
5
 10
-3.3750
 20
0.0246
 30
0.0000
 40
0.0354
  0
CIRCLE
  8
5
 10
-3.2756
 20
0.0246
 30
0.0000
 40
0.0354
  0
CIRCLE
  8
5
 10
-3.2756
 20
0.3248
 30
0.0000
 40
0.0354
  0
CIRCLE
  8
5
 10
-3.3750
 20
0.3248
 30
0.0000
 40
0.0354
  0
CIRCLE
  8
5
 10
-3.4754
 20
0.3248
 30
0.0000
 40
0.0354
  0
CIRCLE
  8
5
 10
-3.5758
 20
0.3248
 30
0.0000
 40
0.0354
  0
CIRCLE
  8
5
 10
-3.6752
 20
0.3248
 30
0.0000
 40
0.0354
  0
CIRCLE
  8
5
 10
-3.7756
 20
0.3248
 30
0.0000
 40
0.0354
  0
CIRCLE
  8
5
 10
-3.8750
 20
0.3248
 30
0.0000
 40
0.0354
  0
LINE
  8
5
 10
-5.2402
 20
-0.0098
 30
0.0000
 11
-5.2402
 21
0.0600
 31
0.0000
  0
LINE
  8
5
 10
-5.2402
 20
0.0600
 30
0.0000
 11
-5.3100
 21
0.0600
 31
0.0000
  0
LINE
  8
5
 10
-5.3100
 20
0.0600
 30
0.0000
 11
-5.3100
 21
-0.0098
 31
0.0000
  0
LINE
  8
5
 10
-5.3100
 20
-0.0098
 30
0.0000
 11
-5.2402
 21
-0.0098
 31
0.0000
  0
CIRCLE
  8
5
 10
-5.1752
 20
0.0246
 30
0.0000
 40
0.0354
  0
CIRCLE
  8
5
 10
-5.0758
 20
0.0246
 30
0.0000
 40
0.0354
  0
CIRCLE
  8
5
 10
-4.9754
 20
0.0246
 30
0.0000
 40
0.0354
  0
CIRCLE
  8
5
 10
-4.8750
 20
0.0246
 30
0.0000
 40
0.0354
  0
CIRCLE
  8
5
 10
-4.7756
 20
0.0246
 30
0.0000
 40
0.0354
  0
CIRCLE
  8
5
 10
-4.6752
 20
0.0246
 30
0.0000
 40
0.0354
  0
CIRCLE
  8
5
 10
-4.6752
 20
0.3248
 30
0.0000
 40
0.0354
  0
CIRCLE
  8
5
 10
-4.7756
 20
0.3248
 30
0.0000
 40
0.0354
  0
CIRCLE
  8
5
 10
-4.8750
 20
0.3248
 30
0.0000
 40
0.0354
  0
CIRCLE
  8
5
 10
-4.9754
 20
0.3248
 30
0.0000
 40
0.0354
  0
CIRCLE
  8
5
 10
-5.0758
 20
0.3248
 30
0.0000
 40
0.0354
  0
CIRCLE
  8
5
 10
-5.1752
 20
0.3248
 30
0.0000
 40
0.0354
  0
CIRCLE
  8
5
 10
-5.2756
 20
0.3248
 30
0.0000
 40
0.0354
  0
LINE
  8
5
 10
-2.9400
 20
0.4902
 30
0.0000
 11
-2.9400
 21
0.5600
 31
0.0000
  0
LINE
  8
5
 10
-2.9400
 20
0.5600
 30
0.0000
 11
-3.0108
 21
0.5600
 31
0.0000
  0
LINE
  8
5
 10
-3.0108
 20
0.5600
 30
0.0000
 11
-3.0108
 21
0.4902
 31
0.0000
  0
LINE
  8
5
 10
-3.0108
 20
0.4902
 30
0.0000
 11
-2.9400
 21
0.4902
 31
0.0000
  0
CIRCLE
  8
5
 10
-2.8750
 20
0.5246
 30
0.0000
 40
0.0354
  0
CIRCLE
  8
5
 10
-2.7756
 20
0.5246
 30
0.0000
 40
0.0354
  0
CIRCLE
  8
5
 10
-2.6752
 20
0.5246
 30
0.0000
 40
0.0354
  0
CIRCLE
  8
5
 10
-2.5758
 20
0.5246
 30
0.0000
 40
0.0354
  0
CIRCLE
  8
5
 10
-2.4754
 20
0.5246
 30
0.0000
 40
0.0354
  0
CIRCLE
  8
5
 10
-2.3750
 20
0.5246
 30
0.0000
 40
0.0354
  0
CIRCLE
  8
5
 10
-2.2756
 20
0.5246
 30
0.0000
 40
0.0354
  0
CIRCLE
  8
5
 10
-2.1752
 20
0.5246
 30
0.0000
 40
0.0354
  0
CIRCLE
  8
5
 10
-2.0758
 20
0.5246
 30
0.0000
 40
0.0354
  0
CIRCLE
  8
5
 10
-1.9754
 20
0.5246
 30
0.0000
 40
0.0354
  0
CIRCLE
  8
5
 10
-1.8750
 20
0.5246
 30
0.0000
 40
0.0354
  0
CIRCLE
  8
5
 10
-1.7756
 20
0.5246
 30
0.0000
 40
0.0354
  0
CIRCLE
  8
5
 10
-1.6752
 20
0.5246
 30
0.0000
 40
0.0354
  0
CIRCLE
  8
5
 10
-1.5758
 20
0.5246
 30
0.0000
 40
0.0354
  0
CIRCLE
  8
5
 10
-1.4754
 20
0.5246
 30
0.0000
 40
0.0354
  0
CIRCLE
  8
5
 10
-1.3750
 20
0.5246
 30
0.0000
 40
0.0354
  0
CIRCLE
  8
5
 10
-1.2756
 20
0.5246
 30
0.0000
 40
0.0354
  0
CIRCLE
  8
5
 10
-1.1752
 20
0.5246
 30
0.0000
 40
0.0354
  0
CIRCLE
  8
5
 10
-1.0758
 20
0.5246
 30
0.0000
 40
0.0354
  0
CIRCLE
  8
5
 10
-1.0758
 20
1.1250
 30
0.0000
 40
0.0354
  0
CIRCLE
  8
5
 10
-1.1752
 20
1.1250
 30
0.0000
 40
0.0354
  0
CIRCLE
  8
5
 10
-1.2756
 20
1.1250
 30
0.0000
 40
0.0354
  0
CIRCLE
  8
5
 10
-1.3750
 20
1.1250
 30
0.0000
 40
0.0354
  0
CIRCLE
  8
5
 10
-1.4754
 20
1.1250
 30
0.0000
 40
0.0354
  0
CIRCLE
  8
5
 10
-1.5758
 20
1.1250
 30
0.0000
 40
0.0354
  0
CIRCLE
  8
5
 10
-1.6752
 20
1.1250
 30
0.0000
 40
0.0354
  0
CIRCLE
  8
5
 10
-1.7756
 20
1.1250
 30
0.0000
 40
0.0354
  0
CIRCLE
  8
5
 10
-1.8750
 20
1.1250
 30
0.0000
 40
0.0354
  0
CIRCLE
  8
5
 10
-1.9754
 20
1.1250
 30
0.0000
 40
0.0354
  0
CIRCLE
  8
5
 10
-2.0758
 20
1.1250
 30
0.0000
 40
0.0354
  0
CIRCLE
  8
5
 10
-2.1752
 20
1.1250
 30
0.0000
 40
0.0354
  0
CIRCLE
  8
5
 10
-2.2756
 20
1.1250
 30
0.0000
 40
0.0354
  0
CIRCLE
  8
5
 10
-2.3750
 20
1.1250
 30
0.0000
 40
0.0354
  0
CIRCLE
  8
5
 10
-2.4754
 20
1.1250
 30
0.0000
 40
0.0354
  0
CIRCLE
  8
5
 10
-2.5758
 20
1.1250
 30
0.0000
 40
0.0354
  0
CIRCLE
  8
5
 10
-2.6752
 20
1.1250
 30
0.0000
 40
0.0354
  0
CIRCLE
  8
5
 10
-2.7756
 20
1.1250
 30
0.0000
 40
0.0354
  0
CIRCLE
  8
5
 10
-2.8750
 20
1.1250
 30
0.0000
 40
0.0354
  0
CIRCLE
  8
5
 10
-2.9754
 20
1.1250
 30
0.0000
 40
0.0354
  0
CIRCLE
  8
5
 10
-0.8504
 20
1.0748
 30
0.0000
 40
0.0354
  0
CIRCLE
  8
5
 10
-0.7500
 20
1.0748
 30
0.0000
 40
0.0354
  0
CIRCLE
  8
5
 10
-5.2756
 20
-0.1506
 30
0.0000
 40
0.0354
  0
CIRCLE
  8
5
 10
-5.1752
 20
-0.1506
 30
0.0000
 40
0.0354
  0
CIRCLE
  8
5
 10
-2.5758
 20
1.6496
 30
0.0000
 40
0.0354
  0
CIRCLE
  8
5
 10
-2.6752
 20
1.6496
 30
0.0000
 40
0.0354
  0
CIRCLE
  8
5
 10
-3.8750
 20
1.6496
 30
0.0000
 40
0.0354
  0
CIRCLE
  8
5
 10
-3.7756
 20
1.6496
 30
0.0000
 40
0.0354
  0
CIRCLE
  8
5
 10
-4.1250
 20
1.0000
 30
0.0000
 40
0.0354
  0
CIRCLE
  8
5
 10
-4.2254
 20
1.0000
 30
0.0000
 40
0.0354
  0
CIRCLE
  8
5
 10
-1.2756
 20
1.3248
 30
0.0000
 40
0.0354
  0
CIRCLE
  8
5
 10
-1.3750
 20
1.3248
 30
0.0000
 40
0.0354
  0
CIRCLE
  8
5
 10
-3.8750
 20
-0.1506
 30
0.0000
 40
0.0354
  0
CIRCLE
  8
5
 10
-3.7756
 20
-0.1506
 30
0.0000
 40
0.0354
  0
CIRCLE
  8
5
 10
-1.5758
 20
1.3248
 30
0.0000
 40
0.0354
  0
CIRCLE
  8
5
 10
-1.4754
 20
1.3248
 30
0.0000
 40
0.0354
  0
CIRCLE
  8
5
 10
-3.8750
 20
-0.7500
 30
0.0000
 40
0.0354
  0
CIRCLE
  8
5
 10
-3.7756
 20
-0.7500
 30
0.0000
 40
0.0354
  0
CIRCLE
  8
5
 10
-1.0502
 20
-0.7500
 30
0.0000
 40
0.0354
  0
CIRCLE
  8
5
 10
-0.9508
 20
-0.7500
 30
0.0000
 40
0.0354
  0
CIRCLE
  8
5
 10
-0.8504
 20
0.4498
 30
0.0000
 40
0.0354
  0
CIRCLE
  8
5
 10
-0.7500
 20
0.4498
 30
0.0000
 40
0.0354
  0
LINE
  8
5
 10
-1.0157
 20
-0.6102
 30
0.0000
 11
-1.0157
 21
-0.5404
 31
0.0000
  0
LINE
  8
5
 10
-1.0157
 20
-0.5404
 30
0.0000
 11
-1.0856
 21
-0.5404
 31
0.0000
  0
LINE
  8
5
 10
-1.0856
 20
-0.5404
 30
0.0000
 11
-1.0856
 21
-0.6102
 31
0.0000
  0
LINE
  8
5
 10
-1.0856
 20
-0.6102
 30
0.0000
 11
-1.0157
 21
-0.6102
 31
0.0000
  0
CIRCLE
  8
5
 10
-0.9508
 20
-0.5748
 30
0.0000
 40
0.0354
  0
CIRCLE
  8
5
 10
-0.8504
 20
-0.5748
 30
0.0000
 40
0.0354
  0
CIRCLE
  8
5
 10
-0.7500
 20
-0.5748
 30
0.0000
 40
0.0354
  0
CIRCLE
  8
5
 10
-0.6506
 20
-0.5748
 30
0.0000
 40
0.0354
  0
CIRCLE
  8
5
 10
-0.5502
 20
-0.5748
 30
0.0000
 40
0.0354
  0
CIRCLE
  8
5
 10
-0.4508
 20
-0.5748
 30
0.0000
 40
0.0354
  0
CIRCLE
  8
5
 10
-0.3504
 20
-0.5748
 30
0.0000
 40
0.0354
  0
CIRCLE
  8
5
 10
-0.2500
 20
-0.5748
 30
0.0000
 40
0.0354
  0
CIRCLE
  8
5
 10
-0.1506
 20
-0.5748
 30
0.0000
 40
0.0354
  0
CIRCLE
  8
5
 10
-0.1506
 20
-0.2756
 30
0.0000
 40
0.0354
  0
CIRCLE
  8
5
 10
-0.2500
 20
-0.2756
 30
0.0000
 40
0.0354
  0
CIRCLE
  8
5
 10
-0.3504
 20
-0.2756
 30
0.0000
 40
0.0354
  0
CIRCLE
  8
5
 10
-0.4508
 20
-0.2756
 30
0.0000
 40
0.0354
  0
CIRCLE
  8
5
 10
-0.5502
 20
-0.2756
 30
0.0000
 40
0.0354
  0
CIRCLE
  8
5
 10
-0.6506
 20
-0.2756
 30
0.0000
 40
0.0354
  0
CIRCLE
  8
5
 10
-0.7500
 20
-0.2756
 30
0.0000
 40
0.0354
  0
CIRCLE
  8
5
 10
-0.8504
 20
-0.2756
 30
0.0000
 40
0.0354
  0
CIRCLE
  8
5
 10
-0.9508
 20
-0.2756
 30
0.0000
 40
0.0354
  0
CIRCLE
  8
5
 10
-1.0502
 20
-0.2756
 30
0.0000
 40
0.0354
  0
LINE
  8
5
 10
-2.0906
 20
-1.2106
 30
0.0000
 11
-2.0906
 21
-1.1398
 31
0.0000
  0
LINE
  8
5
 10
-2.0906
 20
-1.1398
 30
0.0000
 11
-2.1604
 21
-1.1398
 31
0.0000
  0
LINE
  8
5
 10
-2.1604
 20
-1.1398
 30
0.0000
 11
-2.1604
 21
-1.2106
 31
0.0000
  0
LINE
  8
5
 10
-2.1604
 20
-1.2106
 30
0.0000
 11
-2.0906
 21
-1.2106
 31
0.0000
  0
CIRCLE
  8
5
 10
-2.0256
 20
-1.1752
 30
0.0000
 40
0.0354
  0
CIRCLE
  8
5
 10
-1.9252
 20
-1.1752
 30
0.0000
 40
0.0354
  0
CIRCLE
  8
5
 10
-1.8258
 20
-1.1752
 30
0.0000
 40
0.0354
  0
CIRCLE
  8
5
 10
-1.7254
 20
-1.1752
 30
0.0000
 40
0.0354
  0
CIRCLE
  8
5
 10
-1.6250
 20
-1.1752
 30
0.0000
 40
0.0354
  0
CIRCLE
  8
5
 10
-1.5256
 20
-1.1752
 30
0.0000
 40
0.0354
  0
CIRCLE
  8
5
 10
-1.4252
 20
-1.1752
 30
0.0000
 40
0.0354
  0
CIRCLE
  8
5
 10
-1.3258
 20
-1.1752
 30
0.0000
 40
0.0354
  0
CIRCLE
  8
5
 10
-1.2254
 20
-1.1752
 30
0.0000
 40
0.0354
  0
CIRCLE
  8
5
 10
-1.2254
 20
-0.8750
 30
0.0000
 40
0.0354
  0
CIRCLE
  8
5
 10
-1.3258
 20
-0.8750
 30
0.0000
 40
0.0354
  0
CIRCLE
  8
5
 10
-1.4252
 20
-0.8750
 30
0.0000
 40
0.0354
  0
CIRCLE
  8
5
 10
-1.5256
 20
-0.8750
 30
0.0000
 40
0.0354
  0
CIRCLE
  8
5
 10
-1.6250
 20
-0.8750
 30
0.0000
 40
0.0354
  0
CIRCLE
  8
5
 10
-1.7254
 20
-0.8750
 30
0.0000
 40
0.0354
  0
CIRCLE
  8
5
 10
-1.8258
 20
-0.8750
 30
0.0000
 40
0.0354
  0
CIRCLE
  8
5
 10
-1.9252
 20
-0.8750
 30
0.0000
 40
0.0354
  0
CIRCLE
  8
5
 10
-2.0256
 20
-0.8750
 30
0.0000
 40
0.0354
  0
CIRCLE
  8
5
 10
-2.1250
 20
-0.8750
 30
0.0000
 40
0.0354
  0
LINE
  8
5
 10
-3.8406
 20
-1.2106
 30
0.0000
 11
-3.8406
 21
-1.1398
 31
0.0000
  0
LINE
  8
5
 10
-3.8406
 20
-1.1398
 30
0.0000
 11
-3.9104
 21
-1.1398
 31
0.0000
  0
LINE
  8
5
 10
-3.9104
 20
-1.1398
 30
0.0000
 11
-3.9104
 21
-1.2106
 31
0.0000
  0
LINE
  8
5
 10
-3.9104
 20
-1.2106
 30
0.0000
 11
-3.8406
 21
-1.2106
 31
0.0000
  0
CIRCLE
  8
5
 10
-3.7756
 20
-1.1752
 30
0.0000
 40
0.0354
  0
CIRCLE
  8
5
 10
-3.6752
 20
-1.1752
 30
0.0000
 40
0.0354
  0
CIRCLE
  8
5
 10
-3.5758
 20
-1.1752
 30
0.0000
 40
0.0354
  0
CIRCLE
  8
5
 10
-3.4754
 20
-1.1752
 30
0.0000
 40
0.0354
  0
CIRCLE
  8
5
 10
-3.3750
 20
-1.1752
 30
0.0000
 40
0.0354
  0
CIRCLE
  8
5
 10
-3.2756
 20
-1.1752
 30
0.0000
 40
0.0354
  0
CIRCLE
  8
5
 10
-3.1752
 20
-1.1752
 30
0.0000
 40
0.0354
  0
CIRCLE
  8
5
 10
-3.0758
 20
-1.1752
 30
0.0000
 40
0.0354
  0
CIRCLE
  8
5
 10
-2.9754
 20
-1.1752
 30
0.0000
 40
0.0354
  0
CIRCLE
  8
5
 10
-2.9754
 20
-0.8750
 30
0.0000
 40
0.0354
  0
CIRCLE
  8
5
 10
-3.0758
 20
-0.8750
 30
0.0000
 40
0.0354
  0
CIRCLE
  8
5
 10
-3.1752
 20
-0.8750
 30
0.0000
 40
0.0354
  0
CIRCLE
  8
5
 10
-3.2756
 20
-0.8750
 30
0.0000
 40
0.0354
  0
CIRCLE
  8
5
 10
-3.3750
 20
-0.8750
 30
0.0000
 40
0.0354
  0
CIRCLE
  8
5
 10
-3.4754
 20
-0.8750
 30
0.0000
 40
0.0354
  0
CIRCLE
  8
5
 10
-3.5758
 20
-0.8750
 30
0.0000
 40
0.0354
  0
CIRCLE
  8
5
 10
-3.6752
 20
-0.8750
 30
0.0000
 40
0.0354
  0
CIRCLE
  8
5
 10
-3.7756
 20
-0.8750
 30
0.0000
 40
0.0354
  0
CIRCLE
  8
5
 10
-3.8750
 20
-0.8750
 30
0.0000
 40
0.0354
  0
LINE
  8
5
 10
-1.0157
 20
-1.2106
 30
0.0000
 11
-1.0157
 21
-1.1398
 31
0.0000
  0
LINE
  8
5
 10
-1.0157
 20
-1.1398
 30
0.0000
 11
-1.0856
 21
-1.1398
 31
0.0000
  0
LINE
  8
5
 10
-1.0856
 20
-1.1398
 30
0.0000
 11
-1.0856
 21
-1.2106
 31
0.0000
  0
LINE
  8
5
 10
-1.0856
 20
-1.2106
 30
0.0000
 11
-1.0157
 21
-1.2106
 31
0.0000
  0
CIRCLE
  8
5
 10
-0.9508
 20
-1.1752
 30
0.0000
 40
0.0354
  0
CIRCLE
  8
5
 10
-0.8504
 20
-1.1752
 30
0.0000
 40
0.0354
  0
CIRCLE
  8
5
 10
-0.7500
 20
-1.1752
 30
0.0000
 40
0.0354
  0
CIRCLE
  8
5
 10
-0.6506
 20
-1.1752
 30
0.0000
 40
0.0354
  0
CIRCLE
  8
5
 10
-0.5502
 20
-1.1752
 30
0.0000
 40
0.0354
  0
CIRCLE
  8
5
 10
-0.4508
 20
-1.1752
 30
0.0000
 40
0.0354
  0
CIRCLE
  8
5
 10
-0.3504
 20
-1.1752
 30
0.0000
 40
0.0354
  0
CIRCLE
  8
5
 10
-0.2500
 20
-1.1752
 30
0.0000
 40
0.0354
  0
CIRCLE
  8
5
 10
-0.1506
 20
-1.1752
 30
0.0000
 40
0.0354
  0
CIRCLE
  8
5
 10
-0.1506
 20
-0.8750
 30
0.0000
 40
0.0354
  0
CIRCLE
  8
5
 10
-0.2500
 20
-0.8750
 30
0.0000
 40
0.0354
  0
CIRCLE
  8
5
 10
-0.3504
 20
-0.8750
 30
0.0000
 40
0.0354
  0
CIRCLE
  8
5
 10
-0.4508
 20
-0.8750
 30
0.0000
 40
0.0354
  0
CIRCLE
  8
5
 10
-0.5502
 20
-0.8750
 30
0.0000
 40
0.0354
  0
CIRCLE
  8
5
 10
-0.6506
 20
-0.8750
 30
0.0000
 40
0.0354
  0
CIRCLE
  8
5
 10
-0.7500
 20
-0.8750
 30
0.0000
 40
0.0354
  0
CIRCLE
  8
5
 10
-0.8504
 20
-0.8750
 30
0.0000
 40
0.0354
  0
CIRCLE
  8
5
 10
-0.9508
 20
-0.8750
 30
0.0000
 40
0.0354
  0
CIRCLE
  8
5
 10
-1.0502
 20
-0.8750
 30
0.0000
 40
0.0354
  0
LINE
  8
5
 10
-1.0157
 20
1.2894
 30
0.0000
 11
-1.0157
 21
1.3602
 31
0.0000
  0
LINE
  8
5
 10
-1.0157
 20
1.3602
 30
0.0000
 11
-1.0856
 21
1.3602
 31
0.0000
  0
LINE
  8
5
 10
-1.0856
 20
1.3602
 30
0.0000
 11
-1.0856
 21
1.2894
 31
0.0000
  0
LINE
  8
5
 10
-1.0856
 20
1.2894
 30
0.0000
 11
-1.0157
 21
1.2894
 31
0.0000
  0
CIRCLE
  8
5
 10
-0.9508
 20
1.3248
 30
0.0000
 40
0.0354
  0
CIRCLE
  8
5
 10
-0.8504
 20
1.3248
 30
0.0000
 40
0.0354
  0
CIRCLE
  8
5
 10
-0.7500
 20
1.3248
 30
0.0000
 40
0.0354
  0
CIRCLE
  8
5
 10
-0.6506
 20
1.3248
 30
0.0000
 40
0.0354
  0
CIRCLE
  8
5
 10
-0.5502
 20
1.3248
 30
0.0000
 40
0.0354
  0
CIRCLE
  8
5
 10
-0.4508
 20
1.3248
 30
0.0000
 40
0.0354
  0
CIRCLE
  8
5
 10
-0.3504
 20
1.3248
 30
0.0000
 40
0.0354
  0
CIRCLE
  8
5
 10
-0.2500
 20
1.3248
 30
0.0000
 40
0.0354
  0
CIRCLE
  8
5
 10
-0.1506
 20
1.3248
 30
0.0000
 40
0.0354
  0
CIRCLE
  8
5
 10
-0.1506
 20
1.6250
 30
0.0000
 40
0.0354
  0
CIRCLE
  8
5
 10
-0.2500
 20
1.6250
 30
0.0000
 40
0.0354
  0
CIRCLE
  8
5
 10
-0.3504
 20
1.6250
 30
0.0000
 40
0.0354
  0
CIRCLE
  8
5
 10
-0.4508
 20
1.6250
 30
0.0000
 40
0.0354
  0
CIRCLE
  8
5
 10
-0.5502
 20
1.6250
 30
0.0000
 40
0.0354
  0
CIRCLE
  8
5
 10
-0.6506
 20
1.6250
 30
0.0000
 40
0.0354
  0
CIRCLE
  8
5
 10
-0.7500
 20
1.6250
 30
0.0000
 40
0.0354
  0
CIRCLE
  8
5
 10
-0.8504
 20
1.6250
 30
0.0000
 40
0.0354
  0
CIRCLE
  8
5
 10
-0.9508
 20
1.6250
 30
0.0000
 40
0.0354
  0
CIRCLE
  8
5
 10
-1.0502
 20
1.6250
 30
0.0000
 40
0.0354
  0
CIRCLE
  8
5
 10
-0.9508
 20
0.2244
 30
0.0000
 40
0.0354
  0
CIRCLE
  8
5
 10
-1.3504
 20
0.2244
 30
0.0000
 40
0.0354
  0
CIRCLE
  8
5
 10
-0.9508
 20
0.1250
 30
0.0000
 40
0.0354
  0
CIRCLE
  8
5
 10
-1.3504
 20
0.1250
 30
0.0000
 40
0.0354
  0
CIRCLE
  8
5
 10
-0.9508
 20
0.0246
 30
0.0000
 40
0.0354
  0
CIRCLE
  8
5
 10
-1.3504
 20
0.0246
 30
0.0000
 40
0.0354
  0
CIRCLE
  8
5
 10
-2.8750
 20
1.2500
 30
0.0000
 40
0.0354
  0
CIRCLE
  8
5
 10
-2.8750
 20
1.6496
 30
0.0000
 40
0.0354
  0
CIRCLE
  8
5
 10
-4.6752
 20
0.4498
 30
0.0000
 40
0.0354
  0
CIRCLE
  8
5
 10
-5.0758
 20
0.4498
 30
0.0000
 40
0.0354
  0
CIRCLE
  8
5
 10
-4.7756
 20
-1.1752
 30
0.0000
 40
0.0354
  0
CIRCLE
  8
5
 10
-4.7756
 20
-0.7756
 30
0.0000
 40
0.0354
  0
CIRCLE
  8
5
 10
-4.4252
 20
1.2244
 30
0.0000
 40
0.0354
  0
CIRCLE
  8
5
 10
-4.0256
 20
1.2244
 30
0.0000
 40
0.0354
  0
CIRCLE
  8
5
 10
-1.7756
 20
0.3248
 30
0.0000
 40
0.0354
  0
CIRCLE
  8
5
 10
-1.7756
 20
-0.0748
 30
0.0000
 40
0.0354
  0
CIRCLE
  8
5
 10
-1.5758
 20
0.3248
 30
0.0000
 40
0.0354
  0
CIRCLE
  8
5
 10
-1.5758
 20
-0.0748
 30
0.0000
 40
0.0354
  0
CIRCLE
  8
5
 10
-1.6752
 20
-0.0748
 30
0.0000
 40
0.0354
  0
CIRCLE
  8
5
 10
-1.6752
 20
0.3248
 30
0.0000
 40
0.0354
  0
CIRCLE
  8
5
 10
-1.4252
 20
-0.7500
 30
0.0000
 40
0.0354
  0
CIRCLE
  8
5
 10
-1.8258
 20
-0.7500
 30
0.0000
 40
0.0354
  0
CIRCLE
  8
5
 10
-0.9508
 20
0.3248
 30
0.0000
 40
0.0354
  0
CIRCLE
  8
5
 10
-1.3504
 20
0.3248
 30
0.0000
 40
0.0354
  0
LINE
  8
5
 10
-3.8406
 20
-0.6102
 30
0.0000
 11
-3.8406
 21
-0.5404
 31
0.0000
  0
LINE
  8
5
 10
-3.8406
 20
-0.5404
 30
0.0000
 11
-3.9104
 21
-0.5404
 31
0.0000
  0
LINE
  8
5
 10
-3.9104
 20
-0.5404
 30
0.0000
 11
-3.9104
 21
-0.6102
 31
0.0000
  0
LINE
  8
5
 10
-3.9104
 20
-0.6102
 30
0.0000
 11
-3.8406
 21
-0.6102
 31
0.0000
  0
CIRCLE
  8
5
 10
-3.7756
 20
-0.5748
 30
0.0000
 40
0.0354
  0
CIRCLE
  8
5
 10
-3.6752
 20
-0.5748
 30
0.0000
 40
0.0354
  0
CIRCLE
  8
5
 10
-3.5758
 20
-0.5748
 30
0.0000
 40
0.0354
  0
CIRCLE
  8
5
 10
-3.4754
 20
-0.5748
 30
0.0000
 40
0.0354
  0
CIRCLE
  8
5
 10
-3.3750
 20
-0.5748
 30
0.0000
 40
0.0354
  0
CIRCLE
  8
5
 10
-3.2756
 20
-0.5748
 30
0.0000
 40
0.0354
  0
CIRCLE
  8
5
 10
-3.1752
 20
-0.5748
 30
0.0000
 40
0.0354
  0
CIRCLE
  8
5
 10
-3.0758
 20
-0.5748
 30
0.0000
 40
0.0354
  0
CIRCLE
  8
5
 10
-3.0758
 20
-0.2756
 30
0.0000
 40
0.0354
  0
CIRCLE
  8
5
 10
-3.1752
 20
-0.2756
 30
0.0000
 40
0.0354
  0
CIRCLE
  8
5
 10
-3.2756
 20
-0.2756
 30
0.0000
 40
0.0354
  0
CIRCLE
  8
5
 10
-3.3750
 20
-0.2756
 30
0.0000
 40
0.0354
  0
CIRCLE
  8
5
 10
-3.4754
 20
-0.2756
 30
0.0000
 40
0.0354
  0
CIRCLE
  8
5
 10
-3.5758
 20
-0.2756
 30
0.0000
 40
0.0354
  0
CIRCLE
  8
5
 10
-3.6752
 20
-0.2756
 30
0.0000
 40
0.0354
  0
CIRCLE
  8
5
 10
-3.7756
 20
-0.2756
 30
0.0000
 40
0.0354
  0
CIRCLE
  8
5
 10
-3.8750
 20
-0.2756
 30
0.0000
 40
0.0354
  0
CIRCLE
  8
5
 10
-2.9754
 20
-0.5748
 30
0.0000
 40
0.0354
  0
CIRCLE
  8
5
 10
-2.8750
 20
-0.5748
 30
0.0000
 40
0.0354
  0
CIRCLE
  8
5
 10
-2.7756
 20
-0.5748
 30
0.0000
 40
0.0354
  0
CIRCLE
  8
5
 10
-2.7756
 20
-0.2756
 30
0.0000
 40
0.0354
  0
CIRCLE
  8
5
 10
-2.8750
 20
-0.2756
 30
0.0000
 40
0.0354
  0
CIRCLE
  8
5
 10
-2.9754
 20
-0.2756
 30
0.0000
 40
0.0354
  0
CIRCLE
  8
5
 10
0.1250
 20
-0.2500
 30
0.0000
 40
0.0354
  0
CIRCLE
  8
5
 10
0.1250
 20
-1.0000
 30
0.0000
 40
0.0354
  0
LINE
  8
5
 10
-3.7904
 20
-1.4656
 30
0.0000
 11
-3.8602
 21
-1.4656
 31
0.0000
  0
LINE
  8
5
 10
-3.8602
 20
-1.4656
 30
0.0000
 11
-3.8602
 21
-1.5354
 31
0.0000
  0
LINE
  8
5
 10
-3.8602
 20
-1.5354
 30
0.0000
 11
-3.7904
 21
-1.5354
 31
0.0000
  0
LINE
  8
5
 10
-3.7904
 20
-1.5354
 30
0.0000
 11
-3.7904
 21
-1.4656
 31
0.0000
  0
CIRCLE
  8
5
 10
-3.9252
 20
-1.5000
 30
0.0000
 40
0.0354
  0
CIRCLE
  8
5
 10
-4.0256
 20
-1.5000
 30
0.0000
 40
0.0354
  0
CIRCLE
  8
5
 10
-4.1250
 20
-1.5000
 30
0.0000
 40
0.0354
  0
CIRCLE
  8
5
 10
-4.2254
 20
-1.5000
 30
0.0000
 40
0.0354
  0
CIRCLE
  8
5
 10
-4.3258
 20
-1.5000
 30
0.0000
 40
0.0354
  0
CIRCLE
  8
5
 10
-4.4252
 20
-1.5000
 30
0.0000
 40
0.0354
  0
CIRCLE
  8
5
 10
-4.5256
 20
-1.5000
 30
0.0000
 40
0.0354
  0
CIRCLE
  8
5
 10
-4.6250
 20
-1.5000
 30
0.0000
 40
0.0354
  0
CIRCLE
  8
5
 10
-4.7254
 20
-1.5000
 30
0.0000
 40
0.0354
  0
LINE
  8
5
 10
0.1142
 20
1.3848
 30
0.0000
 11
0.1142
 21
1.3150
 31
0.0000
  0
LINE
  8
5
 10
0.1142
 20
1.3150
 30
0.0000
 11
0.1850
 21
1.3150
 31
0.0000
  0
LINE
  8
5
 10
0.1850
 20
1.3150
 30
0.0000
 11
0.1850
 21
1.3848
 31
0.0000
  0
LINE
  8
5
 10
0.1850
 20
1.3848
 30
0.0000
 11
0.1142
 21
1.3848
 31
0.0000
  0
CIRCLE
  8
5
 10
0.1496
 20
1.2500
 30
0.0000
 40
0.0354
  0
CIRCLE
  8
5
 10
0.1496
 20
1.1496
 30
0.0000
 40
0.0354
  0
CIRCLE
  8
5
 10
0.1496
 20
1.0502
 30
0.0000
 40
0.0354
  0
CIRCLE
  8
5
 10
0.1496
 20
0.9498
 30
0.0000
 40
0.0354
  0
CIRCLE
  8
5
 10
0.1496
 20
0.8494
 30
0.0000
 40
0.0354
  0
CIRCLE
  8
5
 10
0.1496
 20
0.7500
 30
0.0000
 40
0.0354
  0
CIRCLE
  8
5
 10
0.1496
 20
0.6496
 30
0.0000
 40
0.0354
  0
CIRCLE
  8
5
 10
0.1496
 20
0.5502
 30
0.0000
 40
0.0354
  0
CIRCLE
  8
5
 10
0.1496
 20
0.4498
 30
0.0000
 40
0.0354
  0
LINE
  8
5
 10
-2.8356
 20
-1.1102
 30
0.0000
 11
-2.7657
 21
-1.1102
 31
0.0000
  0
LINE
  8
5
 10
-2.7657
 20
-1.1102
 30
0.0000
 11
-2.7657
 21
-1.0404
 31
0.0000
  0
LINE
  8
5
 10
-2.7657
 20
-1.0404
 30
0.0000
 11
-2.8356
 21
-1.0404
 31
0.0000
  0
LINE
  8
5
 10
-2.8356
 20
-1.0404
 30
0.0000
 11
-2.8356
 21
-1.1102
 31
0.0000
  0
CIRCLE
  8
5
 10
-2.8002
 20
-0.9754
 30
0.0000
 40
0.0354
  0
CIRCLE
  8
5
 10
-2.7008
 20
-1.0748
 30
0.0000
 40
0.0354
  0
CIRCLE
  8
5
 10
-2.7008
 20
-0.9754
 30
0.0000
 40
0.0354
  0
CIRCLE
  8
5
 10
-2.6004
 20
-1.0748
 30
0.0000
 40
0.0354
  0
CIRCLE
  8
5
 10
-2.6004
 20
-0.9754
 30
0.0000
 40
0.0354
  0
CIRCLE
  8
5
 10
-2.5000
 20
-1.0748
 30
0.0000
 40
0.0354
  0
CIRCLE
  8
5
 10
-2.5000
 20
-0.9754
 30
0.0000
 40
0.0354
  0
CIRCLE
  8
5
 10
-2.4006
 20
-1.0748
 30
0.0000
 40
0.0354
  0
CIRCLE
  8
5
 10
-2.4006
 20
-0.9754
 30
0.0000
 40
0.0354
  0
CIRCLE
  8
5
 10
-2.3002
 20
-1.0748
 30
0.0000
 40
0.0354
  0
CIRCLE
  8
5
 10
-2.3002
 20
-0.9754
 30
0.0000
 40
0.0354
  0
LINE
  8
5
 10
-4.4902
 20
-1.2106
 30
0.0000
 11
-4.4902
 21
-1.1398
 31
0.0000
  0
LINE
  8
5
 10
-4.4902
 20
-1.1398
 30
0.0000
 11
-4.5600
 21
-1.1398
 31
0.0000
  0
LINE
  8
5
 10
-4.5600
 20
-1.1398
 30
0.0000
 11
-4.5600
 21
-1.2106
 31
0.0000
  0
LINE
  8
5
 10
-4.5600
 20
-1.2106
 30
0.0000
 11
-4.4902
 21
-1.2106
 31
0.0000
  0
CIRCLE
  8
5
 10
-4.4252
 20
-1.1752
 30
0.0000
 40
0.0354
  0
CIRCLE
  8
5
 10
-4.3258
 20
-1.1752
 30
0.0000
 40
0.0354
  0
CIRCLE
  8
5
 10
-4.2254
 20
-1.1752
 30
0.0000
 40
0.0354
  0
CIRCLE
  8
5
 10
-4.1250
 20
-1.1752
 30
0.0000
 40
0.0354
  0
CIRCLE
  8
5
 10
-4.1250
 20
-0.8750
 30
0.0000
 40
0.0354
  0
CIRCLE
  8
5
 10
-4.2254
 20
-0.8750
 30
0.0000
 40
0.0354
  0
CIRCLE
  8
5
 10
-4.3258
 20
-0.8750
 30
0.0000
 40
0.0354
  0
CIRCLE
  8
5
 10
-4.4252
 20
-0.8750
 30
0.0000
 40
0.0354
  0
CIRCLE
  8
5
 10
-4.5256
 20
-0.8750
 30
0.0000
 40
0.0354
  0
LINE
  8
5
 10
-0.0600
 20
-1.3652
 30
0.0000
 11
-0.0600
 21
-1.4350
 31
0.0000
  0
LINE
  8
5
 10
-0.0600
 20
-1.4350
 30
0.0000
 11
0.0098
 21
-1.4350
 31
0.0000
  0
LINE
  8
5
 10
0.0098
 20
-1.4350
 30
0.0000
 11
0.0098
 21
-1.3652
 31
0.0000
  0
LINE
  8
5
 10
0.0098
 20
-1.3652
 30
0.0000
 11
-0.0600
 21
-1.3652
 31
0.0000
  0
CIRCLE
  8
5
 10
-0.0256
 20
-1.4803
 30
0.0000
 40
0.0354
  0
LINE
  8
5
 10
-3.6358
 20
-1.3652
 30
0.0000
 11
-3.6358
 21
-1.4350
 31
0.0000
  0
LINE
  8
5
 10
-3.6358
 20
-1.4350
 30
0.0000
 11
-3.5650
 21
-1.4350
 31
0.0000
  0
LINE
  8
5
 10
-3.5650
 20
-1.4350
 30
0.0000
 11
-3.5650
 21
-1.3652
 31
0.0000
  0
LINE
  8
5
 10
-3.5650
 20
-1.3652
 30
0.0000
 11
-3.6358
 21
-1.3652
 31
0.0000
  0
CIRCLE
  8
5
 10
-3.6004
 20
-1.4803
 30
0.0000
 40
0.0354
  0
LINE
  8
5
 10
-4.4606
 20
0.7402
 30
0.0000
 11
-4.3907
 21
0.7402
 31
0.0000
  0
LINE
  8
5
 10
-4.3907
 20
0.7402
 30
0.0000
 11
-4.3907
 21
0.8100
 31
0.0000
  0
LINE
  8
5
 10
-4.3907
 20
0.8100
 30
0.0000
 11
-4.4606
 21
0.8100
 31
0.0000
  0
LINE
  8
5
 10
-4.4606
 20
0.8100
 30
0.0000
 11
-4.4606
 21
0.7402
 31
0.0000
  0
CIRCLE
  8
5
 10
-4.4252
 20
0.1752
 30
0.0000
 40
0.0354
  0
CIRCLE
  8
5
 10
-4.1250
 20
0.1752
 30
0.0000
 40
0.0354
  0
CIRCLE
  8
5
 10
-4.1250
 20
0.7746
 30
0.0000
 40
0.0354
  0
LINE
  8
5
 10
0.3110
 20
1.0669
 30
0.0000
 11
0.3967
 21
1.0669
 31
0.0000
  0
LINE
  8
5
 10
0.3967
 20
1.0669
 30
0.0000
 11
0.3967
 21
1.1526
 31
0.0000
  0
LINE
  8
5
 10
0.3967
 20
1.1526
 30
0.0000
 11
0.3110
 21
1.1526
 31
0.0000
  0
LINE
  8
5
 10
0.3110
 20
1.1526
 30
0.0000
 11
0.3110
 21
1.0669
 31
0.0000
  0
CIRCLE
  8
5
 10
0.3533
 20
1.0000
 30
0.0000
 40
0.0433
  0
CIRCLE
  8
5
 10
0.3533
 20
0.8898
 30
0.0000
 40
0.0433
  0
CIRCLE
  8
5
 10
0.3533
 20
0.7795
 30
0.0000
 40
0.0433
  0
CIRCLE
  8
5
 10
0.3533
 20
0.6703
 30
0.0000
 40
0.0433
  0
CIRCLE
  8
5
 10
0.4656
 20
1.0551
 30
0.0000
 40
0.0433
  0
CIRCLE
  8
5
 10
0.4656
 20
0.9449
 30
0.0000
 40
0.0433
  0
CIRCLE
  8
5
 10
0.4656
 20
0.8346
 30
0.0000
 40
0.0433
  0
CIRCLE
  8
5
 10
0.4656
 20
0.7244
 30
0.0000
 40
0.0433
  0
CIRCLE
  8
5
 10
0.4094
 20
1.3809
 30
0.0000
 40
0.1299
  0
CIRCLE
  8
5
 10
0.4094
 20
0.3986
 30
0.0000
 40
0.1299
  0
LINE
  8
5
 10
0.3110
 20
-0.2835
 30
0.0000
 11
0.3967
 21
-0.2835
 31
0.0000
  0
LINE
  8
5
 10
0.3967
 20
-0.2835
 30
0.0000
 11
0.3967
 21
-0.1969
 31
0.0000
  0
LINE
  8
5
 10
0.3967
 20
-0.1969
 30
0.0000
 11
0.3110
 21
-0.1969
 31
0.0000
  0
LINE
  8
5
 10
0.3110
 20
-0.1969
 30
0.0000
 11
0.3110
 21
-0.2835
 31
0.0000
  0
CIRCLE
  8
5
 10
0.3533
 20
-0.3504
 30
0.0000
 40
0.0433
  0
CIRCLE
  8
5
 10
0.3533
 20
-0.4606
 30
0.0000
 40
0.0433
  0
CIRCLE
  8
5
 10
0.3533
 20
-0.5699
 30
0.0000
 40
0.0433
  0
CIRCLE
  8
5
 10
0.3533
 20
-0.6801
 30
0.0000
 40
0.0433
  0
CIRCLE
  8
5
 10
0.3533
 20
-0.7904
 30
0.0000
 40
0.0433
  0
CIRCLE
  8
5
 10
0.3533
 20
-0.9006
 30
0.0000
 40
0.0433
  0
CIRCLE
  8
5
 10
0.3533
 20
-1.0098
 30
0.0000
 40
0.0433
  0
CIRCLE
  8
5
 10
0.3533
 20
-1.1201
 30
0.0000
 40
0.0433
  0
CIRCLE
  8
5
 10
0.3533
 20
-1.2303
 30
0.0000
 40
0.0433
  0
CIRCLE
  8
5
 10
0.3533
 20
-1.3406
 30
0.0000
 40
0.0433
  0
CIRCLE
  8
5
 10
0.3533
 20
-1.4498
 30
0.0000
 40
0.0433
  0
CIRCLE
  8
5
 10
0.3533
 20
-1.5600
 30
0.0000
 40
0.0433
  0
CIRCLE
  8
5
 10
0.4656
 20
-0.2953
 30
0.0000
 40
0.0433
  0
CIRCLE
  8
5
 10
0.4656
 20
-0.4055
 30
0.0000
 40
0.0433
  0
CIRCLE
  8
5
 10
0.4656
 20
-0.5148
 30
0.0000
 40
0.0433
  0
CIRCLE
  8
5
 10
0.4656
 20
-0.6250
 30
0.0000
 40
0.0433
  0
CIRCLE
  8
5
 10
0.4656
 20
-0.7352
 30
0.0000
 40
0.0433
  0
CIRCLE
  8
5
 10
0.4656
 20
-0.8455
 30
0.0000
 40
0.0433
  0
CIRCLE
  8
5
 10
0.4656
 20
-0.9547
 30
0.0000
 40
0.0433
  0
CIRCLE
  8
5
 10
0.4656
 20
-1.0650
 30
0.0000
 40
0.0433
  0
CIRCLE
  8
5
 10
0.4656
 20
-1.1752
 30
0.0000
 40
0.0433
  0
CIRCLE
  8
5
 10
0.4656
 20
-1.2854
 30
0.0000
 40
0.0433
  0
CIRCLE
  8
5
 10
0.4656
 20
-1.3957
 30
0.0000
 40
0.0433
  0
CIRCLE
  8
5
 10
0.4656
 20
-1.5049
 30
0.0000
 40
0.0433
  0
CIRCLE
  8
5
 10
0.4094
 20
0.0256
 30
0.0000
 40
0.1299
  0
CIRCLE
  8
5
 10
0.4094
 20
-1.8258
 30
0.0000
 40
0.1299
  0
LINE
  8
5
 10
-0.2254
 20
-1.4656
 30
0.0000
 11
-0.2953
 21
-1.4656
 31
0.0000
  0
LINE
  8
5
 10
-0.2953
 20
-1.4656
 30
0.0000
 11
-0.2953
 21
-1.5354
 31
0.0000
  0
LINE
  8
5
 10
-0.2953
 20
-1.5354
 30
0.0000
 11
-0.2254
 21
-1.5354
 31
0.0000
  0
LINE
  8
5
 10
-0.2254
 20
-1.5354
 30
0.0000
 11
-0.2254
 21
-1.4656
 31
0.0000
  0
CIRCLE
  8
5
 10
-0.2608
 20
-1.4006
 30
0.0000
 40
0.0354
  0
CIRCLE
  8
5
 10
-0.3602
 20
-1.5000
 30
0.0000
 40
0.0354
  0
CIRCLE
  8
5
 10
-0.4606
 20
-1.5000
 30
0.0000
 40
0.0354
  0
CIRCLE
  8
5
 10
-0.5600
 20
-1.5000
 30
0.0000
 40
0.0354
  0
CIRCLE
  8
5
 10
-0.6604
 20
-1.5000
 30
0.0000
 40
0.0354
  0
CIRCLE
  8
5
 10
-0.7608
 20
-1.5000
 30
0.0000
 40
0.0354
  0
CIRCLE
  8
5
 10
-0.8602
 20
-1.5000
 30
0.0000
 40
0.0354
  0
CIRCLE
  8
5
 10
-0.9606
 20
-1.5000
 30
0.0000
 40
0.0354
  0
CIRCLE
  8
5
 10
-1.0600
 20
-1.5000
 30
0.0000
 40
0.0354
  0
CIRCLE
  8
5
 10
-1.1604
 20
-1.5000
 30
0.0000
 40
0.0354
  0
CIRCLE
  8
5
 10
-1.2608
 20
-1.5000
 30
0.0000
 40
0.0354
  0
CIRCLE
  8
5
 10
-1.3602
 20
-1.5000
 30
0.0000
 40
0.0354
  0
CIRCLE
  8
5
 10
-1.4606
 20
-1.5000
 30
0.0000
 40
0.0354
  0
CIRCLE
  8
5
 10
-1.5600
 20
-1.5000
 30
0.0000
 40
0.0354
  0
CIRCLE
  8
5
 10
-1.6604
 20
-1.5000
 30
0.0000
 40
0.0354
  0
CIRCLE
  8
5
 10
-1.7608
 20
-1.5000
 30
0.0000
 40
0.0354
  0
CIRCLE
  8
5
 10
-1.8602
 20
-1.5000
 30
0.0000
 40
0.0354
  0
CIRCLE
  8
5
 10
-1.9606
 20
-1.5000
 30
0.0000
 40
0.0354
  0
CIRCLE
  8
5
 10
-2.0600
 20
-1.5000
 30
0.0000
 40
0.0354
  0
CIRCLE
  8
5
 10
-2.1604
 20
-1.5000
 30
0.0000
 40
0.0354
  0
CIRCLE
  8
5
 10
-2.2608
 20
-1.5000
 30
0.0000
 40
0.0354
  0
CIRCLE
  8
5
 10
-2.3602
 20
-1.5000
 30
0.0000
 40
0.0354
  0
CIRCLE
  8
5
 10
-2.4606
 20
-1.5000
 30
0.0000
 40
0.0354
  0
CIRCLE
  8
5
 10
-2.5600
 20
-1.5000
 30
0.0000
 40
0.0354
  0
CIRCLE
  8
5
 10
-2.6604
 20
-1.5000
 30
0.0000
 40
0.0354
  0
CIRCLE
  8
5
 10
-2.7608
 20
-1.5000
 30
0.0000
 40
0.0354
  0
CIRCLE
  8
5
 10
-2.8602
 20
-1.5000
 30
0.0000
 40
0.0354
  0
CIRCLE
  8
5
 10
-2.9606
 20
-1.5000
 30
0.0000
 40
0.0354
  0
CIRCLE
  8
5
 10
-3.0600
 20
-1.5000
 30
0.0000
 40
0.0354
  0
CIRCLE
  8
5
 10
-3.1604
 20
-1.5000
 30
0.0000
 40
0.0354
  0
CIRCLE
  8
5
 10
-3.2608
 20
-1.5000
 30
0.0000
 40
0.0354
  0
CIRCLE
  8
5
 10
-0.3602
 20
-1.4006
 30
0.0000
 40
0.0354
  0
CIRCLE
  8
5
 10
-0.4606
 20
-1.4006
 30
0.0000
 40
0.0354
  0
CIRCLE
  8
5
 10
-0.5600
 20
-1.4006
 30
0.0000
 40
0.0354
  0
CIRCLE
  8
5
 10
-0.6604
 20
-1.4006
 30
0.0000
 40
0.0354
  0
CIRCLE
  8
5
 10
-0.7608
 20
-1.4006
 30
0.0000
 40
0.0354
  0
CIRCLE
  8
5
 10
-0.8602
 20
-1.4006
 30
0.0000
 40
0.0354
  0
CIRCLE
  8
5
 10
-0.9606
 20
-1.4006
 30
0.0000
 40
0.0354
  0
CIRCLE
  8
5
 10
-1.0600
 20
-1.4006
 30
0.0000
 40
0.0354
  0
CIRCLE
  8
5
 10
-1.1604
 20
-1.4006
 30
0.0000
 40
0.0354
  0
CIRCLE
  8
5
 10
-1.2608
 20
-1.4006
 30
0.0000
 40
0.0354
  0
CIRCLE
  8
5
 10
-1.3602
 20
-1.4006
 30
0.0000
 40
0.0354
  0
CIRCLE
  8
5
 10
-1.4606
 20
-1.4006
 30
0.0000
 40
0.0354
  0
CIRCLE
  8
5
 10
-1.5600
 20
-1.4006
 30
0.0000
 40
0.0354
  0
CIRCLE
  8
5
 10
-1.6604
 20
-1.4006
 30
0.0000
 40
0.0354
  0
CIRCLE
  8
5
 10
-1.7608
 20
-1.4006
 30
0.0000
 40
0.0354
  0
CIRCLE
  8
5
 10
-1.8602
 20
-1.4006
 30
0.0000
 40
0.0354
  0
CIRCLE
  8
5
 10
-1.9606
 20
-1.4006
 30
0.0000
 40
0.0354
  0
CIRCLE
  8
5
 10
-2.0600
 20
-1.4006
 30
0.0000
 40
0.0354
  0
CIRCLE
  8
5
 10
-2.1604
 20
-1.4006
 30
0.0000
 40
0.0354
  0
CIRCLE
  8
5
 10
-2.2608
 20
-1.4006
 30
0.0000
 40
0.0354
  0
CIRCLE
  8
5
 10
-2.3602
 20
-1.4006
 30
0.0000
 40
0.0354
  0
CIRCLE
  8
5
 10
-2.4606
 20
-1.4006
 30
0.0000
 40
0.0354
  0
CIRCLE
  8
5
 10
-2.5600
 20
-1.4006
 30
0.0000
 40
0.0354
  0
CIRCLE
  8
5
 10
-2.6604
 20
-1.4006
 30
0.0000
 40
0.0354
  0
CIRCLE
  8
5
 10
-2.7608
 20
-1.4006
 30
0.0000
 40
0.0354
  0
CIRCLE
  8
5
 10
-2.8602
 20
-1.4006
 30
0.0000
 40
0.0354
  0
CIRCLE
  8
5
 10
-2.9606
 20
-1.4006
 30
0.0000
 40
0.0354
  0
CIRCLE
  8
5
 10
-3.0600
 20
-1.4006
 30
0.0000
 40
0.0354
  0
CIRCLE
  8
5
 10
-3.1604
 20
-1.4006
 30
0.0000
 40
0.0354
  0
CIRCLE
  8
5
 10
-3.2608
 20
-1.4006
 30
0.0000
 40
0.0354
  0
CIRCLE
  8
5
 10
-3.3602
 20
-1.5000
 30
0.0000
 40
0.0354
  0
CIRCLE
  8
5
 10
-3.3602
 20
-1.4006
 30
0.0000
 40
0.0354
  0
CIRCLE
  8
5
 10
-5.1506
 20
-1.4301
 30
0.0000
 40
0.1614
  0
CIRCLE
  8
5
 10
-5.1506
 20
-1.4301
 30
0.0000
 40
0.1299
  0
CIRCLE
  8
5
 10
-5.1506
 20
2.0699
 30
0.0000
 40
0.1614
  0
CIRCLE
  8
5
 10
-5.1506
 20
2.0699
 30
0.0000
 40
0.1299
  0
CIRCLE
  8
5
 10
0.4892
 20
2.0699
 30
0.0000
 40
0.1614
  0
CIRCLE
  8
5
 10
0.4892
 20
2.0699
 30
0.0000
 40
0.1299
  0
ENDSEC
  0
EOF
